<svg xmlns="http://www.w3.org/2000/svg" width="20" height="20" fill="none" viewBox="0 0 20 20">
    <path fill="#1E1E1E" d="M17.071 2.929C15.182 1.04 12.671 0 10 0 7.329 0 4.818 1.04 2.929 2.929 1.04 4.818 0 7.329 0 10c0 2.671 1.04 5.182 2.929 7.071C4.818 18.96 7.329 20 10 20c2.671 0 5.182-1.04 7.071-2.929C18.96 15.182 20 12.671 20 10c0-2.671-1.04-5.182-2.929-7.071z"/>
    <path fill="#ECECEC" d="M16.76 7.825c-2.714-1.219-5.612-1.837-8.612-1.837-1.491 0-2.98.157-4.426.466-.317.068-.518.38-.45.696.067.316.378.518.695.45 1.365-.292 2.772-.44 4.181-.44 2.833 0 5.57.583 8.133 1.734.078.035.16.052.24.052.223 0 .437-.13.534-.347.133-.295.001-.642-.294-.774zM14.328 13.345c-1.947-.88-4.026-1.326-6.18-1.326-1.146 0-2.288.13-3.395.385-.315.073-.511.387-.439.703.073.315.388.512.703.439 1.02-.236 2.074-.355 3.131-.355 1.986 0 3.903.41 5.697 1.222.079.036.16.052.241.052.223 0 .437-.128.535-.345.133-.294.002-.641-.293-.775zM15.564 10.541C13.226 9.49 10.73 8.956 8.148 8.956c-1.321 0-2.64.143-3.919.425-.316.07-.515.383-.446.699.07.316.383.516.699.446 1.196-.265 2.43-.399 3.666-.399 2.416 0 4.75.5 6.935 1.483.078.035.16.052.24.052.223 0 .437-.129.534-.346.133-.295.002-.642-.293-.775z"/>
</svg>
