<svg xmlns="http://www.w3.org/2000/svg" width="21" height="20" fill="none" viewBox="0 0 21 20">
    <path fill="#ECECEC" d="M18.069 2.929c-1.89-1.889-4.4-2.93-7.071-2.93C8.327 0 5.815 1.04 3.926 2.93 2.038 4.818.998 7.329.998 9.999c0 2.672 1.04 5.183 2.928 7.072C5.816 18.96 8.326 20 10.998 20c2.67 0 5.182-1.04 7.07-2.929 1.89-1.889 2.93-4.4 2.93-7.071 0-2.671-1.04-5.182-2.93-7.071z"/>
    <path fill="#333" d="M17.758 7.825c-2.715-1.22-5.612-1.837-8.612-1.837-1.492 0-2.98.157-4.427.466-.316.068-.518.38-.45.696.068.316.379.518.695.45 1.366-.292 2.773-.44 4.182-.44 2.833 0 5.569.583 8.132 1.734.078.035.16.052.24.052.224 0 .437-.13.535-.347.133-.295 0-.642-.295-.774zM15.326 13.345c-1.948-.88-4.027-1.326-6.18-1.326-1.146 0-2.288.13-3.395.385-.315.073-.512.387-.439.703.073.315.387.512.703.439 1.02-.236 2.073-.355 3.13-.355 1.987 0 3.903.41 5.698 1.222.078.036.16.052.241.052.223 0 .436-.128.534-.345.134-.294.003-.641-.292-.775zM16.561 10.541C14.224 9.49 11.73 8.955 9.146 8.955c-1.322 0-2.64.144-3.92.426-.315.07-.515.383-.445.699.07.316.383.516.699.446 1.196-.265 2.43-.399 3.666-.399 2.416 0 4.75.499 6.934 1.483.078.035.16.051.24.051.224 0 .437-.128.535-.345.133-.295.001-.642-.294-.775z"/>
</svg>
