<svg xmlns="http://www.w3.org/2000/svg" width="20" height="17" fill="none" viewBox="0 0 20 17">
    <path stroke="#1E1E1E" stroke-linecap="round" stroke-linejoin="round" d="M19.39 1.008c-.8.565-1.686.997-2.624 1.28-.503-.58-1.173-.99-1.917-1.176-.744-.186-1.527-.14-2.244.134-.717.274-1.332.76-1.763 1.396-.431.634-.657 1.386-.647 2.153v.836c-1.469.038-2.924-.288-4.237-.948-1.313-.66-2.442-1.636-3.286-2.839 0 0-3.344 7.524 4.18 10.868C5.13 13.88 3.079 14.466 1 14.384c7.524 4.18 16.719 0 16.719-9.614 0-.233-.023-.465-.067-.694.853-.841 1.455-1.903 1.739-3.068z"/>
</svg>
