<svg xmlns="http://www.w3.org/2000/svg" width="17" height="17" fill="none" viewBox="0 0 17 17">
    <path stroke="#1E1E1E" stroke-linecap="round" stroke-linejoin="round" d="M12.248 1H4.749C2.68 1 1 2.679 1 4.75v7.5C1 14.321 2.679 16 4.75 16h7.498c2.07 0 3.749-1.679 3.749-3.75v-7.5c0-2.071-1.679-3.75-3.75-3.75z"/>
    <path stroke="#1E1E1E" stroke-linecap="round" stroke-linejoin="round" d="M11.498 8.027c.093.625-.014 1.262-.304 1.822-.291.56-.75 1.014-1.314 1.298-.564.284-1.203.383-1.825.282-.623-.1-1.199-.394-1.645-.84-.446-.446-.74-1.022-.84-1.645-.1-.623-.002-1.262.282-1.825.284-.564.738-1.024 1.298-1.314.56-.291 1.197-.398 1.821-.305.637.094 1.226.391 1.681.846.455.455.752 1.045.846 1.681z"/>
    <path stroke="#1E1E1E" stroke-linecap="round" stroke-linejoin="round" stroke-width="2" d="M12.623 4.375h.009"/>
</svg>
