<svg xmlns="http://www.w3.org/2000/svg" width="165" height="140" fill="none" viewBox="0 0 165 140">
    <path fill="#E6E7E8" d="M115.727 64.22c8.336 0 15.094-6.765 15.094-15.11 0-8.344-6.758-15.108-15.094-15.108-8.336 0-15.094 6.764-15.094 15.108 0 8.345 6.758 15.11 15.094 15.11z"/>
    <path fill="#fff" d="M127.992 50.526c0 7.56-6.122 13.693-13.679 13.693-7.553 0-13.675-6.128-13.675-13.693 0-7.56 6.122-13.693 13.675-13.693 7.557.006 13.679 6.134 13.679 13.693z"/>
    <path fill="#939598" d="M128.702 89.588c.527 1.892-.585 3.877-2.479 4.405l-1.796.506c-1.889.528-3.872-.585-4.399-2.476L95.956 6.04c-.527-1.89.585-3.876 2.474-4.409l1.796-.501c1.889-.533 3.872.585 4.4 2.476l24.076 85.981zM50.053 83.842c.637 2.272-.7 4.655-2.97 5.292l-24.791 6.948c-2.27.638-4.65-.705-5.282-2.977L7.6 59.49c-.638-2.272.699-4.65 2.969-5.287l24.791-6.953c2.27-.638 4.646.7 5.282 2.972l9.41 33.619z"/>
    <path fill="#FC7269" d="M7.834 60.338c-6.002 3.4-9.207 10.568-7.265 17.49l1.112 3.96c1.936 6.923 8.392 11.384 15.287 11.17l-9.134-32.62z"/>
    <path fill="#F1F2F2" d="M40.642 50.228l9.552 34.115c33.528-6.677 60.402 2.205 69.312 5.804L96.504 7.99C90.66 16.145 72.36 38.463 40.642 50.228z"/>
    <path fill="#E6E7E8" d="M113.06 67.124c-26.222-9.623-60.189-.042-67.1 2.1l4.234 15.12c33.528-6.678 60.402 2.204 69.312 5.803l-6.446-23.023z"/>
    <path fill="#fff" d="M96.504 7.99c-5.845 8.155-24.139 30.473-55.862 42.244l.595 2.12c8.685-3.343 38.837-14.935 57.381-36.82L96.504 7.99z"/>
    <path fill="#91261C" d="M11.848 78.706c-2.02.496-6.665 1.306-11.107-.256l.934 3.344c1.937 6.922 8.393 11.383 15.288 11.17l-4.071-14.545c0-.005-.381.125-1.044.287z" opacity=".41"/>
    <path fill="#FC7269" d="M20.997 96.448c.058.141.089.293.178.423l4.034 5.94c.652.962 1.963 1.218 2.933.585l8.142 30.928.313 1.118.559 1.996c.318 1.134 1.508 1.802 2.641 1.489l14.238-3.997c1.133-.318 1.8-1.509 1.488-2.643l-.877-3.114c-.313-1.134-1.56-1.787-2.641-1.489 0 0-3.205-8.296-4.26-12.063-1.325-4.738-4.848-17.308-6.006-21.456l3.867-2.628c.746-.507 1.065-1.405.882-2.236l-25.49 7.147z"/>
    <path fill="#91261C" d="M34.552 92.645l-13.555 3.803c.058.141.089.293.178.423l4.034 5.94c.652.962 1.963 1.218 2.933.585l8.142 30.928.313 1.118.559 1.996c.318 1.134 1.508 1.802 2.641 1.489l7.197-2.017-12.442-44.265z" opacity=".41"/>
    <path fill="#939598" d="M41.733 94.165l4.959 7.309-2.354 1.933-2.605-9.242z"/>
    <path fill="#333" d="M12.892 78.414l4.112 14.696c.637 2.272 3.017 3.61 5.282 2.978l24.792-6.954c2.27-.637 3.606-3.02 2.97-5.292l-4.113-14.69-33.043 9.262zM108.697 51.545l11.331 40.478c.532 1.891 2.51 3.004 4.399 2.476l1.796-.506c1.889-.528 3.006-2.513 2.479-4.404L117.371 49.11l-8.674 2.434z"/>
    <path fill="#fff" d="M141.204 2.992l-15.326 20.055 2.902 2.222 15.326-20.055-2.902-2.222zM156.458 22.417l-21.893 12.54 1.815 3.175 21.893-12.541-1.815-3.174zM163.742 45.443l-25.179 1.507.218 3.65 25.179-1.507-.218-3.65zM139.158 61.612l-.632 3.601 24.843 4.369.632-3.602-24.843-4.368z"/>
</svg>
