<?xml version="1.0" standalone="no"?>
<!DOCTYPE svg PUBLIC "-//W3C//DTD SVG 20010904//EN"
 "http://www.w3.org/TR/2001/REC-SVG-20010904/DTD/svg10.dtd">
<svg version="1.0" xmlns="http://www.w3.org/2000/svg"
 width="353.000000pt" height="353.000000pt" viewBox="0 0 353.000000 353.000000"
 preserveAspectRatio="xMidYMid meet">
<metadata>
Created by potrace 1.11, written by Peter Selinger 2001-2013
</metadata>
<g transform="translate(0.000000,353.000000) scale(0.100000,-0.100000)"
fill="#000000" stroke="none">
<path d="M1525 3514 c-49 -7 -119 -21 -155 -30 -36 -9 -74 -18 -85 -20 -94
-19 -354 -136 -468 -211 -263 -172 -471 -398 -610 -663 -51 -96 -114 -243
-122 -280 -2 -8 -10 -40 -19 -71 -9 -31 -19 -67 -21 -80 -3 -13 -9 -44 -14
-69 -20 -90 -23 -118 -26 -295 -3 -192 11 -318 54 -485 74 -283 236 -564 450
-779 111 -113 135 -133 241 -209 98 -71 248 -151 375 -202 84 -33 274 -85 350
-96 28 -3 59 -9 70 -11 11 -3 94 -6 185 -8 202 -4 285 5 467 50 375 91 711
313 975 643 20 25 118 172 118 177 0 2 15 29 33 62 77 136 149 345 183 529 24
134 27 440 4 569 -68 383 -220 689 -474 954 -218 226 -466 374 -811 481 -16 5
-66 16 -110 24 -44 9 -93 18 -110 22 -62 12 -390 11 -480 -2z"/>
</g>
</svg>
