<?xml version="1.0" standalone="no"?>
<!DOCTYPE svg PUBLIC "-//W3C//DTD SVG 1.1//EN" "http://www.w3.org/Graphics/SVG/1.1/DTD/svg11.dtd" >
<svg xmlns="http://www.w3.org/2000/svg" xmlns:xlink="http://www.w3.org/1999/xlink" version="1.1">
<metadata>
Created by FontForge 20170731 at Tue Feb 11 14:24:11 2020
 By Aleksey,,,
Copyright (c) 2014 by Richard Miller. All rights reserved.
</metadata>
<defs>
<font id="Uniform" horiz-adv-x="605" >
  <font-face 
    font-family="Uniform"
    font-weight="400"
    font-stretch="normal"
    units-per-em="1000"
    panose-1="2 0 0 0 0 0 0 0 0 0"
    ascent="750"
    descent="-250"
    x-height="509"
    cap-height="700"
    bbox="-190 -212 1192 950"
    underline-thickness="50"
    underline-position="-150"
    unicode-range="U+000D-FB02"
  />
<missing-glyph horiz-adv-x="691" 
d="M20 700h651v-700h-651v700zM540 508l-36 36l-159 -158l-158 159l-36 -36l158 -159l-159 -159l36 -36l159 159l159 -159l36 36l-159 159z" />
    <glyph glyph-name="ellipsis" unicode="&#x2e;&#x2e;&#x2e;" horiz-adv-x="721" 
d="M103 98q23 0 38.5 -16t15.5 -38q0 -23 -15.5 -38.5t-38.5 -15.5q-22 0 -37.5 15.5t-15.5 38.5q0 22 15.5 38t37.5 16zM360 98q23 0 38.5 -16t15.5 -38q0 -23 -15.5 -38.5t-38.5 -15.5q-22 0 -37.5 15.5t-15.5 38.5q0 22 15.5 38t37.5 16zM617 98q23 0 38.5 -16t15.5 -38
q0 -23 -15.5 -38.5t-38.5 -15.5q-22 0 -37.5 15.5t-15.5 38.5q0 22 15.5 38t37.5 16z" />
    <glyph glyph-name="ff" unicode="ff" horiz-adv-x="760" 
d="M545 480h195v-61h-195v-419h-75v520q0 95 46 142.5t127 47.5q28 0 48 -3t33 -7q16 -4 26 -10l-11 -59q-9 4 -22 8q-12 3 -27 5t-35 2q-51 0 -80.5 -31t-29.5 -96v-39zM200 480h195v-61h-195v-419h-75v419h-105v61h105v53q0 87 46 132t124 45q28 0 48.5 -3t34.5 -7
q16 -4 27 -10l-11 -59q-10 4 -23 8q-11 3 -26.5 5t-35.5 2q-51 0 -80 -29t-29 -88v-49z" />
    <glyph glyph-name="ft" unicode="ft" horiz-adv-x="775" 
d="M545 509h200v-61h-200v-284q0 -54 25.5 -79.5t68.5 -25.5q19 0 36 2.5t30 5.5q16 3 29 7l11 -63q-13 -6 -31 -10q-16 -5 -37.5 -8t-50.5 -3q-72 0 -114 40.5t-42 120.5v489h75v-131zM200 479h195v-60h-195v-419h-75v419h-105v60h105v54q0 87 46 132t124 45q28 0 48.5 -3
t34.5 -7q16 -4 27 -10l-11 -59q-10 4 -23 8q-11 3 -26.5 5t-35.5 2q-51 0 -80 -29t-29 -88v-50z" />
    <glyph glyph-name="rf" unicode="rf" horiz-adv-x="735" 
d="M520 479h195v-60h-195v-419h-75v520q0 95 46 142.5t127 47.5q28 0 48 -3t33 -7q16 -4 26 -10l-11 -59q-9 4 -22 8q-12 3 -27 5t-35 2q-51 0 -80.5 -31t-29.5 -96v-40zM80 510h66l6 -115q29 62 82 93.5t128 31.5l-2 -76h-13q-87 0 -139.5 -51t-52.5 -161v-232h-75v510z
" />
    <glyph glyph-name="rt" unicode="rt" horiz-adv-x="750" 
d="M520 509h200v-61h-200v-284q0 -54 25.5 -79.5t68.5 -25.5q19 0 36 2.5t30 5.5q16 3 29 7l11 -63q-13 -6 -31 -10q-16 -5 -37.5 -8t-50.5 -3q-72 0 -114 40.5t-42 120.5v489h75v-131zM155 0h-75v510h66l6 -115q29 62 82 93.5t128 31.5l-2 -76h-13q-88 0 -140 -53.5
t-52 -167.5v-223z" />
    <glyph glyph-name="rtf" unicode="rtf" horiz-adv-x="1085" 
d="M520 509h200v-61h-200v-284q0 -54 25.5 -79.5t68.5 -25.5q19 0 36 2.5t30 5.5q16 3 29 7l11 -63q-13 -6 -31 -10q-16 -5 -37.5 -8t-50.5 -3q-72 0 -114 40.5t-42 120.5v489h75v-131zM155 0h-75v510h66l6 -115q29 62 82 93.5t128 31.5l-2 -76h-13q-88 0 -140 -53.5
t-52 -167.5v-223zM870 479h195v-60h-195v-419h-75v520q0 95 46 142.5t127 47.5q28 0 48 -3t33 -7q16 -4 26 -10l-11 -59q-9 4 -22 8q-12 3 -27 5t-35 2q-51 0 -80.5 -31t-29.5 -96v-40z" />
    <glyph glyph-name="tf" unicode="tf" horiz-adv-x="765" 
d="M550 479h195v-60h-195v-419h-75v520q0 95 46 142.5t127 47.5q28 0 48 -3t33 -7q16 -4 26 -10l-11 -59q-9 4 -22 8q-12 3 -27 5t-35 2q-51 0 -80.5 -31t-29.5 -96v-40zM200 509h200v-60h-200v-285q0 -54 25.5 -79.5t68.5 -25.5q19 0 36 2.5t30 5.5q16 3 29 7l11 -63
q-13 -6 -31 -10q-16 -5 -37.5 -8t-50.5 -3q-72 0 -114 40.5t-42 120.5v298h-105v60h105v131h75v-131z" />
    <glyph glyph-name="tt" unicode="tt" horiz-adv-x="780" 
d="M550 509h200v-60h-200v-285q0 -54 25.5 -79.5t68.5 -25.5q19 0 36 2.5t30 5.5q16 3 29 7l11 -63q-13 -6 -31 -10q-16 -5 -37.5 -8t-50.5 -3q-72 0 -114 40.5t-42 120.5v489h75v-131zM200 509h200v-60h-200v-285q0 -54 25.5 -79.5t68.5 -25.5q19 0 36 2.5t30 5.5
q16 3 29 7l11 -63q-13 -6 -31 -10q-16 -5 -37.5 -8t-50.5 -3q-72 0 -114 40.5t-42 120.5v298h-105v60h105v131h75v-131z" />
    <glyph glyph-name=".notdef" horiz-adv-x="691" 
d="M20 700h651v-700h-651v700zM540 508l-36 36l-159 -158l-158 159l-36 -36l158 -159l-159 -159l36 -36l159 159l159 -159l36 36l-159 159z" />
    <glyph glyph-name=".null" horiz-adv-x="0" 
 />
    <glyph glyph-name=".null" horiz-adv-x="0" 
 />
    <glyph glyph-name="nonmarkingreturn" unicode="&#xd;" horiz-adv-x="250" 
 />
    <glyph glyph-name="space" unicode=" " horiz-adv-x="247" 
 />
    <glyph glyph-name="exclam" unicode="!" horiz-adv-x="287" 
d="M97 700h93l-19 -487h-55zM143 98q23 0 38.5 -16t15.5 -38q0 -23 -15.5 -38.5t-38.5 -15.5q-22 0 -37.5 15.5t-15.5 38.5q0 22 15.5 38t37.5 16z" />
    <glyph glyph-name="quotedbl" unicode="&#x22;" horiz-adv-x="307" 
d="M50 460v240h61v-240h-61zM196 460v240h61v-240h-61z" />
    <glyph glyph-name="numbersign" unicode="#" 
d="M211 217h150l33 166h-150zM351 168h-150l-33 -168h-55l33 168h-106v49h116l33 166h-109v49h119l34 168h55l-34 -168h150l34 168h55l-34 -168h106v-49h-116l-33 -166h109v-49h-119l-33 -168h-55z" />
    <glyph glyph-name="dollar" unicode="$" horiz-adv-x="540" 
d="M307 800v-93q48 -5 81.5 -22t55.5 -36q25 -23 41 -50l-56 -39q-14 23 -36 42q-19 16 -46.5 28.5t-65.5 12.5q-62 0 -95 -30.5t-33 -71.5q0 -48 36 -82t109 -66q85 -36 136 -87t51 -127q0 -38 -13 -70t-37 -56t-56.5 -39.5t-71.5 -20.5v-93h-52v92q-57 3 -96.5 23.5
t-65.5 43.5q-29 27 -48 61l57 39q17 -29 43 -51q23 -22 54.5 -37t76.5 -15q60 0 96.5 32.5t36.5 82.5q0 53 -37 91t-123 75q-78 34 -125 83t-47 115q0 35 13.5 65t37 52.5t56 37t71.5 17.5v93h52z" />
    <glyph glyph-name="percent" unicode="%" horiz-adv-x="770" 
d="M106 465q0 -41 26 -67.5t65 -26.5t64.5 26.5t25.5 67.5t-25.5 67t-64.5 26t-65 -26t-26 -67zM50 464q0 32 11.5 58.5t31 46t46.5 30.5t58 11q32 0 58.5 -11t46.5 -30t31 -45.5t11 -58.5q0 -31 -11.5 -58t-31 -46.5t-46.5 -30.5t-58 -11t-58 11t-47 30.5t-31 46t-11 57.5z
M562 600h60l-414 -600h-60zM426 136q0 32 11.5 58.5t31 46t46.5 30.5t58 11q32 0 58.5 -11t46.5 -30.5t31 -46t11 -58.5q0 -31 -11.5 -58t-31 -46.5t-46.5 -30.5t-58 -11t-58 11t-47 30.5t-31 46.5t-11 58zM482 136q0 -41 26 -67t65 -26t64.5 26t25.5 67t-25.5 67t-64.5 26
t-65 -26t-26 -67z" />
    <glyph glyph-name="ampersand" unicode="&#x26;" horiz-adv-x="710" 
d="M695 400l-175 -226l175 -174h-89l-125 123q-51 -66 -105.5 -99.5t-125.5 -33.5q-43 0 -80.5 15t-65.5 40.5t-43.5 61t-15.5 75.5q0 72 41.5 122.5t121.5 88.5q-40 42 -64 82t-24 83q0 32 13 60t37 48.5t56.5 32t71.5 11.5t71.5 -12t55 -33t35 -49t12.5 -60
q0 -61 -43.5 -106t-109.5 -74l156 -156l140 180h80zM256 55q51 0 90.5 25t76.5 73l12 15l-182 180q-65 -29 -100.5 -67t-35.5 -93q0 -27 10.5 -51.5t29 -42.5t44 -28.5t55.5 -10.5zM191 557q0 -36 20.5 -66t63.5 -72q69 28 99.5 58.5t30.5 74.5q0 41 -29.5 69.5t-77.5 28.5
t-77.5 -26.5t-29.5 -66.5z" />
    <glyph glyph-name="quotesingle" unicode="'" horiz-adv-x="161" 
d="M50 460v240h61v-240h-61z" />
    <glyph glyph-name="parenleft" unicode="(" horiz-adv-x="426" 
d="M360 -100q-83 37 -147 98q-40 35 -62.5 66.5t-41.5 74t-31.5 95t-12.5 115.5t12.5 115.5t33.5 96t47.5 78.5t54.5 61q64 62 147 100l31 -54q-71 -36 -126 -92q-34 -31 -53.5 -59.5t-36 -65t-27 -81.5t-10.5 -98t11 -98t28.5 -83t40.5 -68.5t47 -54.5q55 -56 126 -92z" />
    <glyph glyph-name="parenright" unicode=")" horiz-adv-x="426" 
d="M66 800q83 -37 148 -98q39 -35 61.5 -66.5t41.5 -74t31.5 -95t12.5 -115.5t-12.5 -115.5t-33.5 -96t-47.5 -78.5t-53.5 -61q-65 -62 -148 -100l-31 54q71 36 127 92q33 31 52.5 59.5t36 65t27 81.5t10.5 98t-11 98t-28.5 83t-40.5 68.5t-46 54.5q-56 56 -127 92z" />
    <glyph glyph-name="asterisk" unicode="*" horiz-adv-x="494" 
d="M270 537l155 57l19 -60l-158 -44l102 -128l-50 -37l-91 136l-90 -136l-51 37l101 128l-157 44l19 60l154 -57l-8 163h64z" />
    <glyph glyph-name="plus" unicode="+" 
d="M333 387h222v-61h-222v-229h-62v229h-221v61h221v229h62v-229z" />
    <glyph glyph-name="comma" unicode="," horiz-adv-x="187" 
d="M40 -130l26 240h81l-46 -240h-61z" />
    <glyph glyph-name="hyphen" unicode="-" horiz-adv-x="420" 
d="M50 324v66h320v-66h-320z" />
    <glyph glyph-name="period" unicode="." horiz-adv-x="207" 
d="M103 98q23 0 38.5 -16t15.5 -38q0 -23 -15.5 -38.5t-38.5 -15.5q-22 0 -37.5 15.5t-15.5 38.5q0 22 15.5 38t37.5 16z" />
    <glyph glyph-name="slash" unicode="/" horiz-adv-x="477" 
d="M410 780h67l-410 -860h-67z" />
    <glyph glyph-name="zero" unicode="0" 
d="M147 220q0 -75 42.5 -118t112.5 -43t112.5 43t42.5 118v260q0 75 -42.5 118t-112.5 43t-112.5 -43t-42.5 -118v-260zM72 471q0 57 17.5 101t48 75t73 47t93.5 16q50 0 92 -15.5t72 -45.5t47 -74t17 -101v-245q0 -57 -17 -101t-48 -75t-73.5 -47t-92.5 -16q-51 0 -93 15.5
t-72 45.5t-47 74t-17 101v245z" />
    <glyph glyph-name="one" unicode="1" horiz-adv-x="450" 
d="M270 700h60v-700h-75v607l-191 -131l-39 51z" />
    <glyph glyph-name="two" unicode="2" horiz-adv-x="559" 
d="M326 330q52 53 72.5 93t20.5 83q0 29 -11 54t-30.5 43t-45.5 28.5t-56 10.5q-45 0 -75.5 -16.5t-50.5 -35.5q-23 -24 -38 -53l-57 33q18 39 49 70q28 28 71 49t107 21q45 0 84 -15t67.5 -41.5t44.5 -62.5t16 -78q0 -31 -7 -59t-22 -55t-37.5 -54.5t-52.5 -59.5l-212 -220
h326v-65h-430v54z" />
    <glyph glyph-name="three" unicode="3" horiz-adv-x="548" 
d="M245 395q69 0 108.5 35.5t39.5 89.5t-39.5 88.5t-105.5 34.5q-38 0 -64.5 -11t-42.5 -24q-19 -15 -30 -35l-56 31q17 30 45 53q24 22 61 37.5t91 15.5q47 0 86.5 -13.5t68.5 -37.5t45 -57.5t16 -73.5q0 -56 -32.5 -98.5t-86.5 -62.5q63 -22 101 -68.5t38 -108.5
q0 -43 -18.5 -80t-50.5 -63.5t-76.5 -41.5t-95.5 -15q-59 0 -100 17.5t-67 38.5q-31 25 -50 56l56 36q15 -23 38 -41q21 -17 50.5 -29t72.5 -12q37 0 67.5 10.5t52.5 29.5t34 44t12 54t-12 55t-34.5 45t-53.5 30t-70 11h-68v60h70z" />
    <glyph glyph-name="four" unicode="4" 
d="M385 246v358l-272 -358h272zM383 700h74v-454h100v-61h-100v-185h-72v185h-338v62z" />
    <glyph glyph-name="five" unicode="5" horiz-adv-x="581" 
d="M86 700h400v-65h-332v-233q20 19 53.5 36t86.5 17q50 0 91.5 -17.5t71.5 -47.5t47 -71t17 -88q0 -51 -18.5 -95.5t-51.5 -76.5t-78.5 -50.5t-98.5 -18.5q-54 0 -94 16t-67 36q-31 23 -53 52l56 41q16 -21 40 -38q21 -16 49.5 -27t68.5 -11q38 0 69.5 13t54 35.5
t35.5 53.5t13 68q0 34 -12.5 63t-34 50.5t-52 33.5t-66.5 12t-61 -10.5t-41 -23t-23.5 -23.5l-7.5 -11h-62v380z" />
    <glyph glyph-name="six" unicode="6" 
d="M303 59q36 0 66.5 12.5t53 35t35 53t12.5 66.5t-12.5 66.5t-35 53t-53 35t-66.5 12.5t-67 -12.5t-53.5 -35t-35 -53t-12.5 -66.5t12.5 -66.5t35 -53t53.5 -35t67 -12.5zM325 700h87l-193 -273q16 11 40 19.5t59 8.5q47 0 88.5 -17t72 -47.5t48.5 -72t18 -89.5
q0 -51 -19 -95t-52 -76t-77.5 -50t-95.5 -18t-95 17.5t-76.5 49t-51 74.5t-18.5 94q0 48 15 90t41 80z" />
    <glyph glyph-name="seven" unicode="7" horiz-adv-x="530" 
d="M406 634h-366v66h450v-50l-312 -650h-81z" />
    <glyph glyph-name="eight" unicode="8" 
d="M303 400q30 0 55.5 9.5t44.5 26t29.5 39t10.5 48.5t-10.5 48t-29.5 38.5t-44.5 26t-55.5 9.5t-56 -9.5t-44.5 -26t-29 -38.5t-10.5 -48t10.5 -48.5t29 -39t44.5 -26t56 -9.5zM304 710q46 0 84.5 -13.5t67 -38t44.5 -58t16 -72.5q0 -51 -28 -91t-76 -63q60 -22 96.5 -68
t36.5 -108q0 -45 -18.5 -83.5t-51.5 -66t-77.5 -43t-96.5 -15.5t-96 15t-76 42t-50.5 65t-18.5 83q0 61 36.5 107.5t96.5 69.5q-48 22 -76 62t-28 91q0 39 16.5 73t45.5 59t68 39t85 14zM303 55q36 0 66.5 10.5t53 29.5t35 45.5t12.5 58.5t-12.5 58.5t-35 45.5t-53 30
t-66.5 11t-66.5 -11t-53 -30t-35.5 -45.5t-13 -58.5t13 -58.5t35.5 -45.5t53 -29.5t66.5 -10.5z" />
    <glyph glyph-name="nine" unicode="9" 
d="M302 641q-36 0 -66.5 -12.5t-53 -35t-35 -53t-12.5 -66.5t12.5 -66.5t35 -53t53 -35t66.5 -12.5t67 12.5t53.5 35t35 53t12.5 66.5t-12.5 66.5t-35 53t-53.5 35t-67 12.5zM280 0h-87l193 273q-16 -11 -40 -19.5t-59 -8.5q-47 0 -88.5 17t-72 47.5t-48.5 72t-18 89.5
q0 51 19 95t52 76t77.5 50t95.5 18t95 -17.5t76.5 -49t51 -74.5t18.5 -94q0 -48 -15 -90t-41 -80z" />
    <glyph glyph-name="colon" unicode=":" horiz-adv-x="207" 
d="M103 98q23 0 38.5 -16t15.5 -38q0 -23 -15.5 -38.5t-38.5 -15.5q-22 0 -37.5 15.5t-15.5 38.5q0 22 15.5 38t37.5 16zM103 519q23 0 38.5 -16t15.5 -38q0 -23 -15.5 -38.5t-38.5 -15.5q-22 0 -37.5 15.5t-15.5 38.5q0 22 15.5 38t37.5 16z" />
    <glyph glyph-name="semicolon" unicode=";" horiz-adv-x="207" 
d="M40 -130l26 240h81l-46 -240h-61zM103 519q23 0 38.5 -16t15.5 -38q0 -23 -15.5 -38.5t-38.5 -15.5q-22 0 -37.5 15.5t-15.5 38.5q0 22 15.5 38t37.5 16z" />
    <glyph glyph-name="less" unicode="&#x3c;" 
d="M126 356l429 -181v-73l-505 223v60l505 222v-69z" />
    <glyph glyph-name="equal" unicode="=" 
d="M50 415v61h505v-61h-505zM50 214v61h505v-61h-505z" />
    <glyph glyph-name="greater" unicode="&#x3e;" 
d="M479 354l-429 181v73l505 -223v-60l-505 -222v69z" />
    <glyph glyph-name="question" unicode="?" horiz-adv-x="543" 
d="M263 98q23 0 38.5 -16t15.5 -38q0 -23 -15.5 -38.5t-38.5 -15.5q-22 0 -37.5 15.5t-15.5 38.5q0 22 15.5 38t37.5 16zM397 511q0 29 -10 52.5t-27.5 40t-41.5 26t-51 9.5q-41 0 -68.5 -15.5t-45.5 -34.5q-20 -22 -33 -50l-60 31q16 39 44 70q26 28 66 49t102 21
q44 0 81 -14.5t63.5 -40t41.5 -60t15 -73.5q0 -41 -12.5 -71.5t-31 -55t-41 -45t-42 -41t-33 -43.5t-15.5 -53h-70q0 36 12.5 63.5t31.5 50t40.5 42t40.5 41t31.5 45.5t12.5 56z" />
    <glyph glyph-name="at" unicode="@" horiz-adv-x="990" 
d="M594 -132q-18 -4 -43.5 -8.5t-56.5 -4.5q-92 0 -172 32.5t-139.5 89.5t-93.5 133t-34 163q0 91 34.5 170.5t94 139t139.5 93.5t172 34t172.5 -34t140 -93t93.5 -138.5t34 -170.5q0 -66 -18 -120t-47.5 -92.5t-67 -60t-77.5 -21.5q-33 0 -56.5 12t-38.5 33.5t-20 50.5
t-1 62v4q-29 -33 -70 -50t-89 -17q-46 0 -83.5 18t-63.5 48.5t-37.5 71t-5.5 85.5t25.5 81t49 61.5t66.5 39t78 13.5q58 0 99 -24.5t64 -65.5l19 82h50l6 -7l-49 -348q-6 -45 12 -69.5t53 -24.5q25 0 50.5 17t46 48t33.5 74.5t13 95.5q0 81 -29.5 151t-81 121.5t-121 80.5
t-149.5 29t-149.5 -29.5t-121 -81t-81 -121t-29.5 -148.5q0 -74 29.5 -140t81 -115.5t121 -78t149.5 -28.5q26 0 48 2.5t39 6.5zM484 431q-60 0 -103.5 -37t-52.5 -98q-5 -33 3 -62t26 -51t45.5 -34.5t60.5 -12.5q30 0 57 9.5t48.5 27t36.5 42.5t19 55q5 33 -4 62.5t-28 51
t-47 34.5t-61 13z" />
    <glyph glyph-name="A" unicode="A" horiz-adv-x="700" 
d="M200 265h295l-147 347zM690 0h-85l-86 202h-342l-86 -202h-81l301 700h78z" />
    <glyph glyph-name="B" unicode="B" horiz-adv-x="690" 
d="M373 394q32 0 58 9.5t44.5 26t28.5 38.5t10 47q0 26 -10 48t-28.5 38.5t-44.5 26t-58 9.5h-195v-243h195zM385 700q47 0 85 -13.5t65 -36.5t41.5 -55t14.5 -68q0 -54 -29 -95.5t-80 -62.5q66 -17 104.5 -65t38.5 -113q0 -40 -16 -74.5t-45.5 -60.5t-71 -41t-91.5 -15
h-301v700h285zM178 62h214q35 0 64 10.5t49.5 29.5t31.5 44t11 53q0 29 -11 53.5t-31.5 43.5t-49.5 29.5t-64 10.5h-214v-274z" />
    <glyph glyph-name="C" unicode="C" horiz-adv-x="718" 
d="M55 348q0 76 28 142t77.5 115t116 77t142.5 28q63 0 111 -16.5t81 -36.5q38 -23 66 -53l-55 -49q-23 23 -53 42q-28 16 -65 28.5t-86 12.5q-61 0 -113 -22t-90 -61t-60 -91.5t-22 -113.5t22 -114t60 -92t90 -61t113 -22q52 0 91.5 14.5t66.5 32.5q32 20 55 46l52 -48
q-28 -32 -67 -58q-36 -24 -85 -41t-115 -17q-76 0 -142 27.5t-115 75.5t-76.5 113.5t-27.5 141.5z" />
    <glyph glyph-name="D" unicode="D" horiz-adv-x="760" 
d="M178 67h150q65 0 120 21.5t95 60t62.5 90t22.5 111.5t-22.5 111.5t-62.5 89.5t-95 59.5t-120 21.5h-150v-565zM324 700q84 0 154 -26.5t120.5 -73.5t78.5 -110.5t28 -138.5t-28.5 -139t-79.5 -111t-121.5 -74t-154.5 -27h-221v700h224z" />
    <glyph glyph-name="E" unicode="E" horiz-adv-x="650" 
d="M100 0v700h485v-68h-407v-235h357v-64h-357v-266h417v-67h-495z" />
    <glyph glyph-name="F" unicode="F" horiz-adv-x="610" 
d="M178 297v-297h-78v700h475v-68h-397v-268h347v-67h-347z" />
    <glyph glyph-name="G" unicode="G" horiz-adv-x="814" 
d="M758 350q0 -1 1 -3v-10q-1 -74 -28 -137.5t-73 -110t-108.5 -73t-133.5 -26.5q-76 0 -142 27.5t-115 76t-76.5 114t-27.5 141.5t28 142t77.5 114.5t116 76.5t142.5 28q64 0 111.5 -16t79.5 -35q38 -22 65 -51l-53 -54q-22 24 -52 43q-28 17 -65 29.5t-87 12.5
q-61 0 -113 -22t-90 -61t-60 -91.5t-22 -114.5q0 -61 22 -114t60 -92t90 -61t113 -22q50 0 94 16.5t78.5 46.5t57.5 72.5t30 93.5h-262v60h342z" />
    <glyph glyph-name="H" unicode="H" horiz-adv-x="770" 
d="M593 335h-415v-335h-78v700h78v-296h415v296h77v-700h-77v335z" />
    <glyph glyph-name="I" unicode="I" horiz-adv-x="290" 
d="M105 700h80v-700h-80v700z" />
    <glyph glyph-name="J" unicode="J" horiz-adv-x="464" 
d="M294 700h80v-462q0 -58 -18.5 -104.5t-50.5 -78t-74.5 -48.5t-91.5 -17q-31 0 -53.5 4t-37.5 9q-17 6 -28 13l24 67q9 -6 23 -10q12 -4 28.5 -7t39.5 -3q33 0 62 11.5t50.5 33.5t34 55.5t12.5 76.5v460z" />
    <glyph glyph-name="K" unicode="K" horiz-adv-x="668" 
d="M178 350v-350h-78v700h78v-330l365 330h105l-384 -337l404 -363h-105z" />
    <glyph glyph-name="L" unicode="L" horiz-adv-x="590" 
d="M100 0v700h78v-631h387v-69h-465z" />
    <glyph glyph-name="M" unicode="M" horiz-adv-x="890" 
d="M176 562v-562h-76v700h80l267 -486l267 486h76v-700h-76v562l-248 -447h-42z" />
    <glyph glyph-name="N" unicode="N" horiz-adv-x="790" 
d="M176 587v-587h-76v700h83l431 -579v579h76v-700h-76z" />
    <glyph glyph-name="O" unicode="O" horiz-adv-x="835" 
d="M418 61q60 0 112.5 22t90.5 61t60 92t22 114t-22 113.5t-60 91.5t-90.5 61t-112.5 22q-61 0 -113 -22t-90 -61t-60 -91.5t-22 -113.5t22 -114t60 -92t90 -61t113 -22zM419 710q77 0 142.5 -27.5t114.5 -76t76.5 -114t27.5 -141.5t-28 -141.5t-77.5 -114.5t-115.5 -77
t-143 -28q-76 0 -142 27.5t-115 75.5t-76.5 113.5t-27.5 141.5t28 142t77.5 115t116 77t142.5 28z" />
    <glyph glyph-name="P" unicode="P" horiz-adv-x="670" 
d="M178 634v-312h197q39 0 71 12t54.5 33t35 49.5t12.5 61.5t-12.5 61.5t-35 49.5t-54.5 33t-71 12h-197zM100 700h283q54 0 99 -16.5t76.5 -46t49 -70t17.5 -87.5q0 -48 -18 -88.5t-50 -70.5t-77.5 -47t-99.5 -17h-202v-257h-78v700z" />
    <glyph glyph-name="Q" unicode="Q" horiz-adv-x="835" 
d="M418 61q60 0 112.5 22t90.5 61t60 92t22 114t-22 113.5t-60 91.5t-90.5 61t-112.5 22q-61 0 -113 -22t-90 -61t-60 -91.5t-22 -113.5t22 -114t60 -92t90 -61t113 -22zM419 710q77 0 142.5 -27.5t114.5 -76t76.5 -114t27.5 -141.5q0 -55 -15 -104.5t-42 -91.5t-65 -75
t-84 -54l124 -146h-93l-100 121q-22 -5 -44 -8t-45 -3q-76 0 -142 27.5t-115 75.5t-76.5 113.5t-27.5 141.5t28 142t77.5 115t116 77t142.5 28z" />
    <glyph glyph-name="R" unicode="R" horiz-adv-x="695" 
d="M178 634v-298h203q38 0 69 11.5t53 31.5t33.5 47t11.5 59t-11.5 59t-33.5 47t-53 31.5t-69 11.5h-203zM100 700h292q52 0 95 -16t73.5 -44.5t47.5 -67t17 -84.5q0 -39 -12.5 -72.5t-35 -60.5t-55 -46t-71.5 -27l204 -282h-92l-197 274h-188v-274h-78v700z" />
    <glyph glyph-name="S" unicode="S" horiz-adv-x="570" 
d="M302 398q98 -31 155.5 -82t57.5 -131q0 -41 -16 -76.5t-46 -62t-73 -41.5t-98 -15q-62 0 -108 15t-77 33q-36 20 -62 47l49 52q22 -23 53 -40q28 -17 65.5 -29t87.5 -12q67 0 106.5 34.5t39.5 85.5q0 27 -9 49t-31 41.5t-57 37t-88 35.5q-84 28 -133.5 74.5t-49.5 115.5
q0 38 15.5 71t44.5 57.5t70.5 38.5t92.5 14q54 0 94.5 -12.5t68.5 -27.5q31 -18 54 -40l-49 -52q-18 18 -43 33q-23 13 -53 23t-70 10q-37 0 -65 -9.5t-46 -25t-27 -35t-9 -38.5q0 -46 35.5 -78.5t120.5 -59.5z" />
    <glyph glyph-name="T" unicode="T" horiz-adv-x="590" 
d="M334 632v-632h-78v632h-231v68h540v-68h-231z" />
    <glyph glyph-name="U" unicode="U" horiz-adv-x="740" 
d="M650 700v-416q0 -65 -21 -119t-58.5 -93t-89 -60.5t-112.5 -21.5t-112.5 21t-88.5 59.5t-57.5 92t-20.5 118.5v419h79v-419q0 -49 15 -89.5t42 -69.5t64.5 -45t81.5 -16t81 16t64 45t42 69.5t15 89.5v419h76z" />
    <glyph glyph-name="V" unicode="V" horiz-adv-x="690" 
d="M10 700h86l251 -604l251 604h82l-296 -700h-77z" />
    <glyph glyph-name="W" unicode="W" horiz-adv-x="985" 
d="M10 700h85l194 -583l178 583h56l177 -583l195 583h80l-238 -700h-70l-175 559l-173 -559h-70z" />
    <glyph glyph-name="X" unicode="X" horiz-adv-x="675" 
d="M335 302l-233 -302h-92l281 358l-267 342h96l219 -284l221 284h91l-268 -341l282 -359h-96z" />
    <glyph glyph-name="Y" unicode="Y" horiz-adv-x="670" 
d="M297 280l-287 420h92l235 -349l236 349h87l-286 -420v-280h-77v280z" />
    <glyph glyph-name="Z" unicode="Z" horiz-adv-x="660" 
d="M60 0v54l435 580h-415v66h520v-54l-435 -580h435v-66h-540z" />
    <glyph glyph-name="bracketleft" unicode="[" horiz-adv-x="435" 
d="M100 -80v860h290v-64h-217v-732h217v-64h-290z" />
    <glyph glyph-name="backslash" unicode="\" horiz-adv-x="477" 
d="M477 -80h-67l-410 860h67z" />
    <glyph glyph-name="bracketright" unicode="]" horiz-adv-x="435" 
d="M45 -80v64h217v732h-217v64h290v-860h-290z" />
    <glyph glyph-name="asciicircum" unicode="^" horiz-adv-x="570" 
d="M284 628l-155 -308h-74l201 380h57l202 -380h-76z" />
    <glyph glyph-name="underscore" unicode="_" horiz-adv-x="600" 
d="M0 -104v54h600v-54h-600z" />
    <glyph glyph-name="grave" unicode="`" horiz-adv-x="370" 
d="M265 577h-61l-99 163h81z" />
    <glyph glyph-name="a" unicode="a" horiz-adv-x="570" 
d="M273 48q75 0 113.5 29.5t38.5 71.5t-38.5 71.5t-113.5 29.5q-69 0 -106 -29.5t-37 -71.5t37 -71.5t106 -29.5zM257 306q55 0 96 -15.5t67 -41.5v42q0 85 -42.5 125t-110.5 40q-36 0 -63 -8t-46 -17q-21 -12 -37 -26l-36 48q20 18 48 33q26 13 61 23t83 10
q103 0 160.5 -58.5t57.5 -169.5v-291h-58l-8 55q-27 -29 -71 -47t-103 -18q-47 0 -84.5 12t-63 33t-39 49.5t-13.5 61.5t14 62t40 50.5t63.5 34.5t84.5 13z" />
    <glyph glyph-name="b" unicode="b" horiz-adv-x="656" 
d="M343 59q41 0 76.5 15t61.5 41t40.5 62t14.5 78t-14.5 77.5t-40.5 61.5t-61.5 41t-76.5 15t-76.5 -15t-61.5 -41t-40.5 -61.5t-14.5 -77.5t14.5 -78t40.5 -62t61.5 -41t76.5 -15zM80 700h75v-291q32 51 84 80.5t118 29.5q53 0 99 -20t80.5 -55.5t54.5 -83.5t20 -104
t-20.5 -104.5t-55.5 -84.5t-81.5 -56.5t-99.5 -20.5q-66 0 -119 30t-85 81l-8 -101h-62v700z" />
    <glyph glyph-name="c" unicode="c" horiz-adv-x="548" 
d="M513 81q-21 -25 -50 -45q-27 -19 -63.5 -32.5t-87.5 -13.5q-57 0 -106 20t-84.5 55.5t-56 83.5t-20.5 104t21 104.5t57 84.5t85.5 56.5t106.5 20.5q48 0 84 -13t61 -28q28 -18 48 -41l-50 -50q-15 18 -36 32q-20 12 -46.5 21.5t-62.5 9.5q-41 0 -76.5 -15t-61.5 -41
t-40.5 -61.5t-14.5 -77.5t14.5 -78t40.5 -62t61.5 -41t76.5 -15q38 0 66 10.5t47 24.5q21 15 36 34z" />
    <glyph glyph-name="d" unicode="d" horiz-adv-x="656" 
d="M312 450q-41 0 -76 -15t-61 -41t-40.5 -61.5t-14.5 -77.5t14.5 -78t40.5 -62t61 -41t76 -15t76.5 15t61.5 41t41 62t15 78t-15 77.5t-41 61.5t-61.5 41t-76.5 15zM576 0h-62l-9 105q-32 -54 -86 -84.5t-121 -30.5q-52 0 -98.5 20t-80.5 55.5t-54 83.5t-20 104t20.5 104.5
t55 84.5t81.5 56.5t99 20.5q65 0 116.5 -28.5t83.5 -78.5v288h75v-700z" />
    <glyph glyph-name="e" unicode="e" horiz-adv-x="606" 
d="M120 250q0 -42 15 -77.5t41.5 -61.5t62 -40.5t77.5 -14.5q46 0 79.5 14.5t54.5 32.5q25 21 42 47l48 -39q-21 -34 -54 -60q-29 -25 -71 -43t-103 -18q-57 0 -106 20t-84.5 55.5t-56 83.5t-20.5 104t21 104.5t57 84.5t85 56.5t106 20.5q51 0 96 -19.5t78.5 -53.5t53 -79.5
t19.5 -97.5q0 -6 -1 -13q0 -3 -1 -6h-439zM313 460q-36 0 -68 -11.5t-57 -32.5t-41.5 -50t-22.5 -63h363q-5 33 -20.5 62t-39 50t-53 33t-61.5 12z" />
    <glyph glyph-name="f" unicode="f" horiz-adv-x="415" 
d="M200 479h195v-60h-195v-419h-75v419h-105v60h105v53q0 88 45.5 133t124.5 45q28 0 48.5 -3t34.5 -7q16 -4 27 -10l-11 -60q-10 4 -23 8q-12 3 -27.5 5.5t-35.5 2.5q-50 0 -79 -29t-29 -88v-50z" />
    <glyph glyph-name="g" unicode="g" horiz-adv-x="656" 
d="M312 454q-41 0 -76 -13.5t-61 -37.5t-40.5 -56.5t-14.5 -70.5t14.5 -70.5t40.5 -56.5t61 -37.5t76 -13.5t76.5 13.5t61.5 37.5t41 56.5t15 70.5t-15 70.5t-41 56.5t-61.5 37.5t-76.5 13.5zM87 -42q25 -18 56 -32q29 -12 65.5 -21.5t82.5 -9.5q103 0 156.5 55.5
t53.5 155.5v29q-31 -46 -83 -73t-118 -27q-54 0 -100.5 18.5t-81 51t-54 76.5t-19.5 95t20 95.5t54.5 77t81.5 51.5t102 19q66 0 118.5 -27t84.5 -75l8 92h62v-389q0 -66 -18.5 -119.5t-54.5 -91.5t-88.5 -58.5t-120.5 -20.5q-55 0 -99 11t-75 25q-36 16 -64 36z" />
    <glyph glyph-name="h" unicode="h" horiz-adv-x="610" 
d="M80 700h75v-287q29 54 77 80t108 26q40 0 76.5 -14t64 -43t43.5 -72.5t16 -102.5v-287h-75v263q0 50 -12 85.5t-32 58t-46.5 33t-55.5 10.5q-32 0 -62 -10.5t-52.5 -33.5t-36 -59t-13.5 -88v-259h-75v700z" />
    <glyph glyph-name="i" unicode="i" horiz-adv-x="247" 
d="M85 509h77v-509h-77v509zM123 709q23 0 38.5 -15t15.5 -38t-15.5 -38.5t-38.5 -15.5t-38 15.5t-15 38.5t15 38t38 15z" />
    <glyph glyph-name="j" unicode="j" horiz-adv-x="247" 
d="M162 509v-508q0 -85 -43 -128t-113 -43q-15 0 -27.5 2t-21.5 5q-11 3 -20 7l14 61q7 -3 15 -5q7 -1 15.5 -2.5t18.5 -1.5q85 0 85 97v516h77zM123 709q23 0 38.5 -15t15.5 -38t-15.5 -38.5t-38.5 -15.5t-38 15.5t-15 38.5t15 38t38 15z" />
    <glyph glyph-name="k" unicode="k" horiz-adv-x="552" 
d="M80 700h75v-419l274 228h103l-293 -233l313 -276h-103l-294 265v-265h-75v700z" />
    <glyph glyph-name="l" unicode="l" horiz-adv-x="247" 
d="M85 700h77v-700h-77v700z" />
    <glyph glyph-name="m" unicode="m" horiz-adv-x="975" 
d="M80 509h66l5 -96q29 54 77 80t107 26q60 0 108.5 -32t71.5 -99q26 67 78 99t117 32q39 0 74.5 -14t62.5 -42t42.5 -71t15.5 -101v-291h-75v267q0 49 -11.5 84t-31 57t-45 32t-53.5 10q-31 0 -60 -10t-51 -32.5t-35 -58t-13 -86.5v-263h-75v267q0 49 -11.5 84t-31 57
t-45 32t-53.5 10q-31 0 -60 -10t-51 -32.5t-35 -58t-13 -86.5v-263h-75v509z" />
    <glyph glyph-name="n" unicode="n" horiz-adv-x="610" 
d="M155 0h-75v509h66l6 -98q29 55 78.5 81.5t109.5 26.5q41 0 77 -14t63.5 -43t43.5 -72.5t16 -102.5v-287h-75v263q0 50 -12 85.5t-32 58t-46.5 33t-55.5 10.5q-33 0 -62.5 -11t-52 -35t-36 -62.5t-13.5 -93.5v-248z" />
    <glyph glyph-name="o" unicode="o" horiz-adv-x="627" 
d="M313 59q41 0 76.5 15t61.5 41t41 62t15 78t-15 77.5t-41 61.5t-61.5 41t-76.5 15t-76.5 -15t-61.5 -41t-40.5 -61.5t-14.5 -77.5t14.5 -78t40.5 -62t61.5 -41t76.5 -15zM315 519q57 0 106 -20t84.5 -55.5t56 -83.5t20.5 -104t-21 -104.5t-57 -84.5t-85.5 -56.5
t-106.5 -20.5t-106 20t-84.5 55.5t-56 83.5t-20.5 104t21 104.5t57 84.5t85.5 56.5t106.5 20.5z" />
    <glyph glyph-name="p" unicode="p" horiz-adv-x="656" 
d="M343 59q41 0 76.5 15t61.5 41t40.5 62t14.5 78t-14.5 77.5t-40.5 61.5t-61.5 41t-76.5 15t-76.5 -15t-61.5 -41t-40.5 -61.5t-14.5 -77.5t14.5 -78t40.5 -62t61.5 -41t76.5 -15zM80 509h62l9 -105q32 53 85.5 84t120.5 31q53 0 99 -20t80.5 -55.5t54.5 -83.5t20 -104
t-20.5 -104.5t-55.5 -84.5t-81.5 -56.5t-99.5 -20.5q-65 0 -116.5 28.5t-82.5 78.5v-257h-75v669z" />
    <glyph glyph-name="q" unicode="q" horiz-adv-x="656" 
d="M312 450q-41 0 -76 -15t-61 -41t-40.5 -61.5t-14.5 -77.5t14.5 -78t40.5 -62t61 -41t76 -15t76.5 15t61.5 41t41 62t15 78t-15 77.5t-41 61.5t-61.5 41t-76.5 15zM576 -160h-75v260q-32 -51 -84.5 -80.5t-118.5 -29.5q-52 0 -98.5 20t-80.5 55.5t-54 83.5t-20 104
t20.5 104.5t55 84.5t81.5 56.5t99 20.5q66 0 119 -30t85 -82l9 102h62v-669z" />
    <glyph glyph-name="r" unicode="r" horiz-adv-x="386" 
d="M80 509h66l6 -114q28 61 81 92.5t128 31.5l-1 -75h-13q-88 0 -140 -53t-52 -166v-225h-75v509z" />
    <glyph glyph-name="s" unicode="s" horiz-adv-x="451" 
d="M243 294q82 -22 122.5 -60.5t40.5 -92.5q0 -31 -12.5 -58.5t-36 -48t-58.5 -32.5t-80 -12t-80 10t-59 23q-29 14 -50 32l35 51q20 -16 44 -28q22 -11 49.5 -19.5t61.5 -8.5q54 0 83 24t29 56q0 16 -5 30.5t-20 28t-41 26t-68 23.5q-69 19 -108 55.5t-39 87.5
q0 27 11 51.5t33.5 44t55.5 31t76 11.5q39 0 70 -8.5t53 -18.5q25 -13 45 -28l-36 -52q-15 13 -35 24q-18 9 -41.5 16t-52.5 7q-54 0 -79.5 -22.5t-25.5 -47.5q0 -14 5 -27t18.5 -25t36 -23t58.5 -20z" />
    <glyph glyph-name="t" unicode="t" horiz-adv-x="430" 
d="M200 509h200v-60h-200v-285q0 -54 25 -79.5t68 -25.5q19 0 36 2t31 5q15 3 29 7l11 -62q-13 -6 -31 -10q-17 -5 -38.5 -8t-49.5 -3q-72 0 -114 40t-42 121v298h-105v60h105v131h75v-131z" />
    <glyph glyph-name="u" unicode="u" horiz-adv-x="610" 
d="M455 509h75v-509h-66l-6 98q-29 -55 -78.5 -81.5t-109.5 -26.5q-40 0 -76.5 14t-64 43t-43.5 72.5t-16 102.5v287h75v-263q0 -50 12 -85.5t32 -58t46.5 -33t55.5 -10.5q33 0 63 11t52.5 35t35.5 62.5t13 93.5v248z" />
    <glyph glyph-name="v" unicode="v" horiz-adv-x="517" 
d="M5 509h83l172 -416l172 416h80l-217 -509h-73z" />
    <glyph glyph-name="w" unicode="w" horiz-adv-x="775" 
d="M5 509h82l142 -406l132 406h57l131 -405l142 405h79l-184 -509h-71l-128 387l-128 -387h-71z" />
    <glyph glyph-name="x" unicode="x" horiz-adv-x="542" 
d="M318 262l219 -262h-93l-174 210l-176 -210h-89l219 259l-209 250h93l164 -198l166 198h89z" />
    <glyph glyph-name="y" unicode="y" horiz-adv-x="517" 
d="M5 509h83l172 -424l172 424h80l-219 -514q-33 -78 -81.5 -121.5t-114.5 -43.5q-24 0 -41 3.5t-29 7.5q-13 5 -22 11l24 60q7 -4 17 -7q8 -3 20 -5t29 -2q79 0 126 104z" />
    <glyph glyph-name="z" unicode="z" horiz-adv-x="515" 
d="M362 443h-297v66h400v-53l-311 -390h311v-66h-415v54z" />
    <glyph glyph-name="braceleft" unicode="{" horiz-adv-x="475" 
d="M233 63q0 -43 19.5 -61.5t60.5 -18.5h117v-63h-132q-138 0 -138 139v200q0 35 -15 48.5t-48 13.5h-52v58h52q33 0 48 14t15 49v199q0 139 138 139h132v-62h-117q-41 0 -60.5 -19t-19.5 -61v-193q0 -45 -19 -69t-50 -26q31 -2 50 -25.5t19 -69.5v-192z" />
    <glyph glyph-name="bar" unicode="|" horiz-adv-x="325" 
d="M130 800h65v-900h-65v900z" />
    <glyph glyph-name="braceright" unicode="}" horiz-adv-x="475" 
d="M242 637q0 43 -19.5 61.5t-60.5 18.5h-117v63h132q138 0 138 -139v-200q0 -35 15 -48.5t48 -13.5h52v-58h-52q-33 0 -48 -14t-15 -49v-199q0 -139 -138 -139h-132v62h117q41 0 60.5 19t19.5 61v193q0 45 19 69t50 26q-31 2 -50 25.5t-19 69.5v192z" />
    <glyph glyph-name="asciitilde" unicode="~" 
d="M40 262q2 47 18 84q8 22 18 34.5t24.5 23.5t35 18t46.5 7q42 0 72.5 -20.5t56 -45t51.5 -45t59 -20.5q31 0 47.5 16.5t24.5 36.5q9 23 10 53l62 -6q-2 -47 -18 -83q-9 -23 -19 -35.5t-24.5 -23.5t-35 -18t-47.5 -7q-42 0 -72 20.5t-56 44.5t-51.5 44.5t-58.5 20.5
q-31 0 -47.5 -16.5t-23.5 -36.5q-10 -23 -11 -53z" />
    <glyph glyph-name="exclamdown" unicode="&#xa1;" horiz-adv-x="287" 
d="M190 0h-93l19 487h55zM144 602q-23 0 -38.5 16t-15.5 38q0 23 15.5 38.5t38.5 15.5q22 0 37.5 -15.5t15.5 -38.5q0 -22 -15.5 -38t-37.5 -16z" />
    <glyph glyph-name="cent" unicode="&#xa2;" horiz-adv-x="564" 
d="M340 800v-92q45 -2 78 -15t56 -28q26 -17 45 -38l-50 -49q-15 18 -37 32q-19 12 -45.5 21.5t-62.5 9.5q-41 0 -76.5 -15t-61.5 -41.5t-41 -62t-15 -77.5t15 -77.5t41 -62t61.5 -41.5t76.5 -15q38 0 66 10.5t47 24.5q21 15 36 34l51 -46q-19 -23 -45 -42
q-25 -18 -58.5 -31.5t-80.5 -16.5v-92h-52v93q-51 6 -93.5 28t-73.5 56.5t-48.5 79.5t-17.5 97q0 51 17.5 96t48.5 79.5t74 57.5t93 29v94h52z" />
    <glyph glyph-name="sterling" unicode="&#xa3;" horiz-adv-x="603" 
d="M140 0v322h-95v51h95v108q0 54 16.5 97t46 72t70.5 44.5t89 15.5q56 0 93 -18t61 -40q26 -26 42 -58l-62 -35q-9 23 -27 41q-17 17 -42.5 29t-66.5 12q-66 0 -105.5 -40.5t-39.5 -110.5v-117h235v-51h-235v-257h320v-65h-395z" />
    <glyph glyph-name="currency" unicode="&#xa4;" horiz-adv-x="672" 
d="M336 169q37 0 69.5 14t57 38.5t38.5 57.5t14 71t-14 71t-38.5 57.5t-57 38.5t-69.5 14t-69.5 -14t-57 -38.5t-38.5 -57.5t-14 -71t14 -71t38.5 -57.5t57 -38.5t69.5 -14zM55 598l37 37l94 -91q31 23 69 37t82 14t82 -13.5t68 -36.5l93 90l37 -37l-92 -89
q27 -32 42.5 -72.5t15.5 -85.5q0 -46 -15.5 -87t-43.5 -73l93 -89l-37 -37l-94 91q-32 -24 -70 -37.5t-81 -13.5q-45 0 -82.5 13t-68.5 37l-92 -90l-37 37l91 88q-27 32 -42 72.5t-15 86.5q0 45 15.5 86t43.5 73z" />
    <glyph glyph-name="yen" unicode="&#xa5;" horiz-adv-x="630" 
d="M276 185h-231v48h231v89l-8 13h-223v48h193l-213 317h92l200 -312l200 312h88l-213 -317h193v-48h-224l-7 -13v-89h231v-48h-231v-185h-78v185z" />
    <glyph glyph-name="brokenbar" unicode="&#xa6;" horiz-adv-x="325" 
d="M195 465h-65v335h65v-335zM130 235h65v-335h-65v335z" />
    <glyph glyph-name="section" unicode="&#xa7;" horiz-adv-x="630" 
d="M351 444q121 -37 172.5 -84.5t51.5 -108.5q0 -57 -39.5 -95t-111.5 -54q36 -25 53.5 -55t17.5 -63q0 -32 -13 -60t-38 -49t-61 -33t-83 -12t-81.5 10.5t-57.5 22.5q-27 15 -46 33l47 48q15 -14 36 -25q18 -9 43 -16.5t57 -7.5t54 7t36.5 19t21 27t6.5 30q0 16 -6 32
t-21.5 31t-42 29t-67.5 27q-121 37 -172.5 84t-51.5 108q0 56 39.5 94.5t111.5 53.5q-71 50 -71 120q0 32 13 60t38 48.5t61.5 32.5t83.5 12t81.5 -10.5t57.5 -22.5q27 -15 45 -33l-47 -48q-15 14 -35 25q-19 9 -43.5 16.5t-56.5 7.5t-54.5 -7t-37 -19t-21 -27t-6.5 -30
q0 -16 6 -32t21.5 -31t42 -29t67.5 -26zM363 141q60 4 98 30t38 70q0 21 -8.5 39.5t-29.5 36t-58 34t-94 33.5q-11 4 -21.5 7t-20.5 8q-60 -4 -98 -30t-38 -69q0 -21 8.5 -39t30 -35.5t58.5 -34.5t93 -35z" />
    <glyph glyph-name="dieresis" unicode="&#xa8;" horiz-adv-x="510" 
d="M355 704q20 0 34.5 -14t14.5 -35q0 -20 -14.5 -34.5t-34.5 -14.5q-21 0 -35 14.5t-14 34.5t14.5 34.5t34.5 14.5zM155 704q20 0 34.5 -14t14.5 -35q0 -20 -14.5 -34.5t-34.5 -14.5q-21 0 -35 14.5t-14 34.5t14.5 34.5t34.5 14.5z" />
    <glyph glyph-name="copyright" unicode="&#xa9;" horiz-adv-x="826" 
d="M578 227q-15 -21 -38 -37q-21 -16 -49.5 -27t-69.5 -11q-44 0 -80.5 15t-63 41.5t-41 62t-14.5 77.5t15 78.5t42 63.5t64 42.5t81 15.5q39 0 67.5 -10.5t47.5 -23.5q21 -15 36 -34l-41 -33q-11 13 -27 24q-14 10 -34 17t-48 7q-30 0 -56.5 -11t-46 -30t-31 -45.5
t-11.5 -58.5q0 -31 11.5 -57.5t31 -46t46 -30.5t56.5 -11t51.5 8.5t35.5 19.5q17 12 28 27zM415 710q77 0 143 -27.5t114.5 -75.5t76 -113.5t27.5 -141.5t-28 -142t-77.5 -115t-116 -77t-143.5 -28t-143 27.5t-114.5 75.5t-76 113.5t-27.5 141.5t28 142t77.5 115t116 77
t143.5 28zM413 40q65 0 121.5 24t98 66t65.5 98.5t24 121.5t-24 121.5t-65.5 98.5t-98 66t-121.5 24t-121.5 -24t-98 -66t-65.5 -98.5t-24 -121.5t24 -121.5t65.5 -98.5t98 -66t121.5 -24z" />
    <glyph glyph-name="ordfeminine" unicode="&#xaa;" horiz-adv-x="404" 
d="M199 421q42 0 65.5 16.5t23.5 39.5t-23.5 40.5t-65.5 17.5q-36 0 -57.5 -17.5t-21.5 -40.5t21.5 -39.5t57.5 -16.5zM189 574q31 0 55 -7.5t41 -21.5v16q0 48 -25.5 71t-64.5 23q-22 0 -39 -4.5t-29 -9.5q-15 -7 -26 -15l-25 38q15 11 34 20q17 8 40 14t52 6
q66 0 104 -37.5t38 -105.5v-175h-48l-5 29q-17 -16 -42.5 -25.5t-60.5 -9.5q-59 0 -93.5 27.5t-34.5 68.5q0 42 35 70t94 28zM70 321h274v-43h-274v43z" />
    <glyph glyph-name="guillemotleft" unicode="&#xab;" horiz-adv-x="761" 
d="M135 351l223 -208l-42 -45l-266 237v30l266 238l42 -43zM463 351l223 -208l-42 -45l-266 237v30l266 238l42 -43z" />
    <glyph glyph-name="logicalnot" unicode="&#xac;" 
d="M491 356h-441v62h505v-258h-64v196z" />
    <glyph glyph-name="registered" unicode="&#xae;" horiz-adv-x="536" 
d="M230 565v-69h48q41 0 41 34q0 16 -10.5 25.5t-30.5 9.5h-48zM269 710q46 0 85.5 -16.5t69 -45.5t46 -68.5t16.5 -84.5t-17 -85t-46.5 -69t-69.5 -46t-86 -17t-85.5 16.5t-69 45.5t-46 68.5t-16.5 84.5t17 85t46.5 69t69.5 46t86 17zM268 319q38 0 70 13t55 36.5
t36.5 55.5t13.5 70t-13.5 70.5t-36.5 56t-55 36.5t-70 13q-37 0 -69.5 -13t-55.5 -36.5t-36.5 -56t-13.5 -70.5t13.5 -70t36.5 -55.5t55.5 -36.5t69.5 -13zM190 599h93q32 0 53.5 -18t21.5 -50q0 -24 -13 -40.5t-35 -23.5l57 -78h-48l-52 74h-37v-74h-40v210z" />
    <glyph glyph-name="macron" unicode="&#xaf;" horiz-adv-x="460" 
d="M50 686h360v-50h-360v50z" />
    <glyph glyph-name="degree" unicode="&#xb0;" horiz-adv-x="407" 
d="M204 440q48 0 77.5 31t29.5 78t-29.5 78t-77.5 31q-49 0 -78.5 -31t-29.5 -78t29.5 -78t78.5 -31zM205 710q35 0 65 -12t51.5 -33.5t33.5 -51t12 -63.5t-12.5 -64t-34.5 -51.5t-52 -34t-65 -12.5t-65 12t-51.5 33.5t-34 51t-12.5 63.5t12.5 63.5t34.5 51.5t52.5 34.5
t65.5 12.5z" />
    <glyph glyph-name="plusminus" unicode="&#xb1;" 
d="M333 460h222v-60h-222v-198h-62v198h-221v60h221v197h62v-197zM50 42v62h505v-62h-505z" />
    <glyph glyph-name="twosuperior" unicode="&#xb2;" horiz-adv-x="353" 
d="M200 478q32 32 44 55.5t12 49.5q0 29 -22.5 50t-55.5 21q-25 0 -42.5 -9t-28.5 -19q-13 -13 -21 -29l-46 25q12 24 32 42q18 17 44 29.5t65 12.5q29 0 53 -9t41.5 -24.5t27.5 -37.5t10 -48q0 -38 -17 -69.5t-55 -68.5l-122 -119h191v-50h-268v43z" />
    <glyph glyph-name="threesuperior" unicode="&#xb3;" horiz-adv-x="344" 
d="M154 522q39 0 60 19t21 48q0 30 -21 48.5t-59 18.5q-22 0 -36.5 -6t-23.5 -13q-11 -9 -17 -20l-43 24q11 18 29 33q15 13 38 22.5t56 9.5q60 0 97 -30.5t37 -78.5q0 -32 -17 -57t-46 -40q34 -15 54.5 -42.5t20.5 -63.5q0 -26 -11 -48t-31 -38t-47.5 -25t-59.5 -9
q-35 0 -60.5 10.5t-42.5 23.5q-19 15 -32 34l43 27q9 -13 22 -22q12 -10 28.5 -16.5t41.5 -6.5q42 0 67 21.5t25 53.5t-25 54.5t-70 22.5h-40v46h42z" />
    <glyph glyph-name="acute" unicode="&#xb4;" horiz-adv-x="370" 
d="M184 740h81l-99 -163h-61z" />
    <glyph glyph-name="mu" unicode="&#xb5;" horiz-adv-x="620" 
d="M80 509h75v-262q0 -50 11.5 -86t31 -58.5t46 -33t57.5 -10.5q34 0 63.5 10.5t52 33.5t35.5 59.5t13 88.5v258h75v-509h-66l-6 96q-29 -54 -77.5 -80t-108.5 -26q-77 0 -127 57v-207h-75v669z" />
    <glyph glyph-name="mu" unicode="&#x3bc;" horiz-adv-x="620" 
d="M80 509h75v-262q0 -50 11.5 -86t31 -58.5t46 -33t57.5 -10.5q34 0 63.5 10.5t52 33.5t35.5 59.5t13 88.5v258h75v-509h-66l-6 96q-29 -54 -77.5 -80t-108.5 -26q-77 0 -127 57v-207h-75v669z" />
    <glyph glyph-name="paragraph" unicode="&#xb6;" horiz-adv-x="736" 
d="M301 300h-21q-54 0 -96.5 15t-72 41t-45.5 62.5t-16 79.5q0 44 16.5 81t46.5 64t73 42t97 15h333v-700h-70v638h-175v-638h-70v300z" />
    <glyph glyph-name="periodcentered" unicode="&#xb7;" horiz-adv-x="227" 
d="M113 404q23 0 38.5 -16t15.5 -38q0 -23 -15.5 -38.5t-38.5 -15.5q-22 0 -37.5 15.5t-15.5 38.5q0 22 15.5 38t37.5 16z" />
    <glyph glyph-name="cedilla" unicode="&#xb8;" horiz-adv-x="355" 
d="M230 29q21 -10 38 -25q15 -14 26 -34.5t11 -49.5q0 -28 -11.5 -49.5t-30.5 -36t-44 -22t-53 -7.5q-23 0 -41.5 4.5t-31.5 9.5q-16 7 -28 15l20 48q9 -6 22 -11q11 -4 25.5 -7.5t34.5 -3.5q37 0 57 19t20 48q0 18 -7 31.5t-15 22.5q-10 11 -22 19z" />
    <glyph glyph-name="onesuperior" unicode="&#xb9;" horiz-adv-x="279" 
d="M172 700h47v-420h-57v348l-101 -71l-31 39z" />
    <glyph glyph-name="ordmasculine" unicode="&#xba;" horiz-adv-x="458" 
d="M229 433q46 0 78 30.5t32 78.5q0 24 -8.5 44t-23.5 34.5t-35 23t-43 8.5q-46 0 -77.5 -31t-31.5 -79t31.5 -78.5t77.5 -30.5zM231 704q36 0 67 -12t53 -33.5t34.5 -51t12.5 -63.5t-13 -64t-36 -52t-54 -35t-68 -13q-36 0 -66.5 12t-53 33.5t-35 51t-12.5 63.5t13 64
t36 52t54.5 35t67.5 13zM70 321h318v-43h-318v43z" />
    <glyph glyph-name="guillemotright" unicode="&#xbb;" horiz-adv-x="761" 
d="M298 349l-223 208l42 45l266 -237v-30l-266 -238l-42 43zM626 349l-223 208l42 45l266 -237v-30l-266 -238l-42 43z" />
    <glyph glyph-name="onequarter" unicode="&#xbc;" horiz-adv-x="835" 
d="M212 700h47v-420h-57v348l-101 -71l-31 39zM675 152v198l-146 -198h146zM673 420h56v-268h66v-46h-66v-106h-54v106h-196v48zM662 700h58l-511 -700h-59z" />
    <glyph glyph-name="onehalf" unicode="&#xbd;" horiz-adv-x="886" 
d="M212 700h47v-420h-57v348l-101 -71l-31 39zM662 700h58l-511 -700h-59zM713 198q32 32 44 55.5t12 49.5q0 29 -22.5 50t-55.5 21q-25 0 -42.5 -9t-28.5 -19q-13 -13 -21 -29l-46 25q12 24 32 42q18 17 44 29.5t65 12.5q29 0 53 -9t41.5 -24.5t27.5 -37.5t10 -48
q0 -38 -17 -69.5t-55 -68.5l-122 -119h191v-50h-268v43z" />
    <glyph glyph-name="threequarters" unicode="&#xbe;" horiz-adv-x="855" 
d="M695 152v198l-146 -198h146zM693 420h56v-268h66v-46h-66v-106h-54v106h-196v48zM682 700h58l-511 -700h-59zM179 522q39 0 60 19t21 48q0 30 -21 48.5t-59 18.5q-22 0 -36.5 -6t-23.5 -13q-11 -9 -17 -20l-43 24q11 18 29 33q15 13 38 22.5t56 9.5q60 0 97 -30.5
t37 -78.5q0 -32 -17 -57t-46 -40q34 -15 54.5 -42.5t20.5 -63.5q0 -26 -11 -48t-31 -38t-47.5 -25t-59.5 -9q-35 0 -60.5 10.5t-42.5 23.5q-19 15 -32 34l43 27q9 -13 22 -22q12 -10 28.5 -16.5t41.5 -6.5q42 0 67 21.5t25 53.5t-25 54.5t-70 22.5h-40v46h42z" />
    <glyph glyph-name="questiondown" unicode="&#xbf;" horiz-adv-x="543" 
d="M280 602q-23 0 -38.5 16t-15.5 38q0 23 15.5 38.5t38.5 15.5q22 0 37.5 -15.5t15.5 -38.5q0 -22 -15.5 -38t-37.5 -16zM146 189q0 -28 10 -52t27.5 -40.5t41.5 -26t51 -9.5q41 0 68.5 15.5t45.5 34.5q20 22 33 50l60 -31q-16 -39 -44 -70q-26 -28 -66 -49t-102 -21
q-44 0 -81 15t-63.5 40.5t-41.5 59.5t-15 73q0 41 12.5 71.5t31 55t41 45t42 41t33 43.5t15.5 53h70q0 -36 -12.5 -63.5t-31.5 -50t-40.5 -42t-40.5 -41t-31.5 -45.5t-12.5 -56z" />
    <glyph glyph-name="Agrave" unicode="&#xc0;" horiz-adv-x="700" 
d="M200 265h295l-147 347zM690 0h-85l-86 202h-342l-86 -202h-81l301 700h78zM370 757h-61l-99 163h81z" />
    <glyph glyph-name="Aacute" unicode="&#xc1;" horiz-adv-x="700" 
d="M200 265h295l-147 347zM690 0h-85l-86 202h-342l-86 -202h-81l301 700h78zM409 920h81l-99 -163h-61z" />
    <glyph glyph-name="Acircumflex" unicode="&#xc2;" horiz-adv-x="700" 
d="M200 265h295l-147 347zM690 0h-85l-86 202h-342l-86 -202h-81l301 700h78zM315 920h70l150 -163h-70l-117 112l-116 -112h-67z" />
    <glyph glyph-name="Atilde" unicode="&#xc3;" horiz-adv-x="700" 
d="M200 265h295l-147 347zM690 0h-85l-86 202h-342l-86 -202h-81l301 700h78zM178 788q2 33 13 59q10 23 29 40.5t53 17.5q32 0 51.5 -14t35.5 -30.5t31 -30.5t36 -14q16 0 25 11t14 25q5 16 7 36l49 -5q-3 -33 -14 -59q-10 -24 -29 -41.5t-54 -17.5q-30 0 -50 14
t-35.5 30.5t-31 30.5t-36.5 14q-16 0 -25 -11t-14 -25q-5 -16 -7 -36z" />
    <glyph glyph-name="Adieresis" unicode="&#xc4;" horiz-adv-x="700" 
d="M200 265h295l-147 347zM690 0h-85l-86 202h-342l-86 -202h-81l301 700h78zM450 884q20 0 34.5 -14t14.5 -35q0 -20 -14.5 -34.5t-34.5 -14.5q-21 0 -35 14.5t-14 34.5t14.5 34.5t34.5 14.5zM250 884q20 0 34.5 -14t14.5 -35q0 -20 -14.5 -34.5t-34.5 -14.5
q-21 0 -35 14.5t-14 34.5t14.5 34.5t34.5 14.5z" />
    <glyph glyph-name="Aring" unicode="&#xc5;" horiz-adv-x="700" 
d="M200 265h295l-147 347zM690 0h-85l-86 202h-342l-86 -202h-81l301 700h78zM350 788q25 0 43 17.5t18 43.5t-18 43t-43 17q-26 0 -44 -17t-18 -43t18 -43.5t44 -17.5zM350 950q45 0 75.5 -28.5t30.5 -72.5q0 -45 -30.5 -73.5t-75.5 -28.5t-75.5 28.5t-30.5 73.5
q0 44 30.5 72.5t75.5 28.5z" />
    <glyph glyph-name="AE" unicode="&#xc6;" horiz-adv-x="1055" 
d="M505 265v370l-245 -370h245zM583 633v-236h357v-64h-357v-265h417v-68h-495v203h-282l-134 -203h-89l465 700h525v-67h-407z" />
    <glyph glyph-name="Ccedilla" unicode="&#xc7;" horiz-adv-x="718" 
d="M55 348q0 76 28 142t77.5 115t116 77t142.5 28q63 0 111 -16.5t81 -36.5q38 -23 66 -53l-55 -49q-23 23 -53 42q-28 16 -65 28.5t-86 12.5q-61 0 -113 -22t-90 -61t-60 -91.5t-22 -113.5t22 -114t60 -92t90 -61t113 -22q52 0 91.5 14.5t66.5 32.5q32 20 55 46l52 -48
q-25 -29 -60 -52q-31 -22 -74 -39.5t-101 -22.5q11 -14 18.5 -31t7.5 -41q0 -28 -11.5 -49.5t-30.5 -36t-44 -22t-53 -7.5q-23 0 -41.5 4.5t-31.5 9.5q-16 7 -28 15l20 48q9 -6 22 -11q11 -4 25.5 -7.5t34.5 -3.5q37 0 57 19t20 48q0 24 -11 40.5t-21 24.5q-70 6 -130 35.5
t-103.5 77t-68 110t-24.5 133.5z" />
    <glyph glyph-name="Egrave" unicode="&#xc8;" horiz-adv-x="650" 
d="M100 0v700h485v-68h-407v-235h357v-64h-357v-266h417v-67h-495zM405 757h-61l-99 163h81z" />
    <glyph glyph-name="Eacute" unicode="&#xc9;" horiz-adv-x="650" 
d="M100 0v700h485v-68h-407v-235h357v-64h-357v-266h417v-67h-495zM384 920h81l-99 -163h-61z" />
    <glyph glyph-name="Ecircumflex" unicode="&#xca;" horiz-adv-x="650" 
d="M100 0v700h485v-68h-407v-235h357v-64h-357v-266h417v-67h-495zM310 920h70l150 -163h-70l-117 112l-116 -112h-67z" />
    <glyph glyph-name="Edieresis" unicode="&#xcb;" horiz-adv-x="650" 
d="M100 0v700h485v-68h-407v-235h357v-64h-357v-266h417v-67h-495zM445 884q20 0 34.5 -14t14.5 -35q0 -20 -14.5 -34.5t-34.5 -14.5q-21 0 -35 14.5t-14 34.5t14.5 34.5t34.5 14.5zM245 884q20 0 34.5 -14t14.5 -35q0 -20 -14.5 -34.5t-34.5 -14.5q-21 0 -35 14.5t-14 34.5
t14.5 34.5t34.5 14.5z" />
    <glyph glyph-name="Igrave" unicode="&#xcc;" horiz-adv-x="290" 
d="M105 700h80v-700h-80v700zM175 757h-61l-99 163h81z" />
    <glyph glyph-name="Iacute" unicode="&#xcd;" horiz-adv-x="290" 
d="M105 700h80v-700h-80v700zM194 920h81l-99 -163h-61z" />
    <glyph glyph-name="Icircumflex" unicode="&#xce;" horiz-adv-x="290" 
d="M105 700h80v-700h-80v700zM110 920h70l150 -163h-70l-117 112l-116 -112h-67z" />
    <glyph glyph-name="Idieresis" unicode="&#xcf;" horiz-adv-x="290" 
d="M105 700h80v-700h-80v700zM245 884q20 0 34.5 -14t14.5 -35q0 -20 -14.5 -34.5t-34.5 -14.5q-21 0 -35 14.5t-14 34.5t14.5 34.5t34.5 14.5zM45 884q20 0 34.5 -14t14.5 -35q0 -20 -14.5 -34.5t-34.5 -14.5q-21 0 -35 14.5t-14 34.5t14.5 34.5t34.5 14.5z" />
    <glyph glyph-name="Eth" unicode="&#xd0;" horiz-adv-x="792" 
d="M210 336v-269h150q65 0 120 21.5t95 60t62.5 90t22.5 111.5t-22.5 111.5t-62.5 89.5t-95 59.5t-120 21.5h-150v-247h230v-49h-230zM132 336h-102v49h102v315h224q84 0 154 -26.5t120.5 -73.5t78.5 -110.5t28 -138.5t-28.5 -139t-79.5 -111t-121.5 -74t-154.5 -27h-221
v336z" />
    <glyph glyph-name="Ntilde" unicode="&#xd1;" horiz-adv-x="790" 
d="M176 587v-587h-76v700h83l431 -579v579h76v-700h-76zM223 788q2 33 13 59q10 23 29 40.5t53 17.5q32 0 51.5 -14t35.5 -30.5t31 -30.5t36 -14q16 0 25 11t14 25q5 16 7 36l49 -5q-3 -33 -14 -59q-10 -24 -29 -41.5t-54 -17.5q-30 0 -50 14t-35.5 30.5t-31 30.5t-36.5 14
q-16 0 -25 -11t-14 -25q-5 -16 -7 -36z" />
    <glyph glyph-name="Ograve" unicode="&#xd2;" horiz-adv-x="835" 
d="M418 61q60 0 112.5 22t90.5 61t60 92t22 114t-22 113.5t-60 91.5t-90.5 61t-112.5 22q-61 0 -113 -22t-90 -61t-60 -91.5t-22 -113.5t22 -114t60 -92t90 -61t113 -22zM419 710q77 0 142.5 -27.5t114.5 -76t76.5 -114t27.5 -141.5t-28 -141.5t-77.5 -114.5t-115.5 -77
t-143 -28q-76 0 -142 27.5t-115 75.5t-76.5 113.5t-27.5 141.5t28 142t77.5 115t116 77t142.5 28zM450 757h-61l-99 163h81z" />
    <glyph glyph-name="Oacute" unicode="&#xd3;" horiz-adv-x="835" 
d="M418 61q60 0 112.5 22t90.5 61t60 92t22 114t-22 113.5t-60 91.5t-90.5 61t-112.5 22q-61 0 -113 -22t-90 -61t-60 -91.5t-22 -113.5t22 -114t60 -92t90 -61t113 -22zM419 710q77 0 142.5 -27.5t114.5 -76t76.5 -114t27.5 -141.5t-28 -141.5t-77.5 -114.5t-115.5 -77
t-143 -28q-76 0 -142 27.5t-115 75.5t-76.5 113.5t-27.5 141.5t28 142t77.5 115t116 77t142.5 28zM464 920h81l-99 -163h-61z" />
    <glyph glyph-name="Ocircumflex" unicode="&#xd4;" horiz-adv-x="835" 
d="M418 61q60 0 112.5 22t90.5 61t60 92t22 114t-22 113.5t-60 91.5t-90.5 61t-112.5 22q-61 0 -113 -22t-90 -61t-60 -91.5t-22 -113.5t22 -114t60 -92t90 -61t113 -22zM419 710q77 0 142.5 -27.5t114.5 -76t76.5 -114t27.5 -141.5t-28 -141.5t-77.5 -114.5t-115.5 -77
t-143 -28q-76 0 -142 27.5t-115 75.5t-76.5 113.5t-27.5 141.5t28 142t77.5 115t116 77t142.5 28zM383 920h70l150 -163h-70l-117 112l-116 -112h-67z" />
    <glyph glyph-name="Otilde" unicode="&#xd5;" horiz-adv-x="835" 
d="M418 61q60 0 112.5 22t90.5 61t60 92t22 114t-22 113.5t-60 91.5t-90.5 61t-112.5 22q-61 0 -113 -22t-90 -61t-60 -91.5t-22 -113.5t22 -114t60 -92t90 -61t113 -22zM419 710q77 0 142.5 -27.5t114.5 -76t76.5 -114t27.5 -141.5t-28 -141.5t-77.5 -114.5t-115.5 -77
t-143 -28q-76 0 -142 27.5t-115 75.5t-76.5 113.5t-27.5 141.5t28 142t77.5 115t116 77t142.5 28zM246 788q2 33 13 59q10 23 29 40.5t53 17.5q32 0 51.5 -14t35.5 -30.5t31 -30.5t36 -14q16 0 25 11t14 25q5 16 7 36l49 -5q-3 -33 -14 -59q-10 -24 -29 -41.5t-54 -17.5
q-30 0 -50 14t-35.5 30.5t-31 30.5t-36.5 14q-16 0 -25 -11t-14 -25q-5 -16 -7 -36z" />
    <glyph glyph-name="Odieresis" unicode="&#xd6;" horiz-adv-x="835" 
d="M418 61q60 0 112.5 22t90.5 61t60 92t22 114t-22 113.5t-60 91.5t-90.5 61t-112.5 22q-61 0 -113 -22t-90 -61t-60 -91.5t-22 -113.5t22 -114t60 -92t90 -61t113 -22zM419 710q77 0 142.5 -27.5t114.5 -76t76.5 -114t27.5 -141.5t-28 -141.5t-77.5 -114.5t-115.5 -77
t-143 -28q-76 0 -142 27.5t-115 75.5t-76.5 113.5t-27.5 141.5t28 142t77.5 115t116 77t142.5 28zM518 884q20 0 34.5 -14t14.5 -35q0 -20 -14.5 -34.5t-34.5 -14.5q-21 0 -35 14.5t-14 34.5t14.5 34.5t34.5 14.5zM318 884q20 0 34.5 -14t14.5 -35q0 -20 -14.5 -34.5
t-34.5 -14.5q-21 0 -35 14.5t-14 34.5t14.5 34.5t34.5 14.5z" />
    <glyph glyph-name="multiply" unicode="&#xd7;" 
d="M302 308l-193 -194l-43 43l194 193l-194 192l43 44l193 -195l193 195l44 -44l-195 -192l195 -193l-44 -43z" />
    <glyph glyph-name="Oslash" unicode="&#xd8;" horiz-adv-x="835" 
d="M245 118q35 -27 79 -42.5t94 -15.5q61 0 113 22.5t90.5 61.5t60.5 92t22 114q0 60 -20.5 111t-57.5 89zM675 607q49 -48 77 -113.5t28 -141.5t-28 -142t-77 -115t-115.5 -77t-143.5 -28q-63 0 -118.5 19t-100.5 53l-80 -92h-64l107 123q-49 48 -77 113.5t-28 142.5
q0 76 28 142t77.5 114.5t116 76.5t142.5 28q63 0 118.5 -18.5t100.5 -52.5l81 91h64zM590 583q-35 27 -79 42t-93 15q-61 0 -113 -22t-90.5 -61t-60.5 -92t-22 -115q0 -60 20.5 -111t56.5 -89z" />
    <glyph glyph-name="Ugrave" unicode="&#xd9;" horiz-adv-x="740" 
d="M650 700v-416q0 -65 -21 -119t-58.5 -93t-89 -60.5t-112.5 -21.5t-112.5 21t-88.5 59.5t-57.5 92t-20.5 118.5v419h79v-419q0 -49 15 -89.5t42 -69.5t64.5 -45t81.5 -16t81 16t64 45t42 69.5t15 89.5v419h76zM430 757h-61l-99 163h81z" />
    <glyph glyph-name="Uacute" unicode="&#xda;" horiz-adv-x="740" 
d="M650 700v-416q0 -65 -21 -119t-58.5 -93t-89 -60.5t-112.5 -21.5t-112.5 21t-88.5 59.5t-57.5 92t-20.5 118.5v419h79v-419q0 -49 15 -89.5t42 -69.5t64.5 -45t81.5 -16t81 16t64 45t42 69.5t15 89.5v419h76zM389 920h81l-99 -163h-61z" />
    <glyph glyph-name="Ucircumflex" unicode="&#xdb;" horiz-adv-x="740" 
d="M650 700v-416q0 -65 -21 -119t-58.5 -93t-89 -60.5t-112.5 -21.5t-112.5 21t-88.5 59.5t-57.5 92t-20.5 118.5v419h79v-419q0 -49 15 -89.5t42 -69.5t64.5 -45t81.5 -16t81 16t64 45t42 69.5t15 89.5v419h76zM335 920h70l150 -163h-70l-117 112l-116 -112h-67z" />
    <glyph glyph-name="Udieresis" unicode="&#xdc;" horiz-adv-x="740" 
d="M650 700v-416q0 -65 -21 -119t-58.5 -93t-89 -60.5t-112.5 -21.5t-112.5 21t-88.5 59.5t-57.5 92t-20.5 118.5v419h79v-419q0 -49 15 -89.5t42 -69.5t64.5 -45t81.5 -16t81 16t64 45t42 69.5t15 89.5v419h76zM470 884q20 0 34.5 -14t14.5 -35q0 -20 -14.5 -34.5
t-34.5 -14.5q-21 0 -35 14.5t-14 34.5t14.5 34.5t34.5 14.5zM270 884q20 0 34.5 -14t14.5 -35q0 -20 -14.5 -34.5t-34.5 -14.5q-21 0 -35 14.5t-14 34.5t14.5 34.5t34.5 14.5z" />
    <glyph glyph-name="Yacute" unicode="&#xdd;" horiz-adv-x="670" 
d="M297 280l-287 420h92l235 -349l236 349h87l-286 -420v-280h-77v280zM384 920h81l-99 -163h-61z" />
    <glyph glyph-name="Thorn" unicode="&#xde;" horiz-adv-x="670" 
d="M178 215h191q38 0 69.5 11.5t53.5 31.5t34 47.5t12 59.5q0 33 -12 60.5t-34 47.5t-53.5 31.5t-69.5 11.5h-191v-301zM100 700h78v-119h201q53 0 96.5 -16t74.5 -44.5t48 -68t17 -85.5t-17.5 -85.5t-49 -69t-75.5 -46t-97 -16.5h-198v-150h-78v700z" />
    <glyph glyph-name="germandbls" unicode="&#xdf;" horiz-adv-x="600" 
d="M155 0h-75v472q0 54 16 98t45.5 75t71 48t91.5 17q49 0 89.5 -13.5t70 -38t45.5 -58.5t16 -74q0 -54 -26.5 -93t-71.5 -61q63 -19 100.5 -67t37.5 -115q0 -43 -16 -79.5t-44.5 -63.5t-69 -42t-88.5 -15q-18 0 -32 1.5t-24 3.5q-11 3 -19 6l11 63q9 -3 18 -4
q9 -2 19.5 -3.5t21.5 -1.5q68 0 108 39.5t40 99.5t-41.5 99.5t-110.5 39.5h-43v61h8q65 0 106 34.5t41 90.5t-41 91t-106 35q-67 0 -107.5 -45.5t-40.5 -126.5v-473z" />
    <glyph glyph-name="agrave" unicode="&#xe0;" horiz-adv-x="570" 
d="M273 48q75 0 113.5 29.5t38.5 71.5t-38.5 71.5t-113.5 29.5q-69 0 -106 -29.5t-37 -71.5t37 -71.5t106 -29.5zM257 306q55 0 96 -15.5t67 -41.5v42q0 85 -42.5 125t-110.5 40q-36 0 -63 -8t-46 -17q-21 -12 -37 -26l-36 48q20 18 48 33q26 13 61 23t83 10
q103 0 160.5 -58.5t57.5 -169.5v-291h-58l-8 55q-27 -29 -71 -47t-103 -18q-47 0 -84.5 12t-63 33t-39 49.5t-13.5 61.5t14 62t40 50.5t63.5 34.5t84.5 13zM326 577h-61l-99 163h81z" />
    <glyph glyph-name="aacute" unicode="&#xe1;" horiz-adv-x="570" 
d="M273 48q75 0 113.5 29.5t38.5 71.5t-38.5 71.5t-113.5 29.5q-69 0 -106 -29.5t-37 -71.5t37 -71.5t106 -29.5zM257 306q55 0 96 -15.5t67 -41.5v42q0 85 -42.5 125t-110.5 40q-36 0 -63 -8t-46 -17q-21 -12 -37 -26l-36 48q20 18 48 33q26 13 61 23t83 10
q103 0 160.5 -58.5t57.5 -169.5v-291h-58l-8 55q-27 -29 -71 -47t-103 -18q-47 0 -84.5 12t-63 33t-39 49.5t-13.5 61.5t14 62t40 50.5t63.5 34.5t84.5 13zM326 740h81l-99 -163h-61z" />
    <glyph glyph-name="acircumflex" unicode="&#xe2;" horiz-adv-x="570" 
d="M273 48q75 0 113.5 29.5t38.5 71.5t-38.5 71.5t-113.5 29.5q-69 0 -106 -29.5t-37 -71.5t37 -71.5t106 -29.5zM257 306q55 0 96 -15.5t67 -41.5v42q0 85 -42.5 125t-110.5 40q-36 0 -63 -8t-46 -17q-21 -12 -37 -26l-36 48q20 18 48 33q26 13 61 23t83 10
q103 0 160.5 -58.5t57.5 -169.5v-291h-58l-8 55q-27 -29 -71 -47t-103 -18q-47 0 -84.5 12t-63 33t-39 49.5t-13.5 61.5t14 62t40 50.5t63.5 34.5t84.5 13zM252 740h70l150 -163h-70l-117 112l-116 -112h-67z" />
    <glyph glyph-name="atilde" unicode="&#xe3;" horiz-adv-x="570" 
d="M273 48q75 0 113.5 29.5t38.5 71.5t-38.5 71.5t-113.5 29.5q-69 0 -106 -29.5t-37 -71.5t37 -71.5t106 -29.5zM257 306q55 0 96 -15.5t67 -41.5v42q0 85 -42.5 125t-110.5 40q-36 0 -63 -8t-46 -17q-21 -12 -37 -26l-36 48q20 18 48 33q26 13 61 23t83 10
q103 0 160.5 -58.5t57.5 -169.5v-291h-58l-8 55q-27 -29 -71 -47t-103 -18q-47 0 -84.5 12t-63 33t-39 49.5t-13.5 61.5t14 62t40 50.5t63.5 34.5t84.5 13zM121 608q2 33 13 59q10 23 29 40.5t53 17.5q32 0 51.5 -14t35.5 -30.5t31 -30.5t36 -14q16 0 25 11t14 25q5 16 7 36
l49 -5q-3 -33 -14 -59q-10 -24 -29 -41.5t-54 -17.5q-30 0 -50 14t-35.5 30.5t-31 30.5t-36.5 14q-16 0 -25 -11t-14 -25q-5 -16 -7 -36z" />
    <glyph glyph-name="adieresis" unicode="&#xe4;" horiz-adv-x="570" 
d="M273 48q75 0 113.5 29.5t38.5 71.5t-38.5 71.5t-113.5 29.5q-69 0 -106 -29.5t-37 -71.5t37 -71.5t106 -29.5zM257 306q55 0 96 -15.5t67 -41.5v42q0 85 -42.5 125t-110.5 40q-36 0 -63 -8t-46 -17q-21 -12 -37 -26l-36 48q20 18 48 33q26 13 61 23t83 10
q103 0 160.5 -58.5t57.5 -169.5v-291h-58l-8 55q-27 -29 -71 -47t-103 -18q-47 0 -84.5 12t-63 33t-39 49.5t-13.5 61.5t14 62t40 50.5t63.5 34.5t84.5 13zM387 704q20 0 34.5 -14t14.5 -35q0 -20 -14.5 -34.5t-34.5 -14.5q-21 0 -35 14.5t-14 34.5t14.5 34.5t34.5 14.5z
M187 704q20 0 34.5 -14t14.5 -35q0 -20 -14.5 -34.5t-34.5 -14.5q-21 0 -35 14.5t-14 34.5t14.5 34.5t34.5 14.5z" />
    <glyph glyph-name="aring" unicode="&#xe5;" horiz-adv-x="570" 
d="M273 48q75 0 113.5 29.5t38.5 71.5t-38.5 71.5t-113.5 29.5q-69 0 -106 -29.5t-37 -71.5t37 -71.5t106 -29.5zM257 306q55 0 96 -15.5t67 -41.5v42q0 85 -42.5 125t-110.5 40q-36 0 -63 -8t-46 -17q-21 -12 -37 -26l-36 48q20 18 48 33q26 13 61 23t83 10
q103 0 160.5 -58.5t57.5 -169.5v-291h-58l-8 55q-27 -29 -71 -47t-103 -18q-47 0 -84.5 12t-63 33t-39 49.5t-13.5 61.5t14 62t40 50.5t63.5 34.5t84.5 13zM292 608q25 0 43 17.5t18 43.5t-18 43t-43 17q-26 0 -44 -17t-18 -43t18 -43.5t44 -17.5zM292 770q45 0 75.5 -28.5
t30.5 -72.5q0 -45 -30.5 -73.5t-75.5 -28.5t-75.5 28.5t-30.5 73.5q0 44 30.5 72.5t75.5 28.5z" />
    <glyph glyph-name="ae" unicode="&#xe6;" horiz-adv-x="981" 
d="M257 306q54 0 94.5 -14.5t68.5 -39.5v39q0 85 -42.5 125t-109.5 40q-36 0 -63.5 -8t-45.5 -17q-22 -11 -38 -25l-36 49q20 18 49 32q25 13 60.5 22.5t83.5 9.5q70 0 119 -29t73 -86q35 53 91.5 84t127.5 31q51 0 96 -19.5t78.5 -53.5t53 -79.5t19.5 -97.5q0 -6 -1 -13
q0 -3 -1 -6h-439q0 -42 15 -77.5t41.5 -61.5t62 -40.5t77.5 -14.5q46 0 79.5 14.5t54.5 32.5q25 21 42 47l48 -39q-21 -34 -54 -60q-29 -25 -71 -43t-103 -18q-71 0 -126.5 30t-90.5 81q-20 -50 -71.5 -80.5t-136.5 -30.5q-49 0 -87.5 12t-65 33t-40.5 49.5t-14 61.5t14 62
t40 50.5t63.5 34.5t84.5 13zM273 250q-69 0 -106 -29.5t-37 -71.5t37 -71.5t106 -29.5q75 0 113.5 29.5t38.5 71.5t-38.5 71.5t-113.5 29.5zM688 460q-36 0 -68 -11.5t-57 -32.5t-41.5 -50t-22.5 -63h363q-5 33 -20.5 62t-39 50t-53 33t-61.5 12z" />
    <glyph glyph-name="ccedilla" unicode="&#xe7;" horiz-adv-x="548" 
d="M513 81q-17 -21 -42 -40q-22 -16 -53 -30t-73 -19q11 -13 19 -30.5t8 -41.5q0 -28 -11.5 -49.5t-30.5 -36t-44 -22t-53 -7.5q-23 0 -41.5 4.5t-31.5 9.5q-16 7 -28 15l20 48q9 -6 22 -11q11 -4 25.5 -7.5t34.5 -3.5q37 0 57 19t20 48q0 24 -11.5 40.5t-21.5 24.5
q-51 6 -93.5 28t-73.5 56.5t-48.5 79.5t-17.5 97q0 56 21 104.5t57 84.5t85.5 56.5t106.5 20.5q48 0 84 -13t61 -28q28 -18 48 -41l-50 -50q-15 18 -36 32q-20 12 -46.5 21.5t-62.5 9.5q-41 0 -76.5 -15t-61.5 -41t-40.5 -61.5t-14.5 -77.5t14.5 -78t40.5 -62t61.5 -41
t76.5 -15q38 0 66 10.5t47 24.5q21 15 36 34z" />
    <glyph glyph-name="egrave" unicode="&#xe8;" horiz-adv-x="606" 
d="M120 250q0 -42 15 -77.5t41.5 -61.5t62 -40.5t77.5 -14.5q46 0 79.5 14.5t54.5 32.5q25 21 42 47l48 -39q-21 -34 -54 -60q-29 -25 -71 -43t-103 -18q-57 0 -106 20t-84.5 55.5t-56 83.5t-20.5 104t21 104.5t57 84.5t85 56.5t106 20.5q51 0 96 -19.5t78.5 -53.5t53 -79.5
t19.5 -97.5q0 -6 -1 -13q0 -3 -1 -6h-439zM313 460q-36 0 -68 -11.5t-57 -32.5t-41.5 -50t-22.5 -63h363q-5 33 -20.5 62t-39 50t-53 33t-61.5 12zM340 577h-61l-99 163h81z" />
    <glyph glyph-name="eacute" unicode="&#xe9;" horiz-adv-x="606" 
d="M120 250q0 -42 15 -77.5t41.5 -61.5t62 -40.5t77.5 -14.5q46 0 79.5 14.5t54.5 32.5q25 21 42 47l48 -39q-21 -34 -54 -60q-29 -25 -71 -43t-103 -18q-57 0 -106 20t-84.5 55.5t-56 83.5t-20.5 104t21 104.5t57 84.5t85 56.5t106 20.5q51 0 96 -19.5t78.5 -53.5t53 -79.5
t19.5 -97.5q0 -6 -1 -13q0 -3 -1 -6h-439zM313 460q-36 0 -68 -11.5t-57 -32.5t-41.5 -50t-22.5 -63h363q-5 33 -20.5 62t-39 50t-53 33t-61.5 12zM349 740h81l-99 -163h-61z" />
    <glyph glyph-name="ecircumflex" unicode="&#xea;" horiz-adv-x="606" 
d="M120 250q0 -42 15 -77.5t41.5 -61.5t62 -40.5t77.5 -14.5q46 0 79.5 14.5t54.5 32.5q25 21 42 47l48 -39q-21 -34 -54 -60q-29 -25 -71 -43t-103 -18q-57 0 -106 20t-84.5 55.5t-56 83.5t-20.5 104t21 104.5t57 84.5t85 56.5t106 20.5q51 0 96 -19.5t78.5 -53.5t53 -79.5
t19.5 -97.5q0 -6 -1 -13q0 -3 -1 -6h-439zM313 460q-36 0 -68 -11.5t-57 -32.5t-41.5 -50t-22.5 -63h363q-5 33 -20.5 62t-39 50t-53 33t-61.5 12zM275 740h70l150 -163h-70l-117 112l-116 -112h-67z" />
    <glyph glyph-name="edieresis" unicode="&#xeb;" horiz-adv-x="606" 
d="M120 250q0 -42 15 -77.5t41.5 -61.5t62 -40.5t77.5 -14.5q46 0 79.5 14.5t54.5 32.5q25 21 42 47l48 -39q-21 -34 -54 -60q-29 -25 -71 -43t-103 -18q-57 0 -106 20t-84.5 55.5t-56 83.5t-20.5 104t21 104.5t57 84.5t85 56.5t106 20.5q51 0 96 -19.5t78.5 -53.5t53 -79.5
t19.5 -97.5q0 -6 -1 -13q0 -3 -1 -6h-439zM313 460q-36 0 -68 -11.5t-57 -32.5t-41.5 -50t-22.5 -63h363q-5 33 -20.5 62t-39 50t-53 33t-61.5 12zM410 704q20 0 34.5 -14t14.5 -35q0 -20 -14.5 -34.5t-34.5 -14.5q-21 0 -35 14.5t-14 34.5t14.5 34.5t34.5 14.5zM210 704
q20 0 34.5 -14t14.5 -35q0 -20 -14.5 -34.5t-34.5 -14.5q-21 0 -35 14.5t-14 34.5t14.5 34.5t34.5 14.5z" />
    <glyph glyph-name="igrave" unicode="&#xec;" horiz-adv-x="247" 
d="M150 577h-61l-99 163h81zM85 509h77v-509h-77v509z" />
    <glyph glyph-name="iacute" unicode="&#xed;" horiz-adv-x="247" 
d="M176 740h81l-99 -163h-61zM85 509h77v-509h-77v509z" />
    <glyph glyph-name="icircumflex" unicode="&#xee;" horiz-adv-x="247" 
d="M89 740h70l150 -163h-70l-117 112l-116 -112h-67zM85 509h77v-509h-77v509z" />
    <glyph glyph-name="idieresis" unicode="&#xef;" horiz-adv-x="247" 
d="M224 704q20 0 34.5 -14t14.5 -35q0 -20 -14.5 -34.5t-34.5 -14.5q-21 0 -35 14.5t-14 34.5t14.5 34.5t34.5 14.5zM24 704q20 0 34.5 -14t14.5 -35q0 -20 -14.5 -34.5t-34.5 -14.5q-21 0 -35 14.5t-14 34.5t14.5 34.5t34.5 14.5zM85 509h77v-509h-77v509z" />
    <glyph glyph-name="eth" unicode="&#xf0;" horiz-adv-x="627" 
d="M314 59q41 0 76 15t61 40.5t41 59.5t15 73t-15 73.5t-41 60t-61 40t-76 14.5t-76.5 -14.5t-61.5 -40t-41 -60t-15 -73.5t15 -73t41 -59.5t61.5 -40.5t76.5 -15zM305 497q38 0 66.5 -11t46.5 -23l-80 119l-184 -39v47l155 33l-51 77h85l39 -61l144 31v-47l-117 -25
l112 -171q30 -46 45.5 -89t15.5 -90q0 -54 -21.5 -101t-58 -82t-85.5 -55t-105 -20t-105 19.5t-85 54t-56.5 81t-20.5 101.5q0 52 20.5 98t56 80t82.5 53.5t101 19.5z" />
    <glyph glyph-name="ntilde" unicode="&#xf1;" horiz-adv-x="610" 
d="M155 0h-75v509h66l6 -98q29 55 78.5 81.5t109.5 26.5q41 0 77 -14t63.5 -43t43.5 -72.5t16 -102.5v-287h-75v263q0 50 -12 85.5t-32 58t-46.5 33t-55.5 10.5q-33 0 -62.5 -11t-52 -35t-36 -62.5t-13.5 -93.5v-248zM136 608q2 33 13 59q10 23 29 40.5t53 17.5
q32 0 51.5 -14t35.5 -30.5t31 -30.5t36 -14q16 0 25 11t14 25q5 16 7 36l49 -5q-3 -33 -14 -59q-10 -24 -29 -41.5t-54 -17.5q-30 0 -50 14t-35.5 30.5t-31 30.5t-36.5 14q-16 0 -25 -11t-14 -25q-5 -16 -7 -36z" />
    <glyph glyph-name="ograve" unicode="&#xf2;" horiz-adv-x="627" 
d="M313 59q41 0 76.5 15t61.5 41t41 62t15 78t-15 77.5t-41 61.5t-61.5 41t-76.5 15t-76.5 -15t-61.5 -41t-40.5 -61.5t-14.5 -77.5t14.5 -78t40.5 -62t61.5 -41t76.5 -15zM315 519q57 0 106 -20t84.5 -55.5t56 -83.5t20.5 -104t-21 -104.5t-57 -84.5t-85.5 -56.5
t-106.5 -20.5t-106 20t-84.5 55.5t-56 83.5t-20.5 104t21 104.5t57 84.5t85.5 56.5t106.5 20.5zM355 577h-61l-99 163h81z" />
    <glyph glyph-name="oacute" unicode="&#xf3;" horiz-adv-x="627" 
d="M313 59q41 0 76.5 15t61.5 41t41 62t15 78t-15 77.5t-41 61.5t-61.5 41t-76.5 15t-76.5 -15t-61.5 -41t-40.5 -61.5t-14.5 -77.5t14.5 -78t40.5 -62t61.5 -41t76.5 -15zM315 519q57 0 106 -20t84.5 -55.5t56 -83.5t20.5 -104t-21 -104.5t-57 -84.5t-85.5 -56.5
t-106.5 -20.5t-106 20t-84.5 55.5t-56 83.5t-20.5 104t21 104.5t57 84.5t85.5 56.5t106.5 20.5zM350 740h81l-99 -163h-61z" />
    <glyph glyph-name="ocircumflex" unicode="&#xf4;" horiz-adv-x="627" 
d="M313 59q41 0 76.5 15t61.5 41t41 62t15 78t-15 77.5t-41 61.5t-61.5 41t-76.5 15t-76.5 -15t-61.5 -41t-40.5 -61.5t-14.5 -77.5t14.5 -78t40.5 -62t61.5 -41t76.5 -15zM315 519q57 0 106 -20t84.5 -55.5t56 -83.5t20.5 -104t-21 -104.5t-57 -84.5t-85.5 -56.5
t-106.5 -20.5t-106 20t-84.5 55.5t-56 83.5t-20.5 104t21 104.5t57 84.5t85.5 56.5t106.5 20.5zM278 740h70l150 -163h-70l-117 112l-116 -112h-67z" />
    <glyph glyph-name="otilde" unicode="&#xf5;" horiz-adv-x="627" 
d="M313 59q41 0 76.5 15t61.5 41t41 62t15 78t-15 77.5t-41 61.5t-61.5 41t-76.5 15t-76.5 -15t-61.5 -41t-40.5 -61.5t-14.5 -77.5t14.5 -78t40.5 -62t61.5 -41t76.5 -15zM315 519q57 0 106 -20t84.5 -55.5t56 -83.5t20.5 -104t-21 -104.5t-57 -84.5t-85.5 -56.5
t-106.5 -20.5t-106 20t-84.5 55.5t-56 83.5t-20.5 104t21 104.5t57 84.5t85.5 56.5t106.5 20.5zM142 608q2 33 13 59q10 23 29 40.5t53 17.5q32 0 51.5 -14t35.5 -30.5t31 -30.5t36 -14q16 0 25 11t14 25q5 16 7 36l49 -5q-3 -33 -14 -59q-10 -24 -29 -41.5t-54 -17.5
q-30 0 -50 14t-35.5 30.5t-31 30.5t-36.5 14q-16 0 -25 -11t-14 -25q-5 -16 -7 -36z" />
    <glyph glyph-name="odieresis" unicode="&#xf6;" horiz-adv-x="627" 
d="M313 59q41 0 76.5 15t61.5 41t41 62t15 78t-15 77.5t-41 61.5t-61.5 41t-76.5 15t-76.5 -15t-61.5 -41t-40.5 -61.5t-14.5 -77.5t14.5 -78t40.5 -62t61.5 -41t76.5 -15zM315 519q57 0 106 -20t84.5 -55.5t56 -83.5t20.5 -104t-21 -104.5t-57 -84.5t-85.5 -56.5
t-106.5 -20.5t-106 20t-84.5 55.5t-56 83.5t-20.5 104t21 104.5t57 84.5t85.5 56.5t106.5 20.5zM413 704q20 0 34.5 -14t14.5 -35q0 -20 -14.5 -34.5t-34.5 -14.5q-21 0 -35 14.5t-14 34.5t14.5 34.5t34.5 14.5zM213 704q20 0 34.5 -14t14.5 -35q0 -20 -14.5 -34.5
t-34.5 -14.5q-21 0 -35 14.5t-14 34.5t14.5 34.5t34.5 14.5z" />
    <glyph glyph-name="divide" unicode="&#xf7;" 
d="M302 614q21 0 36 -15t15 -36t-15 -36t-36 -15t-36 15t-15 36t15 36t36 15zM50 325v64h505v-64h-505zM302 201q21 0 36 -15t15 -36t-15 -36t-36 -15t-36 15t-15 36t15 36t36 15z" />
    <glyph glyph-name="oslash" unicode="&#xf8;" horiz-adv-x="626" 
d="M199 92q23 -18 52.5 -28t61.5 -10q42 0 78 15t63 42t42 63.5t15 79.5q0 38 -12.5 71.5t-35.5 59.5zM315 519q45 0 85 -13.5t73 -36.5l63 71h61l-89 -101q35 -35 54.5 -82t19.5 -102q0 -56 -21 -104.5t-57 -84.5t-85.5 -56.5t-106.5 -20.5q-45 0 -85 13t-73 37l-63 -69
h-61l88 98q-35 35 -54 82.5t-19 101.5q0 56 21 104.5t57 84.5t85.5 57t106.5 21zM428 415q-23 18 -52.5 28t-62.5 10q-42 0 -78 -15t-62.5 -42t-41.5 -63.5t-15 -78.5q0 -39 12.5 -72.5t35.5 -59.5z" />
    <glyph glyph-name="ugrave" unicode="&#xf9;" horiz-adv-x="610" 
d="M455 509h75v-509h-66l-6 98q-29 -55 -78.5 -81.5t-109.5 -26.5q-40 0 -76.5 14t-64 43t-43.5 72.5t-16 102.5v287h75v-263q0 -50 12 -85.5t32 -58t46.5 -33t55.5 -10.5q33 0 63 11t52.5 35t35.5 62.5t13 93.5v248zM347 577h-61l-99 163h81z" />
    <glyph glyph-name="uacute" unicode="&#xfa;" horiz-adv-x="610" 
d="M336 740h81l-99 -163h-61zM455 509h75v-509h-66l-6 98q-29 -55 -78.5 -81.5t-109.5 -26.5q-40 0 -76.5 14t-64 43t-43.5 72.5t-16 102.5v287h75v-263q0 -50 12 -85.5t32 -58t46.5 -33t55.5 -10.5q33 0 63 11t52.5 35t35.5 62.5t13 93.5v248z" />
    <glyph glyph-name="ucircumflex" unicode="&#xfb;" horiz-adv-x="610" 
d="M265 740h70l150 -163h-70l-117 112l-116 -112h-67zM455 509h75v-509h-66l-6 98q-29 -55 -78.5 -81.5t-109.5 -26.5q-40 0 -76.5 14t-64 43t-43.5 72.5t-16 102.5v287h75v-263q0 -50 12 -85.5t32 -58t46.5 -33t55.5 -10.5q33 0 63 11t52.5 35t35.5 62.5t13 93.5v248z" />
    <glyph glyph-name="udieresis" unicode="&#xfc;" horiz-adv-x="610" 
d="M400 704q20 0 34.5 -14t14.5 -35q0 -20 -14.5 -34.5t-34.5 -14.5q-21 0 -35 14.5t-14 34.5t14.5 34.5t34.5 14.5zM200 704q20 0 34.5 -14t14.5 -35q0 -20 -14.5 -34.5t-34.5 -14.5q-21 0 -35 14.5t-14 34.5t14.5 34.5t34.5 14.5zM455 509h75v-509h-66l-6 98
q-29 -55 -78.5 -81.5t-109.5 -26.5q-40 0 -76.5 14t-64 43t-43.5 72.5t-16 102.5v287h75v-263q0 -50 12 -85.5t32 -58t46.5 -33t55.5 -10.5q33 0 63 11t52.5 35t35.5 62.5t13 93.5v248z" />
    <glyph glyph-name="yacute" unicode="&#xfd;" horiz-adv-x="517" 
d="M5 509h83l172 -424l172 424h80l-219 -514q-33 -78 -81.5 -121.5t-114.5 -43.5q-24 0 -41 3.5t-29 7.5q-13 5 -22 11l24 60q7 -4 17 -7q8 -3 20 -5t29 -2q79 0 126 104zM306 740h81l-99 -163h-61z" />
    <glyph glyph-name="thorn" unicode="&#xfe;" horiz-adv-x="656" 
d="M344 59q41 0 76.5 15t61 41t40 61.5t14.5 77.5t-14.5 78t-40 62t-61 41t-76.5 15t-76.5 -15t-61.5 -41t-41 -62t-15 -78t15 -77.5t41 -61.5t61.5 -41t76.5 -15zM80 700h75v-292q32 51 84.5 81t118.5 30q53 0 99 -20t80 -55.5t54 -83.5t20 -104t-20 -104.5t-55 -84.5
t-81.5 -56.5t-99.5 -20.5q-65 0 -116.5 28.5t-83.5 77.5v-256h-75v860z" />
    <glyph glyph-name="ydieresis" unicode="&#xff;" horiz-adv-x="517" 
d="M5 509h83l172 -424l172 424h80l-219 -514q-33 -78 -81.5 -121.5t-114.5 -43.5q-24 0 -41 3.5t-29 7.5q-13 5 -22 11l24 60q7 -4 17 -7q8 -3 20 -5t29 -2q79 0 126 104zM360 704q20 0 34.5 -14t14.5 -35q0 -20 -14.5 -34.5t-34.5 -14.5q-21 0 -35 14.5t-14 34.5t14.5 34.5
t34.5 14.5zM160 704q20 0 34.5 -14t14.5 -35q0 -20 -14.5 -34.5t-34.5 -14.5q-21 0 -35 14.5t-14 34.5t14.5 34.5t34.5 14.5z" />
    <glyph glyph-name="Amacron" unicode="&#x100;" horiz-adv-x="700" 
d="M200 265h295l-147 347zM690 0h-85l-86 202h-342l-86 -202h-81l301 700h78zM170 847h360v-50h-360v50z" />
    <glyph glyph-name="amacron" unicode="&#x101;" horiz-adv-x="570" 
d="M273 48q75 0 113.5 29.5t38.5 71.5t-38.5 71.5t-113.5 29.5q-69 0 -106 -29.5t-37 -71.5t37 -71.5t106 -29.5zM257 306q55 0 96 -15.5t67 -41.5v42q0 85 -42.5 125t-110.5 40q-36 0 -63 -8t-46 -17q-21 -12 -37 -26l-36 48q20 18 48 33q26 13 61 23t83 10
q103 0 160.5 -58.5t57.5 -169.5v-291h-58l-8 55q-27 -29 -71 -47t-103 -18q-47 0 -84.5 12t-63 33t-39 49.5t-13.5 61.5t14 62t40 50.5t63.5 34.5t84.5 13zM110 656h360v-50h-360v50z" />
    <glyph glyph-name="Abreve" unicode="&#x102;" horiz-adv-x="700" 
d="M200 265h295l-147 347zM690 0h-85l-86 202h-342l-86 -202h-81l301 700h78zM247 920v-8q0 -46 28.5 -74.5t75.5 -28.5t74 28.5t27 74.5v8h59v-5q0 -34 -12 -63t-33.5 -50t-51 -33t-64.5 -12t-64.5 12t-51 33t-33.5 50t-12 63v5h58z" />
    <glyph glyph-name="abreve" unicode="&#x103;" horiz-adv-x="570" 
d="M273 48q75 0 113.5 29.5t38.5 71.5t-38.5 71.5t-113.5 29.5q-69 0 -106 -29.5t-37 -71.5t37 -71.5t106 -29.5zM257 306q55 0 96 -15.5t67 -41.5v42q0 85 -42.5 125t-110.5 40q-36 0 -63 -8t-46 -17q-21 -12 -37 -26l-36 48q20 18 48 33q26 13 61 23t83 10
q103 0 160.5 -58.5t57.5 -169.5v-291h-58l-8 55q-27 -29 -71 -47t-103 -18q-47 0 -84.5 12t-63 33t-39 49.5t-13.5 61.5t14 62t40 50.5t63.5 34.5t84.5 13zM187 740v-8q0 -46 28.5 -74.5t75.5 -28.5t74 28.5t27 74.5v8h59v-5q0 -34 -12 -63t-33.5 -50t-51 -33t-64.5 -12
t-64.5 12t-51 33t-33.5 50t-12 63v5h58z" />
    <glyph glyph-name="Aogonek" unicode="&#x104;" horiz-adv-x="700" 
d="M690 0h-28q-7 -5 -13 -13q-5 -8 -9 -18.5t-4 -26.5q0 -32 24 -52t60 -20q14 0 25 2.5t19 4.5q10 4 17 8l19 -45q-9 -7 -21 -13q-12 -5 -27.5 -8.5t-36.5 -3.5q-58 0 -96.5 32t-38.5 86q0 23 7 40t17 29l-85 200h-342l-86 -202h-81l301 700h78zM200 265h295l-147 347z" />
    <glyph glyph-name="aogonek" unicode="&#x105;" horiz-adv-x="570" 
d="M257 306q55 0 96 -15.5t67 -41.5v42q0 85 -42.5 125t-110.5 40q-36 0 -63 -8t-46 -17q-21 -12 -37 -26l-36 48q20 18 48 33q26 13 61 23t83 10q103 0 160.5 -58.5t57.5 -169.5v-291h-33q-7 -5 -13 -13q-5 -8 -9 -18.5t-4 -26.5q0 -32 24 -52t60 -20q14 0 25 2.5t19 4.5
q10 4 17 8l19 -45q-9 -7 -21 -13q-12 -5 -27.5 -8.5t-36.5 -3.5q-58 0 -96.5 32t-38.5 86q0 21 6 37t14.5 27.5t17.5 19t15 11.5l-4 27q-27 -29 -71 -47t-103 -18q-47 0 -84.5 12t-63 33t-39 49.5t-13.5 61.5t14 62t40 50.5t63.5 34.5t84.5 13zM273 48q75 0 113.5 29.5
t38.5 71.5t-38.5 71.5t-113.5 29.5q-69 0 -106 -29.5t-37 -71.5t37 -71.5t106 -29.5z" />
    <glyph glyph-name="Cacute" unicode="&#x106;" horiz-adv-x="718" 
d="M55 348q0 76 28 142t77.5 115t116 77t142.5 28q63 0 111 -16.5t81 -36.5q38 -23 66 -53l-55 -49q-23 23 -53 42q-28 16 -65 28.5t-86 12.5q-61 0 -113 -22t-90 -61t-60 -91.5t-22 -113.5t22 -114t60 -92t90 -61t113 -22q52 0 91.5 14.5t66.5 32.5q32 20 55 46l52 -48
q-28 -32 -67 -58q-36 -24 -85 -41t-115 -17q-76 0 -142 27.5t-115 75.5t-76.5 113.5t-27.5 141.5zM468 920h81l-99 -163h-61z" />
    <glyph glyph-name="cacute" unicode="&#x107;" horiz-adv-x="548" 
d="M513 81q-21 -25 -50 -45q-27 -19 -63.5 -32.5t-87.5 -13.5q-57 0 -106 20t-84.5 55.5t-56 83.5t-20.5 104t21 104.5t57 84.5t85.5 56.5t106.5 20.5q48 0 84 -13t61 -28q28 -18 48 -41l-50 -50q-15 18 -36 32q-20 12 -46.5 21.5t-62.5 9.5q-41 0 -76.5 -15t-61.5 -41
t-40.5 -61.5t-14.5 -77.5t14.5 -78t40.5 -62t61.5 -41t76.5 -15q38 0 66 10.5t47 24.5q21 15 36 34zM353 740h81l-99 -163h-61z" />
    <glyph glyph-name="Ccircumflex" unicode="&#x108;" horiz-adv-x="718" 
d="M55 348q0 76 28 142t77.5 115t116 77t142.5 28q63 0 111 -16.5t81 -36.5q38 -23 66 -53l-55 -49q-23 23 -53 42q-28 16 -65 28.5t-86 12.5q-61 0 -113 -22t-90 -61t-60 -91.5t-22 -113.5t22 -114t60 -92t90 -61t113 -22q52 0 91.5 14.5t66.5 32.5q32 20 55 46l52 -48
q-28 -32 -67 -58q-36 -24 -85 -41t-115 -17q-76 0 -142 27.5t-115 75.5t-76.5 113.5t-27.5 141.5zM374 920h70l150 -163h-70l-117 112l-116 -112h-67z" />
    <glyph glyph-name="ccircumflex" unicode="&#x109;" horiz-adv-x="548" 
d="M513 81q-21 -25 -50 -45q-27 -19 -63.5 -32.5t-87.5 -13.5q-57 0 -106 20t-84.5 55.5t-56 83.5t-20.5 104t21 104.5t57 84.5t85.5 56.5t106.5 20.5q48 0 84 -13t61 -28q28 -18 48 -41l-50 -50q-15 18 -36 32q-20 12 -46.5 21.5t-62.5 9.5q-41 0 -76.5 -15t-61.5 -41
t-40.5 -61.5t-14.5 -77.5t14.5 -78t40.5 -62t61.5 -41t76.5 -15q38 0 66 10.5t47 24.5q21 15 36 34zM269 740h70l150 -163h-70l-117 112l-116 -112h-67z" />
    <glyph glyph-name="Cdotaccent" unicode="&#x10a;" horiz-adv-x="718" 
d="M55 348q0 76 28 142t77.5 115t116 77t142.5 28q63 0 111 -16.5t81 -36.5q38 -23 66 -53l-55 -49q-23 23 -53 42q-28 16 -65 28.5t-86 12.5q-61 0 -113 -22t-90 -61t-60 -91.5t-22 -113.5t22 -114t60 -92t90 -61t113 -22q52 0 91.5 14.5t66.5 32.5q32 20 55 46l52 -48
q-28 -32 -67 -58q-36 -24 -85 -41t-115 -17q-76 0 -142 27.5t-115 75.5t-76.5 113.5t-27.5 141.5zM409 884q20 0 34 -14t14 -35q0 -20 -14.5 -34.5t-34.5 -14.5t-34 14.5t-14 34.5t14 34.5t35 14.5z" />
    <glyph glyph-name="cdotaccent" unicode="&#x10b;" horiz-adv-x="548" 
d="M513 81q-21 -25 -50 -45q-27 -19 -63.5 -32.5t-87.5 -13.5q-57 0 -106 20t-84.5 55.5t-56 83.5t-20.5 104t21 104.5t57 84.5t85.5 56.5t106.5 20.5q48 0 84 -13t61 -28q28 -18 48 -41l-50 -50q-15 18 -36 32q-20 12 -46.5 21.5t-62.5 9.5q-41 0 -76.5 -15t-61.5 -41
t-40.5 -61.5t-14.5 -77.5t14.5 -78t40.5 -62t61.5 -41t76.5 -15q38 0 66 10.5t47 24.5q21 15 36 34zM304 704q20 0 34 -14t14 -35q0 -20 -14.5 -34.5t-34.5 -14.5t-34 14.5t-14 34.5t14 34.5t35 14.5z" />
    <glyph glyph-name="Ccaron" unicode="&#x10c;" horiz-adv-x="718" 
d="M55 348q0 76 28 142t77.5 115t116 77t142.5 28q63 0 111 -16.5t81 -36.5q38 -23 66 -53l-55 -49q-23 23 -53 42q-28 16 -65 28.5t-86 12.5q-61 0 -113 -22t-90 -61t-60 -91.5t-22 -113.5t22 -114t60 -92t90 -61t113 -22q52 0 91.5 14.5t66.5 32.5q32 20 55 46l52 -48
q-28 -32 -67 -58q-36 -24 -85 -41t-115 -17q-76 0 -142 27.5t-115 75.5t-76.5 113.5t-27.5 141.5zM444 757h-70l-150 163h70l117 -112l116 112h67z" />
    <glyph glyph-name="ccaron" unicode="&#x10d;" horiz-adv-x="548" 
d="M513 81q-21 -25 -50 -45q-27 -19 -63.5 -32.5t-87.5 -13.5q-57 0 -106 20t-84.5 55.5t-56 83.5t-20.5 104t21 104.5t57 84.5t85.5 56.5t106.5 20.5q48 0 84 -13t61 -28q28 -18 48 -41l-50 -50q-15 18 -36 32q-20 12 -46.5 21.5t-62.5 9.5q-41 0 -76.5 -15t-61.5 -41
t-40.5 -61.5t-14.5 -77.5t14.5 -78t40.5 -62t61.5 -41t76.5 -15q38 0 66 10.5t47 24.5q21 15 36 34zM339 577h-70l-150 163h70l117 -112l116 112h67z" />
    <glyph glyph-name="Dcaron" unicode="&#x10e;" horiz-adv-x="760" 
d="M178 67h150q65 0 120 21.5t95 60t62.5 90t22.5 111.5t-22.5 111.5t-62.5 89.5t-95 59.5t-120 21.5h-150v-565zM324 700q84 0 154 -26.5t120.5 -73.5t78.5 -110.5t28 -138.5t-28.5 -139t-79.5 -111t-121.5 -74t-154.5 -27h-221v700h224zM385 757h-70l-150 163h70l117 -112
l116 112h67z" />
    <glyph glyph-name="dcaron" unicode="&#x10f;" horiz-adv-x="772" 
d="M656 467l38 233h78l-61 -233h-55zM312 450q-41 0 -76 -15t-61 -41t-40.5 -61.5t-14.5 -77.5t14.5 -78t40.5 -62t61 -41t76 -15t76.5 15t61.5 41t41 62t15 78t-15 77.5t-41 61.5t-61.5 41t-76.5 15zM576 0h-62l-9 105q-32 -54 -86 -84.5t-121 -30.5q-52 0 -98.5 20
t-80.5 55.5t-54 83.5t-20 104t20.5 104.5t55 84.5t81.5 56.5t99 20.5q65 0 116.5 -28.5t83.5 -78.5v288h75v-700z" />
    <glyph glyph-name="Dcroat" unicode="&#x110;" horiz-adv-x="792" 
d="M210 336v-269h150q65 0 120 21.5t95 60t62.5 90t22.5 111.5t-22.5 111.5t-62.5 89.5t-95 59.5t-120 21.5h-150v-247h230v-49h-230zM132 336h-102v49h102v315h224q84 0 154 -26.5t120.5 -73.5t78.5 -110.5t28 -138.5t-28.5 -139t-79.5 -111t-121.5 -74t-154.5 -27h-221
v336z" />
    <glyph glyph-name="dcroat" unicode="&#x111;" horiz-adv-x="674" 
d="M313 450q-41 0 -76.5 -15t-61.5 -41t-40.5 -61.5t-14.5 -77.5t14.5 -78t40.5 -62t61.5 -41t76.5 -15t76 15t61 41t41 62t15 78t-15 77.5t-41 61.5t-61 41t-76 15zM576 633h78v-50h-78v-583h-62l-9 105q-32 -54 -86 -84.5t-120 -30.5q-52 0 -98.5 20t-81 55.5t-54.5 83.5
t-20 104t20.5 104.5t55.5 84.5t81.5 56.5t99.5 20.5q64 0 116 -28.5t83 -78.5v171h-166v50h166v67h75v-67z" />
    <glyph glyph-name="Emacron" unicode="&#x112;" horiz-adv-x="650" 
d="M100 0v700h485v-68h-407v-235h357v-64h-357v-266h417v-67h-495zM165 847h360v-50h-360v50z" />
    <glyph glyph-name="emacron" unicode="&#x113;" horiz-adv-x="606" 
d="M120 250q0 -42 15 -77.5t41.5 -61.5t62 -40.5t77.5 -14.5q46 0 79.5 14.5t54.5 32.5q25 21 42 47l48 -39q-21 -34 -54 -60q-29 -25 -71 -43t-103 -18q-57 0 -106 20t-84.5 55.5t-56 83.5t-20.5 104t21 104.5t57 84.5t85 56.5t106 20.5q51 0 96 -19.5t78.5 -53.5t53 -79.5
t19.5 -97.5q0 -6 -1 -13q0 -3 -1 -6h-439zM313 460q-36 0 -68 -11.5t-57 -32.5t-41.5 -50t-22.5 -63h363q-5 33 -20.5 62t-39 50t-53 33t-61.5 12zM133 656h360v-50h-360v50z" />
    <glyph glyph-name="Ebreve" unicode="&#x114;" horiz-adv-x="650" 
d="M100 0v700h485v-68h-407v-235h357v-64h-357v-266h417v-67h-495zM242 920v-8q0 -46 28.5 -74.5t75.5 -28.5t74 28.5t27 74.5v8h59v-5q0 -34 -12 -63t-33.5 -50t-51 -33t-64.5 -12t-64.5 12t-51 33t-33.5 50t-12 63v5h58z" />
    <glyph glyph-name="ebreve" unicode="&#x115;" horiz-adv-x="606" 
d="M120 250q0 -42 15 -77.5t41.5 -61.5t62 -40.5t77.5 -14.5q46 0 79.5 14.5t54.5 32.5q25 21 42 47l48 -39q-21 -34 -54 -60q-29 -25 -71 -43t-103 -18q-57 0 -106 20t-84.5 55.5t-56 83.5t-20.5 104t21 104.5t57 84.5t85 56.5t106 20.5q51 0 96 -19.5t78.5 -53.5t53 -79.5
t19.5 -97.5q0 -6 -1 -13q0 -3 -1 -6h-439zM313 460q-36 0 -68 -11.5t-57 -32.5t-41.5 -50t-22.5 -63h363q-5 33 -20.5 62t-39 50t-53 33t-61.5 12zM210 740v-8q0 -46 28.5 -74.5t75.5 -28.5t74 28.5t27 74.5v8h59v-5q0 -34 -12 -63t-33.5 -50t-51 -33t-64.5 -12t-64.5 12
t-51 33t-33.5 50t-12 63v5h58z" />
    <glyph glyph-name="Edotaccent" unicode="&#x116;" horiz-adv-x="650" 
d="M100 0v700h485v-68h-407v-235h357v-64h-357v-266h417v-67h-495zM345 884q20 0 34 -14t14 -35q0 -20 -14.5 -34.5t-34.5 -14.5t-34 14.5t-14 34.5t14 34.5t35 14.5z" />
    <glyph glyph-name="edotaccent" unicode="&#x117;" horiz-adv-x="606" 
d="M120 250q0 -42 15 -77.5t41.5 -61.5t62 -40.5t77.5 -14.5q46 0 79.5 14.5t54.5 32.5q25 21 42 47l48 -39q-21 -34 -54 -60q-29 -25 -71 -43t-103 -18q-57 0 -106 20t-84.5 55.5t-56 83.5t-20.5 104t21 104.5t57 84.5t85 56.5t106 20.5q51 0 96 -19.5t78.5 -53.5t53 -79.5
t19.5 -97.5q0 -6 -1 -13q0 -3 -1 -6h-439zM313 460q-36 0 -68 -11.5t-57 -32.5t-41.5 -50t-22.5 -63h363q-5 33 -20.5 62t-39 50t-53 33t-61.5 12zM313 704q20 0 34 -14t14 -35q0 -20 -14.5 -34.5t-34.5 -14.5t-34 14.5t-14 34.5t14 34.5t35 14.5z" />
    <glyph glyph-name="Eogonek" unicode="&#x118;" horiz-adv-x="650" 
d="M467 0q-7 -5 -13 -13q-5 -8 -9 -18.5t-4 -26.5q0 -32 24 -52t60 -20q14 0 25 2.5t19 4.5q10 4 17 8l19 -45q-9 -7 -21 -13q-12 -5 -27.5 -8.5t-36.5 -3.5q-58 0 -96.5 32t-38.5 86q0 22 6.5 38.5t15.5 28.5h-307v700h485v-68h-407v-235h357v-64h-357v-266h417v-67h-128z
" />
    <glyph glyph-name="eogonek" unicode="&#x119;" horiz-adv-x="606" 
d="M120 250q0 -42 15 -77.5t41.5 -61.5t62 -40.5t77.5 -14.5q46 0 79.5 14.5t54.5 32.5q25 21 42 47l48 -39q-15 -23 -37 -45q-20 -19 -47.5 -37t-67.5 -29q-7 -5 -13 -13q-5 -8 -9 -18.5t-4 -26.5q0 -32 24 -52t60 -20q14 0 25 2.5t19 4.5q10 4 17 8l19 -45q-9 -7 -21 -13
q-12 -5 -27.5 -8.5t-36.5 -3.5q-58 0 -96.5 32t-38.5 86q0 18 4.5 32t11.5 25h-10q-57 0 -106 20t-84.5 55.5t-56 83.5t-20.5 104t21 104.5t57 84.5t85 56.5t106 20.5q51 0 96 -19.5t78.5 -53.5t53 -79.5t19.5 -97.5q0 -6 -1 -13q0 -3 -1 -6h-439zM313 460q-36 0 -68 -11.5
t-57 -32.5t-41.5 -50t-22.5 -63h363q-5 33 -20.5 62t-39 50t-53 33t-61.5 12z" />
    <glyph glyph-name="Ecaron" unicode="&#x11a;" horiz-adv-x="650" 
d="M100 0v700h485v-68h-407v-235h357v-64h-357v-266h417v-67h-495zM380 757h-70l-150 163h70l117 -112l116 112h67z" />
    <glyph glyph-name="ecaron" unicode="&#x11b;" horiz-adv-x="606" 
d="M120 250q0 -42 15 -77.5t41.5 -61.5t62 -40.5t77.5 -14.5q46 0 79.5 14.5t54.5 32.5q25 21 42 47l48 -39q-21 -34 -54 -60q-29 -25 -71 -43t-103 -18q-57 0 -106 20t-84.5 55.5t-56 83.5t-20.5 104t21 104.5t57 84.5t85 56.5t106 20.5q51 0 96 -19.5t78.5 -53.5t53 -79.5
t19.5 -97.5q0 -6 -1 -13q0 -3 -1 -6h-439zM313 460q-36 0 -68 -11.5t-57 -32.5t-41.5 -50t-22.5 -63h363q-5 33 -20.5 62t-39 50t-53 33t-61.5 12zM348 577h-70l-150 163h70l117 -112l116 112h67z" />
    <glyph glyph-name="Gcircumflex" unicode="&#x11c;" horiz-adv-x="814" 
d="M758 350q0 -1 1 -3v-10q-1 -74 -28 -137.5t-73 -110t-108.5 -73t-133.5 -26.5q-76 0 -142 27.5t-115 76t-76.5 114t-27.5 141.5t28 142t77.5 114.5t116 76.5t142.5 28q64 0 111.5 -16t79.5 -35q38 -22 65 -51l-53 -54q-22 24 -52 43q-28 17 -65 29.5t-87 12.5
q-61 0 -113 -22t-90 -61t-60 -91.5t-22 -114.5q0 -61 22 -114t60 -92t90 -61t113 -22q50 0 94 16.5t78.5 46.5t57.5 72.5t30 93.5h-262v60h342zM382 920h70l150 -163h-70l-117 112l-116 -112h-67z" />
    <glyph glyph-name="gcircumflex" unicode="&#x11d;" horiz-adv-x="656" 
d="M312 454q-41 0 -76 -13.5t-61 -37.5t-40.5 -56.5t-14.5 -70.5t14.5 -70.5t40.5 -56.5t61 -37.5t76 -13.5t76.5 13.5t61.5 37.5t41 56.5t15 70.5t-15 70.5t-41 56.5t-61.5 37.5t-76.5 13.5zM87 -42q25 -18 56 -32q29 -12 65.5 -21.5t82.5 -9.5q103 0 156.5 55.5
t53.5 155.5v29q-31 -46 -83 -73t-118 -27q-54 0 -100.5 18.5t-81 51t-54 76.5t-19.5 95t20 95.5t54.5 77t81.5 51.5t102 19q66 0 118.5 -27t84.5 -75l8 92h62v-389q0 -66 -18.5 -119.5t-54.5 -91.5t-88.5 -58.5t-120.5 -20.5q-55 0 -99 11t-75 25q-36 16 -64 36zM293 740h70
l150 -163h-70l-117 112l-116 -112h-67z" />
    <glyph glyph-name="Gbreve" unicode="&#x11e;" horiz-adv-x="814" 
d="M758 350q0 -1 1 -3v-10q-1 -74 -28 -137.5t-73 -110t-108.5 -73t-133.5 -26.5q-76 0 -142 27.5t-115 76t-76.5 114t-27.5 141.5t28 142t77.5 114.5t116 76.5t142.5 28q64 0 111.5 -16t79.5 -35q38 -22 65 -51l-53 -54q-22 24 -52 43q-28 17 -65 29.5t-87 12.5
q-61 0 -113 -22t-90 -61t-60 -91.5t-22 -114.5q0 -61 22 -114t60 -92t90 -61t113 -22q50 0 94 16.5t78.5 46.5t57.5 72.5t30 93.5h-262v60h342zM314 920v-8q0 -46 28.5 -74.5t75.5 -28.5t74 28.5t27 74.5v8h59v-5q0 -34 -12 -63t-33.5 -50t-51 -33t-64.5 -12t-64.5 12
t-51 33t-33.5 50t-12 63v5h58z" />
    <glyph glyph-name="gbreve" unicode="&#x11f;" horiz-adv-x="656" 
d="M312 454q-41 0 -76 -13.5t-61 -37.5t-40.5 -56.5t-14.5 -70.5t14.5 -70.5t40.5 -56.5t61 -37.5t76 -13.5t76.5 13.5t61.5 37.5t41 56.5t15 70.5t-15 70.5t-41 56.5t-61.5 37.5t-76.5 13.5zM87 -42q25 -18 56 -32q29 -12 65.5 -21.5t82.5 -9.5q103 0 156.5 55.5
t53.5 155.5v29q-31 -46 -83 -73t-118 -27q-54 0 -100.5 18.5t-81 51t-54 76.5t-19.5 95t20 95.5t54.5 77t81.5 51.5t102 19q66 0 118.5 -27t84.5 -75l8 92h62v-389q0 -66 -18.5 -119.5t-54.5 -91.5t-88.5 -58.5t-120.5 -20.5q-55 0 -99 11t-75 25q-36 16 -64 36zM225 740v-8
q0 -46 28.5 -74.5t75.5 -28.5t74 28.5t27 74.5v8h59v-5q0 -34 -12 -63t-33.5 -50t-51 -33t-64.5 -12t-64.5 12t-51 33t-33.5 50t-12 63v5h58z" />
    <glyph glyph-name="Gdotaccent" unicode="&#x120;" horiz-adv-x="814" 
d="M758 350q0 -1 1 -3v-10q-1 -74 -28 -137.5t-73 -110t-108.5 -73t-133.5 -26.5q-76 0 -142 27.5t-115 76t-76.5 114t-27.5 141.5t28 142t77.5 114.5t116 76.5t142.5 28q64 0 111.5 -16t79.5 -35q38 -22 65 -51l-53 -54q-22 24 -52 43q-28 17 -65 29.5t-87 12.5
q-61 0 -113 -22t-90 -61t-60 -91.5t-22 -114.5q0 -61 22 -114t60 -92t90 -61t113 -22q50 0 94 16.5t78.5 46.5t57.5 72.5t30 93.5h-262v60h342zM417 884q20 0 34 -14t14 -35q0 -20 -14.5 -34.5t-34.5 -14.5t-34 14.5t-14 34.5t14 34.5t35 14.5z" />
    <glyph glyph-name="gdotaccent" unicode="&#x121;" horiz-adv-x="656" 
d="M312 454q-41 0 -76 -13.5t-61 -37.5t-40.5 -56.5t-14.5 -70.5t14.5 -70.5t40.5 -56.5t61 -37.5t76 -13.5t76.5 13.5t61.5 37.5t41 56.5t15 70.5t-15 70.5t-41 56.5t-61.5 37.5t-76.5 13.5zM87 -42q25 -18 56 -32q29 -12 65.5 -21.5t82.5 -9.5q103 0 156.5 55.5
t53.5 155.5v29q-31 -46 -83 -73t-118 -27q-54 0 -100.5 18.5t-81 51t-54 76.5t-19.5 95t20 95.5t54.5 77t81.5 51.5t102 19q66 0 118.5 -27t84.5 -75l8 92h62v-389q0 -66 -18.5 -119.5t-54.5 -91.5t-88.5 -58.5t-120.5 -20.5q-55 0 -99 11t-75 25q-36 16 -64 36zM328 704
q20 0 34 -14t14 -35q0 -20 -14.5 -34.5t-34.5 -14.5t-34 14.5t-14 34.5t14 34.5t35 14.5z" />
    <glyph glyph-name="Gcommaaccent" unicode="&#x122;" horiz-adv-x="814" 
d="M758 350q0 -1 1 -3v-10q-1 -74 -28 -137.5t-73 -110t-108.5 -73t-133.5 -26.5q-76 0 -142 27.5t-115 76t-76.5 114t-27.5 141.5t28 142t77.5 114.5t116 76.5t142.5 28q64 0 111.5 -16t79.5 -35q38 -22 65 -51l-53 -54q-22 24 -52 43q-28 17 -65 29.5t-87 12.5
q-61 0 -113 -22t-90 -61t-60 -91.5t-22 -114.5q0 -61 22 -114t60 -92t90 -61t113 -22q50 0 94 16.5t78.5 46.5t57.5 72.5t30 93.5h-262v60h342zM383 -49h81l-99 -163h-61z" />
    <glyph glyph-name="gcommaaccent" unicode="&#x123;" horiz-adv-x="656" 
d="M312 454q-41 0 -76 -13.5t-61 -37.5t-40.5 -56.5t-14.5 -70.5t14.5 -70.5t40.5 -56.5t61 -37.5t76 -13.5t76.5 13.5t61.5 37.5t41 56.5t15 70.5t-15 70.5t-41 56.5t-61.5 37.5t-76.5 13.5zM87 -42q25 -18 56 -32q29 -12 65.5 -21.5t82.5 -9.5q103 0 156.5 55.5
t53.5 155.5v29q-31 -46 -83 -73t-118 -27q-54 0 -100.5 18.5t-81 51t-54 76.5t-19.5 95t20 95.5t54.5 77t81.5 51.5t102 19q66 0 118.5 -27t84.5 -75l8 92h62v-389q0 -66 -18.5 -119.5t-54.5 -91.5t-88.5 -58.5t-120.5 -20.5q-55 0 -99 11t-75 25q-36 16 -64 36zM351 577
h-81l99 163h61z" />
    <glyph glyph-name="Hcircumflex" unicode="&#x124;" horiz-adv-x="770" 
d="M593 335h-415v-335h-78v700h78v-296h415v296h77v-700h-77v335zM350 920h70l150 -163h-70l-117 112l-116 -112h-67z" />
    <glyph glyph-name="hcircumflex" unicode="&#x125;" horiz-adv-x="610" 
d="M80 700h75v-287q29 54 77 80t108 26q40 0 76.5 -14t64 -43t43.5 -72.5t16 -102.5v-287h-75v263q0 50 -12 85.5t-32 58t-46.5 33t-55.5 10.5q-32 0 -62 -10.5t-52.5 -33.5t-36 -59t-13.5 -88v-259h-75v700zM270 920h70l150 -163h-70l-117 112l-116 -112h-67z" />
    <glyph glyph-name="Hbar" unicode="&#x126;" horiz-adv-x="834" 
d="M210 404h415v120h-415v-120zM132 524h-102v50h102v126h78v-126h415v126h77v-126h102v-50h-102v-524h-77v335h-415v-335h-78v524z" />
    <glyph glyph-name="hbar" unicode="&#x127;" horiz-adv-x="627" 
d="M97 583h-77v50h77v67h75v-67h166v-50h-166v-170q29 54 77.5 80t108.5 26q40 0 76 -14t63.5 -43t43.5 -72.5t16 -102.5v-287h-75v263q0 50 -12 85.5t-32 58t-46 33t-55 10.5q-33 0 -62.5 -10.5t-52.5 -33.5t-36.5 -59t-13.5 -88v-259h-75v583z" />
    <glyph glyph-name="Itilde" unicode="&#x128;" horiz-adv-x="290" 
d="M105 700h80v-700h-80v700zM-27 788q2 33 13 59q10 23 29 40.5t53 17.5q32 0 51.5 -14t35.5 -30.5t31 -30.5t36 -14q16 0 25 11t14 25q5 16 7 36l49 -5q-3 -33 -14 -59q-10 -24 -29 -41.5t-54 -17.5q-30 0 -50 14t-35.5 30.5t-31 30.5t-36.5 14q-16 0 -25 -11t-14 -25
q-5 -16 -7 -36z" />
    <glyph glyph-name="itilde" unicode="&#x129;" horiz-adv-x="247" 
d="M85 509h77v-509h-77v509zM-48 608q2 33 13 59q10 23 29 40.5t53 17.5q32 0 51.5 -14t35.5 -30.5t31 -30.5t36 -14q16 0 25 11t14 25q5 16 7 36l49 -5q-3 -33 -14 -59q-10 -24 -29 -41.5t-54 -17.5q-30 0 -50 14t-35.5 30.5t-31 30.5t-36.5 14q-16 0 -25 -11t-14 -25
q-5 -16 -7 -36z" />
    <glyph glyph-name="Imacron" unicode="&#x12a;" horiz-adv-x="290" 
d="M105 700h80v-700h-80v700zM-35 847h360v-50h-360v50z" />
    <glyph glyph-name="imacron" unicode="&#x12b;" horiz-adv-x="247" 
d="M85 509h77v-509h-77v509zM-56 656h360v-50h-360v50z" />
    <glyph glyph-name="Ibreve" unicode="&#x12c;" horiz-adv-x="290" 
d="M105 700h80v-700h-80v700zM42 920v-8q0 -46 28.5 -74.5t75.5 -28.5t74 28.5t27 74.5v8h59v-5q0 -34 -12 -63t-33.5 -50t-51 -33t-64.5 -12t-64.5 12t-51 33t-33.5 50t-12 63v5h58z" />
    <glyph glyph-name="ibreve" unicode="&#x12d;" horiz-adv-x="247" 
d="M85 509h77v-509h-77v509zM21 740v-8q0 -46 28.5 -74.5t75.5 -28.5t74 28.5t27 74.5v8h59v-5q0 -34 -12 -63t-33.5 -50t-51 -33t-64.5 -12t-64.5 12t-51 33t-33.5 50t-12 63v5h58z" />
    <glyph glyph-name="Iogonek" unicode="&#x12e;" horiz-adv-x="290" 
d="M152 0q-7 -5 -13 -13q-5 -8 -9 -18.5t-4 -26.5q0 -32 24 -52t60 -20q14 0 25 2.5t19 4.5q10 4 17 8l19 -45q-9 -7 -21 -13q-12 -5 -27.5 -8.5t-36.5 -3.5q-58 0 -96.5 32t-38.5 86q0 29 11 49.5t24 31.5v686h80v-700h-33z" />
    <glyph glyph-name="iogonek" unicode="&#x12f;" horiz-adv-x="247" 
d="M124 0q-7 -5 -13 -13q-5 -8 -9 -18.5t-4 -26.5q0 -32 24 -52t60 -20q14 0 25 2.5t19 4.5q10 4 17 8l19 -45q-9 -7 -21 -13q-12 -5 -27.5 -8.5t-36.5 -3.5q-58 0 -96.5 32t-38.5 86q0 35 14.5 56t28.5 32v488h77v-509h-38zM123 709q23 0 38.5 -15t15.5 -38t-15.5 -38.5
t-38.5 -15.5t-38 15.5t-15 38.5t15 38t38 15z" />
    <glyph glyph-name="Idotaccent" unicode="&#x130;" horiz-adv-x="290" 
d="M105 700h80v-700h-80v700zM145 884q20 0 34 -14t14 -35q0 -20 -14.5 -34.5t-34.5 -14.5t-34 14.5t-14 34.5t14 34.5t35 14.5z" />
    <glyph glyph-name="dotlessi" unicode="&#x131;" horiz-adv-x="247" 
d="M85 509h77v-509h-77v509z" />
    <glyph glyph-name="IJ" unicode="&#x132;" horiz-adv-x="754" 
d="M105 700h80v-700h-80v700zM584 700h80v-462q0 -58 -18.5 -104.5t-50.5 -78t-74.5 -48.5t-91.5 -17q-31 0 -53.5 4t-37.5 9q-17 6 -28 13l24 67q9 -6 23 -10q12 -4 28.5 -7t39.5 -3q33 0 62 11.5t50.5 33.5t34 55.5t12.5 76.5v460z" />
    <glyph glyph-name="ij" unicode="&#x133;" horiz-adv-x="494" 
d="M85 509h77v-509h-77v509zM123 709q23 0 38.5 -15t15.5 -38t-15.5 -38.5t-38.5 -15.5t-38 15.5t-15 38.5t15 38t38 15zM409 509v-508q0 -85 -43 -128t-113 -43q-15 0 -27.5 2t-21.5 5q-11 3 -20 7l14 61q7 -3 15 -5q7 -1 15.5 -2.5t18.5 -1.5q85 0 85 97v516h77zM370 709
q23 0 38.5 -15t15.5 -38t-15.5 -38.5t-38.5 -15.5t-38 15.5t-15 38.5t15 38t38 15z" />
    <glyph glyph-name="Jcircumflex" unicode="&#x134;" horiz-adv-x="464" 
d="M294 700h80v-462q0 -58 -18.5 -104.5t-50.5 -78t-74.5 -48.5t-91.5 -17q-31 0 -53.5 4t-37.5 9q-17 6 -28 13l24 67q9 -6 23 -10q12 -4 28.5 -7t39.5 -3q33 0 62 11.5t50.5 33.5t34 55.5t12.5 76.5v460zM298 920h70l150 -163h-70l-117 112l-116 -112h-67z" />
    <glyph glyph-name="jcircumflex" unicode="&#x135;" horiz-adv-x="247" 
d="M162 509v-508q0 -85 -43 -128t-113 -43q-15 0 -27.5 2t-21.5 5q-11 3 -20 7l14 61q7 -3 15 -5q7 -1 15.5 -2.5t18.5 -1.5q85 0 85 97v516h77zM89 740h70l150 -163h-70l-117 112l-116 -112h-67z" />
    <glyph glyph-name="Kcommaaccent" unicode="&#x136;" horiz-adv-x="668" 
d="M178 350v-350h-78v700h78v-330l365 330h105l-384 -337l404 -363h-105zM323 -49h81l-99 -163h-61z" />
    <glyph glyph-name="kcommaaccent" unicode="&#x137;" horiz-adv-x="552" 
d="M80 700h75v-419l274 228h103l-293 -233l313 -276h-103l-294 265v-265h-75v700zM263 -49h81l-99 -163h-61z" />
    <glyph glyph-name="Lacute" unicode="&#x139;" horiz-adv-x="590" 
d="M100 0v700h78v-631h387v-69h-465zM194 920h81l-99 -163h-61z" />
    <glyph glyph-name="lacute" unicode="&#x13a;" horiz-adv-x="247" 
d="M85 700h77v-700h-77v700zM176 920h81l-99 -163h-61z" />
    <glyph glyph-name="Lcommaaccent" unicode="&#x13b;" horiz-adv-x="590" 
d="M100 0v700h78v-631h387v-69h-465zM313 -49h81l-99 -163h-61z" />
    <glyph glyph-name="lcommaaccent" unicode="&#x13c;" horiz-adv-x="247" 
d="M85 700h77v-700h-77v700zM383 -49h81l-99 -163h-61z" />
    <glyph glyph-name="Lcaron" unicode="&#x13d;" horiz-adv-x="590" 
d="M385 467l38 233h78l-61 -233h-55zM100 0v700h78v-631h387v-69h-465z" />
    <glyph glyph-name="lcaron" unicode="&#x13e;" horiz-adv-x="358" 
d="M242 467l37 233h79l-61 -233h-55zM85 700h77v-700h-77v700z" />
    <glyph glyph-name="Ldot" unicode="&#x13f;" horiz-adv-x="590" 
d="M100 0v700h78v-631h387v-69h-465zM378 408q23 0 38.5 -16t15.5 -38q0 -23 -15.5 -38.5t-38.5 -15.5q-22 0 -37.5 15.5t-15.5 38.5q0 22 15.5 38t37.5 16z" />
    <glyph glyph-name="ldot" unicode="&#x140;" horiz-adv-x="387" 
d="M85 700h77v-700h-77v700zM303 404q23 0 38.5 -16t15.5 -38q0 -23 -15.5 -38.5t-38.5 -15.5q-22 0 -37.5 15.5t-15.5 38.5q0 22 15.5 38t37.5 16z" />
    <glyph glyph-name="Lslash" unicode="&#x141;" horiz-adv-x="622" 
d="M132 0v327l-102 -18v51l102 18v322h78v-309l272 50v-51l-272 -50v-271h387v-69h-465z" />
    <glyph glyph-name="lslash" unicode="&#x142;" horiz-adv-x="324" 
d="M118 336l-88 -20v51l88 20v313h77v-296l99 22v-51l-99 -22v-353h-77v336z" />
    <glyph glyph-name="Nacute" unicode="&#x143;" horiz-adv-x="790" 
d="M176 587v-587h-76v700h83l431 -579v579h76v-700h-76zM434 920h81l-99 -163h-61z" />
    <glyph glyph-name="nacute" unicode="&#x144;" horiz-adv-x="610" 
d="M155 0h-75v509h66l6 -98q29 55 78.5 81.5t109.5 26.5q41 0 77 -14t63.5 -43t43.5 -72.5t16 -102.5v-287h-75v263q0 50 -12 85.5t-32 58t-46.5 33t-55.5 10.5q-33 0 -62.5 -11t-52 -35t-36 -62.5t-13.5 -93.5v-248zM344 740h81l-99 -163h-61z" />
    <glyph glyph-name="Ncommaaccent" unicode="&#x145;" horiz-adv-x="790" 
d="M176 587v-587h-76v700h83l431 -579v579h76v-700h-76zM363 -49h81l-99 -163h-61z" />
    <glyph glyph-name="ncommaaccent" unicode="&#x146;" horiz-adv-x="610" 
d="M155 0h-75v509h66l6 -98q29 55 78.5 81.5t109.5 26.5q41 0 77 -14t63.5 -43t43.5 -72.5t16 -102.5v-287h-75v263q0 50 -12 85.5t-32 58t-46.5 33t-55.5 10.5q-33 0 -62.5 -11t-52 -35t-36 -62.5t-13.5 -93.5v-248zM283 -49h81l-99 -163h-61z" />
    <glyph glyph-name="Ncaron" unicode="&#x147;" horiz-adv-x="790" 
d="M176 587v-587h-76v700h83l431 -579v579h76v-700h-76zM430 757h-70l-150 163h70l117 -112l116 112h67z" />
    <glyph glyph-name="ncaron" unicode="&#x148;" horiz-adv-x="610" 
d="M155 0h-75v509h66l6 -98q29 55 78.5 81.5t109.5 26.5q41 0 77 -14t63.5 -43t43.5 -72.5t16 -102.5v-287h-75v263q0 50 -12 85.5t-32 58t-46.5 33t-55.5 10.5q-33 0 -62.5 -11t-52 -35t-36 -62.5t-13.5 -93.5v-248zM345 577h-70l-150 163h70l117 -112l116 112h67z" />
    <glyph glyph-name="Eng" unicode="&#x14a;" horiz-adv-x="790" 
d="M614 121v579h76v-675q0 -49 -13.5 -85.5t-38 -61t-57.5 -36.5t-72 -12q-24 0 -41 3t-28 7q-13 4 -22 10l20 59q7 -4 17 -7q9 -3 21 -5t28 -2q42 0 73 25.5t36 79.5l-437 586v-586h-76v700h83z" />
    <glyph glyph-name="eng" unicode="&#x14b;" horiz-adv-x="610" 
d="M80 509h66l6 -97q28 54 77 80.5t112 26.5q42 0 78.5 -14.5t63 -43t42 -72t15.5 -102.5v-285q0 -86 -43 -129t-114 -43q-12 0 -22 1.5t-16 3.5q-9 2 -15 5l10 63q5 -2 11 -3q5 -1 12 -2t16 -1q42 0 64 23t22 73v269q0 50 -11.5 86t-31 58.5t-46 33t-56.5 10.5
q-34 0 -64.5 -10.5t-52.5 -34t-35 -60t-13 -88.5v-257h-75v509z" />
    <glyph glyph-name="Omacron" unicode="&#x14c;" horiz-adv-x="835" 
d="M418 61q60 0 112.5 22t90.5 61t60 92t22 114t-22 113.5t-60 91.5t-90.5 61t-112.5 22q-61 0 -113 -22t-90 -61t-60 -91.5t-22 -113.5t22 -114t60 -92t90 -61t113 -22zM419 710q77 0 142.5 -27.5t114.5 -76t76.5 -114t27.5 -141.5t-28 -141.5t-77.5 -114.5t-115.5 -77
t-143 -28q-76 0 -142 27.5t-115 75.5t-76.5 113.5t-27.5 141.5t28 142t77.5 115t116 77t142.5 28zM237 847h360v-50h-360v50z" />
    <glyph glyph-name="omacron" unicode="&#x14d;" horiz-adv-x="627" 
d="M313 59q41 0 76.5 15t61.5 41t41 62t15 78t-15 77.5t-41 61.5t-61.5 41t-76.5 15t-76.5 -15t-61.5 -41t-40.5 -61.5t-14.5 -77.5t14.5 -78t40.5 -62t61.5 -41t76.5 -15zM315 519q57 0 106 -20t84.5 -55.5t56 -83.5t20.5 -104t-21 -104.5t-57 -84.5t-85.5 -56.5
t-106.5 -20.5t-106 20t-84.5 55.5t-56 83.5t-20.5 104t21 104.5t57 84.5t85.5 56.5t106.5 20.5zM133 656h360v-50h-360v50z" />
    <glyph glyph-name="Obreve" unicode="&#x14e;" horiz-adv-x="835" 
d="M418 61q60 0 112.5 22t90.5 61t60 92t22 114t-22 113.5t-60 91.5t-90.5 61t-112.5 22q-61 0 -113 -22t-90 -61t-60 -91.5t-22 -113.5t22 -114t60 -92t90 -61t113 -22zM419 710q77 0 142.5 -27.5t114.5 -76t76.5 -114t27.5 -141.5t-28 -141.5t-77.5 -114.5t-115.5 -77
t-143 -28q-76 0 -142 27.5t-115 75.5t-76.5 113.5t-27.5 141.5t28 142t77.5 115t116 77t142.5 28zM314 920v-8q0 -46 28.5 -74.5t75.5 -28.5t74 28.5t27 74.5v8h59v-5q0 -34 -12 -63t-33.5 -50t-51 -33t-64.5 -12t-64.5 12t-51 33t-33.5 50t-12 63v5h58z" />
    <glyph glyph-name="obreve" unicode="&#x14f;" horiz-adv-x="627" 
d="M313 59q41 0 76.5 15t61.5 41t41 62t15 78t-15 77.5t-41 61.5t-61.5 41t-76.5 15t-76.5 -15t-61.5 -41t-40.5 -61.5t-14.5 -77.5t14.5 -78t40.5 -62t61.5 -41t76.5 -15zM315 519q57 0 106 -20t84.5 -55.5t56 -83.5t20.5 -104t-21 -104.5t-57 -84.5t-85.5 -56.5
t-106.5 -20.5t-106 20t-84.5 55.5t-56 83.5t-20.5 104t21 104.5t57 84.5t85.5 56.5t106.5 20.5zM210 740v-8q0 -46 28.5 -74.5t75.5 -28.5t74 28.5t27 74.5v8h59v-5q0 -34 -12 -63t-33.5 -50t-51 -33t-64.5 -12t-64.5 12t-51 33t-33.5 50t-12 63v5h58z" />
    <glyph glyph-name="Ohungarumlaut" unicode="&#x150;" horiz-adv-x="835" 
d="M418 61q60 0 112.5 22t90.5 61t60 92t22 114t-22 113.5t-60 91.5t-90.5 61t-112.5 22q-61 0 -113 -22t-90 -61t-60 -91.5t-22 -113.5t22 -114t60 -92t90 -61t113 -22zM419 710q77 0 142.5 -27.5t114.5 -76t76.5 -114t27.5 -141.5t-28 -141.5t-77.5 -114.5t-115.5 -77
t-143 -28q-76 0 -142 27.5t-115 75.5t-76.5 113.5t-27.5 141.5t28 142t77.5 115t116 77t142.5 28zM539 920h80l-81 -163h-60zM357 920h80l-82 -163h-60z" />
    <glyph glyph-name="ohungarumlaut" unicode="&#x151;" horiz-adv-x="627" 
d="M313 59q41 0 76.5 15t61.5 41t41 62t15 78t-15 77.5t-41 61.5t-61.5 41t-76.5 15t-76.5 -15t-61.5 -41t-40.5 -61.5t-14.5 -77.5t14.5 -78t40.5 -62t61.5 -41t76.5 -15zM315 519q57 0 106 -20t84.5 -55.5t56 -83.5t20.5 -104t-21 -104.5t-57 -84.5t-85.5 -56.5
t-106.5 -20.5t-106 20t-84.5 55.5t-56 83.5t-20.5 104t21 104.5t57 84.5t85.5 56.5t106.5 20.5zM435 740h80l-81 -163h-60zM253 740h80l-82 -163h-60z" />
    <glyph glyph-name="OE" unicode="&#x152;" horiz-adv-x="1112" 
d="M562 632h-130q-65 0 -120 -21.5t-95 -59.5t-62.5 -89.5t-22.5 -111.5t22.5 -111.5t62.5 -90t95 -60t120 -21.5h130v565zM640 632v-235h357v-64h-357v-266h417v-67h-621q-84 0 -154 26.5t-120.5 73t-78.5 110t-28 138.5t28.5 139t79.5 111.5t121.5 74.5t154.5 27h608v-68
h-407z" />
    <glyph glyph-name="oe" unicode="&#x153;" horiz-adv-x="1068" 
d="M582 250q0 -42 15 -77.5t41.5 -61.5t62 -40.5t77.5 -14.5q46 0 79.5 14.5t54.5 32.5q25 21 42 47l48 -39q-21 -34 -54 -60q-29 -25 -71 -43t-103 -18q-78 0 -138.5 36.5t-92.5 97.5q-33 -61 -93.5 -97.5t-137.5 -36.5q-57 0 -106 20t-84.5 55.5t-56 83.5t-20.5 104
t21 104.5t57 84.5t85.5 56.5t106.5 20.5q78 0 138 -36.5t92 -97.5q34 60 94 97t137 37q51 0 96 -19.5t78.5 -53.5t53 -79.5t19.5 -97.5q0 -6 -1 -13q0 -3 -1 -6h-439zM313 59q41 0 76.5 15t61.5 41t41 62t15 78t-15 77.5t-41 61.5t-61.5 41t-76.5 15t-76.5 -15t-61.5 -41
t-40.5 -61.5t-14.5 -77.5t14.5 -78t40.5 -62t61.5 -41t76.5 -15zM775 460q-36 0 -68 -11.5t-57 -32.5t-41.5 -50t-22.5 -63h363q-5 33 -20.5 62t-39 50t-53 33t-61.5 12z" />
    <glyph glyph-name="Racute" unicode="&#x154;" horiz-adv-x="695" 
d="M178 634v-298h203q38 0 69 11.5t53 31.5t33.5 47t11.5 59t-11.5 59t-33.5 47t-53 31.5t-69 11.5h-203zM100 700h292q52 0 95 -16t73.5 -44.5t47.5 -67t17 -84.5q0 -39 -12.5 -72.5t-35 -60.5t-55 -46t-71.5 -27l204 -282h-92l-197 274h-188v-274h-78v700zM376 920h81
l-99 -163h-61z" />
    <glyph glyph-name="racute" unicode="&#x155;" horiz-adv-x="386" 
d="M80 509h66l6 -114q28 61 81 92.5t128 31.5l-1 -75h-13q-88 0 -140 -53t-52 -166v-225h-75v509zM262 740h81l-99 -163h-61z" />
    <glyph glyph-name="Rcommaaccent" unicode="&#x156;" horiz-adv-x="695" 
d="M178 634v-298h203q38 0 69 11.5t53 31.5t33.5 47t11.5 59t-11.5 59t-33.5 47t-53 31.5t-69 11.5h-203zM100 700h292q52 0 95 -16t73.5 -44.5t47.5 -67t17 -84.5q0 -39 -12.5 -72.5t-35 -60.5t-55 -46t-71.5 -27l204 -282h-92l-197 274h-188v-274h-78v700zM323 -49h81
l-99 -163h-61z" />
    <glyph glyph-name="rcommaaccent" unicode="&#x157;" horiz-adv-x="386" 
d="M80 509h66l6 -114q28 61 81 92.5t128 31.5l-1 -75h-13q-88 0 -140 -53t-52 -166v-225h-75v509zM74 -49h81l-99 -163h-61z" />
    <glyph glyph-name="Rcaron" unicode="&#x158;" horiz-adv-x="695" 
d="M178 634v-298h203q38 0 69 11.5t53 31.5t33.5 47t11.5 59t-11.5 59t-33.5 47t-53 31.5t-69 11.5h-203zM100 700h292q52 0 95 -16t73.5 -44.5t47.5 -67t17 -84.5q0 -39 -12.5 -72.5t-35 -60.5t-55 -46t-71.5 -27l204 -282h-92l-197 274h-188v-274h-78v700zM372 757h-70
l-150 163h70l117 -112l116 112h67z" />
    <glyph glyph-name="rcaron" unicode="&#x159;" horiz-adv-x="386" 
d="M80 509h66l6 -114q28 61 81 92.5t128 31.5l-1 -75h-13q-88 0 -140 -53t-52 -166v-225h-75v509zM238 577h-70l-150 163h70l117 -112l116 112h67z" />
    <glyph glyph-name="Sacute" unicode="&#x15a;" horiz-adv-x="570" 
d="M302 398q98 -31 155.5 -82t57.5 -131q0 -41 -16 -76.5t-46 -62t-73 -41.5t-98 -15q-62 0 -108 15t-77 33q-36 20 -62 47l49 52q22 -23 53 -40q28 -17 65.5 -29t87.5 -12q67 0 106.5 34.5t39.5 85.5q0 27 -9 49t-31 41.5t-57 37t-88 35.5q-84 28 -133.5 74.5t-49.5 115.5
q0 38 15.5 71t44.5 57.5t70.5 38.5t92.5 14q54 0 94.5 -12.5t68.5 -27.5q31 -18 54 -40l-49 -52q-18 18 -43 33q-23 13 -53 23t-70 10q-37 0 -65 -9.5t-46 -25t-27 -35t-9 -38.5q0 -46 35.5 -78.5t120.5 -59.5zM344 920h81l-99 -163h-61z" />
    <glyph glyph-name="sacute" unicode="&#x15b;" horiz-adv-x="451" 
d="M243 294q82 -22 122.5 -60.5t40.5 -92.5q0 -31 -12.5 -58.5t-36 -48t-58.5 -32.5t-80 -12t-80 10t-59 23q-29 14 -50 32l35 51q20 -16 44 -28q22 -11 49.5 -19.5t61.5 -8.5q54 0 83 24t29 56q0 16 -5 30.5t-20 28t-41 26t-68 23.5q-69 19 -108 55.5t-39 87.5
q0 27 11 51.5t33.5 44t55.5 31t76 11.5q39 0 70 -8.5t53 -18.5q25 -13 45 -28l-36 -52q-15 13 -35 24q-18 9 -41.5 16t-52.5 7q-54 0 -79.5 -22.5t-25.5 -47.5q0 -14 5 -27t18.5 -25t36 -23t58.5 -20zM274 740h81l-99 -163h-61z" />
    <glyph glyph-name="Scircumflex" unicode="&#x15c;" horiz-adv-x="570" 
d="M302 398q98 -31 155.5 -82t57.5 -131q0 -41 -16 -76.5t-46 -62t-73 -41.5t-98 -15q-62 0 -108 15t-77 33q-36 20 -62 47l49 52q22 -23 53 -40q28 -17 65.5 -29t87.5 -12q67 0 106.5 34.5t39.5 85.5q0 27 -9 49t-31 41.5t-57 37t-88 35.5q-84 28 -133.5 74.5t-49.5 115.5
q0 38 15.5 71t44.5 57.5t70.5 38.5t92.5 14q54 0 94.5 -12.5t68.5 -27.5q31 -18 54 -40l-49 -52q-18 18 -43 33q-23 13 -53 23t-70 10q-37 0 -65 -9.5t-46 -25t-27 -35t-9 -38.5q0 -46 35.5 -78.5t120.5 -59.5zM250 920h70l150 -163h-70l-117 112l-116 -112h-67z" />
    <glyph glyph-name="scircumflex" unicode="&#x15d;" horiz-adv-x="451" 
d="M243 294q82 -22 122.5 -60.5t40.5 -92.5q0 -31 -12.5 -58.5t-36 -48t-58.5 -32.5t-80 -12t-80 10t-59 23q-29 14 -50 32l35 51q20 -16 44 -28q22 -11 49.5 -19.5t61.5 -8.5q54 0 83 24t29 56q0 16 -5 30.5t-20 28t-41 26t-68 23.5q-69 19 -108 55.5t-39 87.5
q0 27 11 51.5t33.5 44t55.5 31t76 11.5q39 0 70 -8.5t53 -18.5q25 -13 45 -28l-36 -52q-15 13 -35 24q-18 9 -41.5 16t-52.5 7q-54 0 -79.5 -22.5t-25.5 -47.5q0 -14 5 -27t18.5 -25t36 -23t58.5 -20zM186 740h70l150 -163h-70l-117 112l-116 -112h-67z" />
    <glyph glyph-name="Scedilla" unicode="&#x15e;" horiz-adv-x="570" 
d="M302 398q98 -31 155.5 -82t57.5 -131q0 -37 -13.5 -70.5t-38.5 -59t-61.5 -42t-82.5 -21.5q11 -13 18.5 -30.5t7.5 -41.5q0 -28 -11.5 -49.5t-30.5 -36t-44 -22t-53 -7.5q-23 0 -41.5 4.5t-31.5 9.5q-16 7 -28 15l20 48q9 -6 22 -11q11 -4 25.5 -7.5t34.5 -3.5
q37 0 57 19t20 48q0 23 -11 39.5t-21 24.5q-54 4 -94.5 19t-67.5 32q-32 19 -55 43l49 52q22 -23 53 -40q28 -17 65.5 -29t87.5 -12q67 0 106.5 34.5t39.5 85.5q0 27 -9 49t-31 41.5t-57 37t-88 35.5q-84 28 -133.5 74.5t-49.5 115.5q0 38 15.5 71t44.5 57.5t70.5 38.5
t92.5 14q54 0 94.5 -12.5t68.5 -27.5q31 -18 54 -40l-49 -52q-18 18 -43 33q-23 13 -53 23t-70 10q-37 0 -65 -9.5t-46 -25t-27 -35t-9 -38.5q0 -46 35.5 -78.5t120.5 -59.5z" />
    <glyph glyph-name="scedilla" unicode="&#x15f;" horiz-adv-x="451" 
d="M243 294q82 -22 122.5 -60.5t40.5 -92.5q0 -56 -39 -98t-114 -51q11 -13 19 -30.5t8 -41.5q0 -28 -11.5 -49.5t-30.5 -36t-44 -22t-53 -7.5q-23 0 -41.5 4.5t-31.5 9.5q-16 7 -28 15l20 48q9 -6 22 -11q11 -4 25.5 -7.5t34.5 -3.5q37 0 57 19t20 48q0 24 -11.5 40.5
t-21.5 24.5q-37 4 -66 14t-49 21q-24 13 -41 28l35 51q20 -16 44 -28q22 -11 49.5 -19.5t61.5 -8.5q54 0 83 24t29 56q0 16 -5 30.5t-20 28t-41 26t-68 23.5q-69 19 -108 55.5t-39 87.5q0 27 11 51.5t33.5 44t55.5 31t76 11.5q39 0 70 -8.5t53 -18.5q25 -13 45 -28l-36 -52
q-15 13 -35 24q-18 9 -41.5 16t-52.5 7q-54 0 -79.5 -22.5t-25.5 -47.5q0 -14 5 -27t18.5 -25t36 -23t58.5 -20z" />
    <glyph glyph-name="Scaron" unicode="&#x160;" horiz-adv-x="570" 
d="M302 398q98 -31 155.5 -82t57.5 -131q0 -41 -16 -76.5t-46 -62t-73 -41.5t-98 -15q-62 0 -108 15t-77 33q-36 20 -62 47l49 52q22 -23 53 -40q28 -17 65.5 -29t87.5 -12q67 0 106.5 34.5t39.5 85.5q0 27 -9 49t-31 41.5t-57 37t-88 35.5q-84 28 -133.5 74.5t-49.5 115.5
q0 38 15.5 71t44.5 57.5t70.5 38.5t92.5 14q54 0 94.5 -12.5t68.5 -27.5q31 -18 54 -40l-49 -52q-18 18 -43 33q-23 13 -53 23t-70 10q-37 0 -65 -9.5t-46 -25t-27 -35t-9 -38.5q0 -46 35.5 -78.5t120.5 -59.5zM325 757h-70l-150 163h70l117 -112l116 112h67z" />
    <glyph glyph-name="scaron" unicode="&#x161;" horiz-adv-x="451" 
d="M243 294q82 -22 122.5 -60.5t40.5 -92.5q0 -31 -12.5 -58.5t-36 -48t-58.5 -32.5t-80 -12t-80 10t-59 23q-29 14 -50 32l35 51q20 -16 44 -28q22 -11 49.5 -19.5t61.5 -8.5q54 0 83 24t29 56q0 16 -5 30.5t-20 28t-41 26t-68 23.5q-69 19 -108 55.5t-39 87.5
q0 27 11 51.5t33.5 44t55.5 31t76 11.5q39 0 70 -8.5t53 -18.5q25 -13 45 -28l-36 -52q-15 13 -35 24q-18 9 -41.5 16t-52.5 7q-54 0 -79.5 -22.5t-25.5 -47.5q0 -14 5 -27t18.5 -25t36 -23t58.5 -20zM265 577h-70l-150 163h70l117 -112l116 112h67z" />
    <glyph glyph-name="Tcommaaccent" unicode="&#x162;" horiz-adv-x="590" 
d="M334 632v-632h-78v632h-231v68h540v-68h-231zM253 -49h81l-99 -163h-61z" />
    <glyph glyph-name="tcommaaccent" unicode="&#x163;" horiz-adv-x="430" 
d="M200 509h200v-60h-200v-285q0 -54 25 -79.5t68 -25.5q19 0 36 2t31 5q15 3 29 7l11 -62q-13 -6 -31 -10q-17 -5 -38.5 -8t-49.5 -3q-72 0 -114 40t-42 121v298h-105v60h105v131h75v-131zM243 -49h81l-99 -163h-61z" />
    <glyph glyph-name="Tcaron" unicode="&#x164;" horiz-adv-x="590" 
d="M334 632v-632h-78v632h-231v68h540v-68h-231zM330 757h-70l-150 163h70l117 -112l116 112h67z" />
    <glyph glyph-name="tcaron" unicode="&#x165;" horiz-adv-x="430" 
d="M290 570l38 220h79l-62 -220h-55zM200 509h200v-60h-200v-285q0 -54 25 -79.5t68 -25.5q19 0 36 2t31 5q15 3 29 7l11 -62q-13 -6 -31 -10q-17 -5 -38.5 -8t-49.5 -3q-72 0 -114 40t-42 121v298h-105v60h105v131h75v-131z" />
    <glyph glyph-name="Tbar" unicode="&#x166;" horiz-adv-x="590" 
d="M334 632v-244h204v-49h-204v-339h-78v339h-204v49h204v244h-231v68h540v-68h-231z" />
    <glyph glyph-name="tbar" unicode="&#x167;" horiz-adv-x="430" 
d="M200 509h200v-59h-200v-158h200v-50h-200v-80q0 -54 25.5 -79t68.5 -25q19 0 36 2t30 5q16 3 29 7l11 -61q-13 -6 -31 -10q-16 -5 -37.5 -8t-49.5 -3q-72 0 -114.5 40t-42.5 121v91h-105v50h105v158h-105v59h105v131h75v-131z" />
    <glyph glyph-name="Utilde" unicode="&#x168;" horiz-adv-x="740" 
d="M650 700v-416q0 -65 -21 -119t-58.5 -93t-89 -60.5t-112.5 -21.5t-112.5 21t-88.5 59.5t-57.5 92t-20.5 118.5v419h79v-419q0 -49 15 -89.5t42 -69.5t64.5 -45t81.5 -16t81 16t64 45t42 69.5t15 89.5v419h76zM198 788q2 33 13 59q10 23 29 40.5t53 17.5q32 0 51.5 -14
t35.5 -30.5t31 -30.5t36 -14q16 0 25 11t14 25q5 16 7 36l49 -5q-3 -33 -14 -59q-10 -24 -29 -41.5t-54 -17.5q-30 0 -50 14t-35.5 30.5t-31 30.5t-36.5 14q-16 0 -25 -11t-14 -25q-5 -16 -7 -36z" />
    <glyph glyph-name="utilde" unicode="&#x169;" horiz-adv-x="610" 
d="M455 509h75v-509h-66l-6 98q-29 -55 -78.5 -81.5t-109.5 -26.5q-40 0 -76.5 14t-64 43t-43.5 72.5t-16 102.5v287h75v-263q0 -50 12 -85.5t32 -58t46.5 -33t55.5 -10.5q33 0 63 11t52.5 35t35.5 62.5t13 93.5v248zM133 608q2 33 13 59q10 23 29 40.5t53 17.5
q32 0 51.5 -14t35.5 -30.5t31 -30.5t36 -14q16 0 25 11t14 25q5 16 7 36l49 -5q-3 -33 -14 -59q-10 -24 -29 -41.5t-54 -17.5q-30 0 -50 14t-35.5 30.5t-31 30.5t-36.5 14q-16 0 -25 -11t-14 -25q-5 -16 -7 -36z" />
    <glyph glyph-name="Umacron" unicode="&#x16a;" horiz-adv-x="740" 
d="M650 700v-416q0 -65 -21 -119t-58.5 -93t-89 -60.5t-112.5 -21.5t-112.5 21t-88.5 59.5t-57.5 92t-20.5 118.5v419h79v-419q0 -49 15 -89.5t42 -69.5t64.5 -45t81.5 -16t81 16t64 45t42 69.5t15 89.5v419h76zM190 847h360v-50h-360v50z" />
    <glyph glyph-name="umacron" unicode="&#x16b;" horiz-adv-x="610" 
d="M455 509h75v-509h-66l-6 98q-29 -55 -78.5 -81.5t-109.5 -26.5q-40 0 -76.5 14t-64 43t-43.5 72.5t-16 102.5v287h75v-263q0 -50 12 -85.5t32 -58t46.5 -33t55.5 -10.5q33 0 63 11t52.5 35t35.5 62.5t13 93.5v248zM125 656h360v-50h-360v50z" />
    <glyph glyph-name="Ubreve" unicode="&#x16c;" horiz-adv-x="740" 
d="M650 700v-416q0 -65 -21 -119t-58.5 -93t-89 -60.5t-112.5 -21.5t-112.5 21t-88.5 59.5t-57.5 92t-20.5 118.5v419h79v-419q0 -49 15 -89.5t42 -69.5t64.5 -45t81.5 -16t81 16t64 45t42 69.5t15 89.5v419h76zM267 920v-8q0 -46 28.5 -74.5t75.5 -28.5t74 28.5t27 74.5v8
h59v-5q0 -34 -12 -63t-33.5 -50t-51 -33t-64.5 -12t-64.5 12t-51 33t-33.5 50t-12 63v5h58z" />
    <glyph glyph-name="ubreve" unicode="&#x16d;" horiz-adv-x="610" 
d="M455 509h75v-509h-66l-6 98q-29 -55 -78.5 -81.5t-109.5 -26.5q-40 0 -76.5 14t-64 43t-43.5 72.5t-16 102.5v287h75v-263q0 -50 12 -85.5t32 -58t46.5 -33t55.5 -10.5q33 0 63 11t52.5 35t35.5 62.5t13 93.5v248zM202 740v-8q0 -46 28.5 -74.5t75.5 -28.5t74 28.5
t27 74.5v8h59v-5q0 -34 -12 -63t-33.5 -50t-51 -33t-64.5 -12t-64.5 12t-51 33t-33.5 50t-12 63v5h58z" />
    <glyph glyph-name="Uring" unicode="&#x16e;" horiz-adv-x="740" 
d="M650 700v-416q0 -65 -21 -119t-58.5 -93t-89 -60.5t-112.5 -21.5t-112.5 21t-88.5 59.5t-57.5 92t-20.5 118.5v419h79v-419q0 -49 15 -89.5t42 -69.5t64.5 -45t81.5 -16t81 16t64 45t42 69.5t15 89.5v419h76zM370 788q25 0 43 17.5t18 43.5t-18 43t-43 17q-26 0 -44 -17
t-18 -43t18 -43.5t44 -17.5zM370 950q45 0 75.5 -28.5t30.5 -72.5q0 -45 -30.5 -73.5t-75.5 -28.5t-75.5 28.5t-30.5 73.5q0 44 30.5 72.5t75.5 28.5z" />
    <glyph glyph-name="uring" unicode="&#x16f;" horiz-adv-x="610" 
d="M455 509h75v-509h-66l-6 98q-29 -55 -78.5 -81.5t-109.5 -26.5q-40 0 -76.5 14t-64 43t-43.5 72.5t-16 102.5v287h75v-263q0 -50 12 -85.5t32 -58t46.5 -33t55.5 -10.5q33 0 63 11t52.5 35t35.5 62.5t13 93.5v248zM305 608q25 0 43 17.5t18 43.5t-18 43t-43 17
q-26 0 -44 -17t-18 -43t18 -43.5t44 -17.5zM305 770q45 0 75.5 -28.5t30.5 -72.5q0 -45 -30.5 -73.5t-75.5 -28.5t-75.5 28.5t-30.5 73.5q0 44 30.5 72.5t75.5 28.5z" />
    <glyph glyph-name="Uhungarumlaut" unicode="&#x170;" horiz-adv-x="740" 
d="M650 700v-416q0 -65 -21 -119t-58.5 -93t-89 -60.5t-112.5 -21.5t-112.5 21t-88.5 59.5t-57.5 92t-20.5 118.5v419h79v-419q0 -49 15 -89.5t42 -69.5t64.5 -45t81.5 -16t81 16t64 45t42 69.5t15 89.5v419h76zM492 920h80l-81 -163h-60zM310 920h80l-82 -163h-60z" />
    <glyph glyph-name="uhungarumlaut" unicode="&#x171;" horiz-adv-x="610" 
d="M455 509h75v-509h-66l-6 98q-29 -55 -78.5 -81.5t-109.5 -26.5q-40 0 -76.5 14t-64 43t-43.5 72.5t-16 102.5v287h75v-263q0 -50 12 -85.5t32 -58t46.5 -33t55.5 -10.5q33 0 63 11t52.5 35t35.5 62.5t13 93.5v248zM427 740h80l-81 -163h-60zM245 740h80l-82 -163h-60z
" />
    <glyph glyph-name="Uogonek" unicode="&#x172;" horiz-adv-x="740" 
d="M650 700v-416q0 -55 -15.5 -102.5t-43 -84.5t-66.5 -62.5t-86 -36.5q-4 -3 -13.5 -16t-9.5 -40q0 -32 24 -52t60 -20q14 0 25 2.5t19 4.5q10 4 17 8l19 -45q-9 -7 -21 -13q-12 -5 -27.5 -8.5t-36.5 -3.5q-58 0 -96.5 32t-38.5 86q0 18 4.5 32t11.5 25h-7q-61 0 -112.5 21
t-88.5 59.5t-57.5 92t-20.5 118.5v419h79v-419q0 -49 15 -89.5t42 -69.5t64.5 -45t81.5 -16t81 16t64 45t42 69.5t15 89.5v419h76z" />
    <glyph glyph-name="uogonek" unicode="&#x173;" horiz-adv-x="610" 
d="M455 509h75v-509h-33q-7 -5 -13 -13q-5 -8 -9 -18.5t-4 -26.5q0 -32 24 -52t60 -20q14 0 25 2.5t19 4.5q10 4 17 8l19 -45q-9 -7 -21 -13q-12 -5 -27.5 -8.5t-36.5 -3.5q-58 0 -96.5 32t-38.5 86q0 38 17 60t30 31l-4 74q-29 -55 -78.5 -81.5t-109.5 -26.5
q-40 0 -76.5 14t-64 43t-43.5 72.5t-16 102.5v287h75v-263q0 -50 12 -85.5t32 -58t46.5 -33t55.5 -10.5q33 0 63 11t52.5 35t35.5 62.5t13 93.5v248z" />
    <glyph glyph-name="Wcircumflex" unicode="&#x174;" horiz-adv-x="985" 
d="M10 700h85l194 -583l178 583h56l177 -583l195 583h80l-238 -700h-70l-175 559l-173 -559h-70zM457 920h70l150 -163h-70l-117 112l-116 -112h-67z" />
    <glyph glyph-name="wcircumflex" unicode="&#x175;" horiz-adv-x="775" 
d="M5 509h82l142 -406l132 406h57l131 -405l142 405h79l-184 -509h-71l-128 387l-128 -387h-71zM352 740h70l150 -163h-70l-117 112l-116 -112h-67z" />
    <glyph glyph-name="Ycircumflex" unicode="&#x176;" horiz-adv-x="670" 
d="M297 280l-287 420h92l235 -349l236 349h87l-286 -420v-280h-77v280zM302 920h70l150 -163h-70l-117 112l-116 -112h-67z" />
    <glyph glyph-name="ycircumflex" unicode="&#x177;" horiz-adv-x="517" 
d="M5 509h83l172 -424l172 424h80l-219 -514q-33 -78 -81.5 -121.5t-114.5 -43.5q-24 0 -41 3.5t-29 7.5q-13 5 -22 11l24 60q7 -4 17 -7q8 -3 20 -5t29 -2q79 0 126 104zM225 740h70l150 -163h-70l-117 112l-116 -112h-67z" />
    <glyph glyph-name="Ydieresis" unicode="&#x178;" horiz-adv-x="670" 
d="M297 280l-287 420h92l235 -349l236 349h87l-286 -420v-280h-77v280zM437 884q20 0 34.5 -14t14.5 -35q0 -20 -14.5 -34.5t-34.5 -14.5q-21 0 -35 14.5t-14 34.5t14.5 34.5t34.5 14.5zM237 884q20 0 34.5 -14t14.5 -35q0 -20 -14.5 -34.5t-34.5 -14.5q-21 0 -35 14.5
t-14 34.5t14.5 34.5t34.5 14.5z" />
    <glyph glyph-name="Zacute" unicode="&#x179;" horiz-adv-x="660" 
d="M60 0v54l435 580h-415v66h520v-54l-435 -580h435v-66h-540zM379 920h81l-99 -163h-61z" />
    <glyph glyph-name="zacute" unicode="&#x17a;" horiz-adv-x="515" 
d="M362 443h-297v66h400v-53l-311 -390h311v-66h-415v54zM306 740h81l-99 -163h-61z" />
    <glyph glyph-name="Zdotaccent" unicode="&#x17b;" horiz-adv-x="660" 
d="M60 0v54l435 580h-415v66h520v-54l-435 -580h435v-66h-540zM340 884q20 0 34 -14t14 -35q0 -20 -14.5 -34.5t-34.5 -14.5t-34 14.5t-14 34.5t14 34.5t35 14.5z" />
    <glyph glyph-name="zdotaccent" unicode="&#x17c;" horiz-adv-x="515" 
d="M362 443h-297v66h400v-53l-311 -390h311v-66h-415v54zM268 704q20 0 34 -14t14 -35q0 -20 -14.5 -34.5t-34.5 -14.5t-34 14.5t-14 34.5t14 34.5t35 14.5z" />
    <glyph glyph-name="Zcaron" unicode="&#x17d;" horiz-adv-x="660" 
d="M60 0v54l435 580h-415v66h520v-54l-435 -580h435v-66h-540zM375 757h-70l-150 163h70l117 -112l116 112h67z" />
    <glyph glyph-name="zcaron" unicode="&#x17e;" horiz-adv-x="515" 
d="M362 443h-297v66h400v-53l-311 -390h311v-66h-415v54zM302 577h-70l-150 163h70l117 -112l116 112h67z" />
    <glyph glyph-name="florin" unicode="&#x192;" 
d="M140 -160l38 471h-133v52h137l12 146q8 98 61 149.5t138 51.5q52 0 86 -18t55 -40q23 -26 36 -59l-58 -33q-7 23 -23 41q-13 16 -35.5 28t-59.5 12q-55 0 -87.5 -33t-37.5 -94l-13 -151h214v-52h-217l-38 -471h-75z" />
    <glyph glyph-name="Aringacute" unicode="&#x1fa;" horiz-adv-x="700" 
d="M410 849q21 -13 33.5 -35t12.5 -49q0 -31 -15.5 -54.5t-40.5 -36.5l290 -674h-85l-86 202h-342l-86 -202h-81l290 674q-26 12 -41 36t-15 55q0 43 29.5 71.5t74.5 29.5l36 74h81zM200 265h295l-147 347zM350 704q25 0 43 17.5t18 43.5t-18 43t-43 17q-26 0 -44 -17
t-18 -43t18 -43.5t44 -17.5z" />
    <glyph glyph-name="aringacute" unicode="&#x1fb;" horiz-adv-x="570" 
d="M257 306q55 0 96 -15.5t67 -41.5v42q0 85 -42.5 125t-110.5 40q-36 0 -63 -8t-46 -17q-21 -12 -37 -26l-36 48q14 12 33 24q17 10 40 20t55 16q-29 29 -29 72t29.5 71.5t74.5 29.5l36 74h81l-55 -91q21 -13 33.5 -35t12.5 -49q0 -24 -9.5 -44t-26.5 -34q65 -21 100 -75.5
t35 -140.5v-291h-58l-8 55q-27 -29 -71 -47t-103 -18q-47 0 -84.5 12t-63 33t-39 49.5t-13.5 61.5t14 62t40 50.5t63.5 34.5t84.5 13zM273 48q75 0 113.5 29.5t38.5 71.5t-38.5 71.5t-113.5 29.5q-69 0 -106 -29.5t-37 -71.5t37 -71.5t106 -29.5zM290 524q25 0 43 17.5
t18 43.5t-18 43t-43 17q-26 0 -44 -17t-18 -43t18 -43.5t44 -17.5z" />
    <glyph glyph-name="AEacute" unicode="&#x1fc;" horiz-adv-x="1055" 
d="M505 265v370l-245 -370h245zM583 633v-236h357v-64h-357v-265h417v-68h-495v203h-282l-134 -203h-89l465 700h525v-67h-407zM766 920h81l-99 -163h-61z" />
    <glyph glyph-name="aeacute" unicode="&#x1fd;" horiz-adv-x="981" 
d="M257 306q54 0 94.5 -14.5t68.5 -39.5v39q0 85 -42.5 125t-109.5 40q-36 0 -63.5 -8t-45.5 -17q-22 -11 -38 -25l-36 49q20 18 49 32q25 13 60.5 22.5t83.5 9.5q70 0 119 -29t73 -86q35 53 91.5 84t127.5 31q51 0 96 -19.5t78.5 -53.5t53 -79.5t19.5 -97.5q0 -6 -1 -13
q0 -3 -1 -6h-439q0 -42 15 -77.5t41.5 -61.5t62 -40.5t77.5 -14.5q46 0 79.5 14.5t54.5 32.5q25 21 42 47l48 -39q-21 -34 -54 -60q-29 -25 -71 -43t-103 -18q-71 0 -126.5 30t-90.5 81q-20 -50 -71.5 -80.5t-136.5 -30.5q-49 0 -87.5 12t-65 33t-40.5 49.5t-14 61.5t14 62
t40 50.5t63.5 34.5t84.5 13zM273 250q-69 0 -106 -29.5t-37 -71.5t37 -71.5t106 -29.5q75 0 113.5 29.5t38.5 71.5t-38.5 71.5t-113.5 29.5zM688 460q-36 0 -68 -11.5t-57 -32.5t-41.5 -50t-22.5 -63h363q-5 33 -20.5 62t-39 50t-53 33t-61.5 12zM539 740h81l-99 -163h-61z
" />
    <glyph glyph-name="Oslashacute" unicode="&#x1fe;" horiz-adv-x="835" 
d="M245 118q35 -27 79 -42.5t94 -15.5q61 0 113 22.5t90.5 61.5t60.5 92t22 114q0 60 -20.5 111t-57.5 89zM675 607q49 -48 77 -113.5t28 -141.5t-28 -142t-77 -115t-115.5 -77t-143.5 -28q-63 0 -118.5 19t-100.5 53l-80 -92h-64l107 123q-49 48 -77 113.5t-28 142.5
q0 76 28 142t77.5 114.5t116 76.5t142.5 28q63 0 118.5 -18.5t100.5 -52.5l81 91h64zM590 583q-35 27 -79 42t-93 15q-61 0 -113 -22t-90.5 -61t-60.5 -92t-22 -115q0 -60 20.5 -111t56.5 -89zM464 920h81l-99 -163h-61z" />
    <glyph glyph-name="oslashacute" unicode="&#x1ff;" horiz-adv-x="626" 
d="M199 92q23 -18 52.5 -28t61.5 -10q42 0 78 15t63 42t42 63.5t15 79.5q0 38 -12.5 71.5t-35.5 59.5zM315 519q45 0 85 -13.5t73 -36.5l63 71h61l-89 -101q35 -35 54.5 -82t19.5 -102q0 -56 -21 -104.5t-57 -84.5t-85.5 -56.5t-106.5 -20.5q-45 0 -85 13t-73 37l-63 -69
h-61l88 98q-35 35 -54 82.5t-19 101.5q0 56 21 104.5t57 84.5t85.5 57t106.5 21zM428 415q-23 18 -52.5 28t-62.5 10q-42 0 -78 -15t-62.5 -42t-41.5 -63.5t-15 -78.5q0 -39 12.5 -72.5t35.5 -59.5zM350 740h81l-99 -163h-61z" />
    <glyph glyph-name="Scommaaccent" unicode="&#x218;" horiz-adv-x="570" 
d="M302 398q98 -31 155.5 -82t57.5 -131q0 -41 -16 -76.5t-46 -62t-73 -41.5t-98 -15q-62 0 -108 15t-77 33q-36 20 -62 47l49 52q22 -23 53 -40q28 -17 65.5 -29t87.5 -12q67 0 106.5 34.5t39.5 85.5q0 27 -9 49t-31 41.5t-57 37t-88 35.5q-84 28 -133.5 74.5t-49.5 115.5
q0 38 15.5 71t44.5 57.5t70.5 38.5t92.5 14q54 0 94.5 -12.5t68.5 -27.5q31 -18 54 -40l-49 -52q-18 18 -43 33q-23 13 -53 23t-70 10q-37 0 -65 -9.5t-46 -25t-27 -35t-9 -38.5q0 -46 35.5 -78.5t120.5 -59.5zM243 -49h81l-99 -163h-61z" />
    <glyph glyph-name="scommaaccent" unicode="&#x219;" horiz-adv-x="451" 
d="M243 294q82 -22 122.5 -60.5t40.5 -92.5q0 -31 -12.5 -58.5t-36 -48t-58.5 -32.5t-80 -12t-80 10t-59 23q-29 14 -50 32l35 51q20 -16 44 -28q22 -11 49.5 -19.5t61.5 -8.5q54 0 83 24t29 56q0 16 -5 30.5t-20 28t-41 26t-68 23.5q-69 19 -108 55.5t-39 87.5
q0 27 11 51.5t33.5 44t55.5 31t76 11.5q39 0 70 -8.5t53 -18.5q25 -13 45 -28l-36 -52q-15 13 -35 24q-18 9 -41.5 16t-52.5 7q-54 0 -79.5 -22.5t-25.5 -47.5q0 -14 5 -27t18.5 -25t36 -23t58.5 -20zM183 -49h81l-99 -163h-61z" />
    <glyph glyph-name="circumflex" unicode="&#x2c6;" horiz-adv-x="530" 
d="M230 740h70l150 -163h-70l-117 112l-116 -112h-67z" />
    <glyph glyph-name="caron" unicode="&#x2c7;" horiz-adv-x="530" 
d="M300 577h-70l-150 163h70l117 -112l116 112h67z" />
    <glyph glyph-name="breve" unicode="&#x2d8;" horiz-adv-x="452" 
d="M123 740v-8q0 -46 28.5 -74.5t75.5 -28.5t74 28.5t27 74.5v8h59v-5q0 -34 -12 -63t-33.5 -50t-51 -33t-64.5 -12t-64.5 12t-51 33t-33.5 50t-12 63v5h58z" />
    <glyph glyph-name="dotaccent" unicode="&#x2d9;" horiz-adv-x="279" 
d="M140 704q20 0 34 -14t14 -35q0 -20 -14.5 -34.5t-34.5 -14.5t-34 14.5t-14 34.5t14 34.5t35 14.5z" />
    <glyph glyph-name="ring" unicode="&#x2da;" horiz-adv-x="320" 
d="M160 608q25 0 43 17.5t18 43.5t-18 43t-43 17q-26 0 -44 -17t-18 -43t18 -43.5t44 -17.5zM160 770q45 0 75.5 -28.5t30.5 -72.5q0 -45 -30.5 -73.5t-75.5 -28.5t-75.5 28.5t-30.5 73.5q0 44 30.5 72.5t75.5 28.5z" />
    <glyph glyph-name="ogonek" unicode="&#x2db;" horiz-adv-x="345" 
d="M137 0q-7 -5 -13 -13q-5 -8 -9 -18.5t-4 -26.5q0 -32 24 -52t60 -20q14 0 25 2.5t19 4.5q10 4 17 8l19 -45q-9 -7 -21 -13q-12 -5 -27.5 -8.5t-36.5 -3.5q-58 0 -96.5 32t-38.5 86q0 26 9.5 45t20.5 31q13 14 30 23z" />
    <glyph glyph-name="tilde" unicode="&#x2dc;" horiz-adv-x="467" 
d="M62 608q2 33 13 59q10 23 29 40.5t53 17.5q32 0 51.5 -14t35.5 -30.5t31 -30.5t36 -14q16 0 25 11t14 25q5 16 7 36l49 -5q-3 -33 -14 -59q-10 -24 -29 -41.5t-54 -17.5q-30 0 -50 14t-35.5 30.5t-31 30.5t-36.5 14q-16 0 -25 -11t-14 -25q-5 -16 -7 -36z" />
    <glyph glyph-name="hungarumlaut" unicode="&#x2dd;" horiz-adv-x="570" 
d="M367 740h80l-81 -163h-60zM185 740h80l-82 -163h-60z" />
    <glyph glyph-name="Delta" unicode="&#x394;" horiz-adv-x="710" 
d="M117 69h472l-236 545zM317 700h77l306 -700h-690z" />
    <glyph glyph-name="Delta" unicode="&#x2206;" horiz-adv-x="710" 
d="M117 69h472l-236 545zM317 700h77l306 -700h-690z" />
    <glyph glyph-name="pi" unicode="&#x3c0;" horiz-adv-x="690" 
d="M20 509h640v-61h-155v-310q0 -43 20 -61.5t52 -18.5q16 0 28.5 2t21.5 4q11 3 19 6l14 -59q-9 -6 -23 -10q-12 -5 -30 -8t-43 -3q-61 0 -97.5 33.5t-36.5 102.5v322h-220v-448h-75v448h-115v61z" />
    <glyph glyph-name="Wgrave" unicode="&#x1e80;" horiz-adv-x="985" 
d="M10 700h85l194 -583l178 583h56l177 -583l195 583h80l-238 -700h-70l-175 559l-173 -559h-70zM522 757h-61l-99 163h81z" />
    <glyph glyph-name="wgrave" unicode="&#x1e81;" horiz-adv-x="775" 
d="M5 509h82l142 -406l132 406h57l131 -405l142 405h79l-184 -509h-71l-128 387l-128 -387h-71zM417 577h-61l-99 163h81z" />
    <glyph glyph-name="Wacute" unicode="&#x1e82;" horiz-adv-x="985" 
d="M10 700h85l194 -583l178 583h56l177 -583l195 583h80l-238 -700h-70l-175 559l-173 -559h-70zM551 920h81l-99 -163h-61z" />
    <glyph glyph-name="wacute" unicode="&#x1e83;" horiz-adv-x="775" 
d="M5 509h82l142 -406l132 406h57l131 -405l142 405h79l-184 -509h-71l-128 387l-128 -387h-71zM446 740h81l-99 -163h-61z" />
    <glyph glyph-name="Wdieresis" unicode="&#x1e84;" horiz-adv-x="985" 
d="M10 700h85l194 -583l178 583h56l177 -583l195 583h80l-238 -700h-70l-175 559l-173 -559h-70zM592 884q20 0 34.5 -14t14.5 -35q0 -20 -14.5 -34.5t-34.5 -14.5q-21 0 -35 14.5t-14 34.5t14.5 34.5t34.5 14.5zM392 884q20 0 34.5 -14t14.5 -35q0 -20 -14.5 -34.5
t-34.5 -14.5q-21 0 -35 14.5t-14 34.5t14.5 34.5t34.5 14.5z" />
    <glyph glyph-name="wdieresis" unicode="&#x1e85;" horiz-adv-x="775" 
d="M5 509h82l142 -406l132 406h57l131 -405l142 405h79l-184 -509h-71l-128 387l-128 -387h-71zM487 704q20 0 34.5 -14t14.5 -35q0 -20 -14.5 -34.5t-34.5 -14.5q-21 0 -35 14.5t-14 34.5t14.5 34.5t34.5 14.5zM287 704q20 0 34.5 -14t14.5 -35q0 -20 -14.5 -34.5
t-34.5 -14.5q-21 0 -35 14.5t-14 34.5t14.5 34.5t34.5 14.5z" />
    <glyph glyph-name="uni1E9E" unicode="&#x1e9e;" horiz-adv-x="715" 
d="M452 436q47 -5 86 -23.5t67 -48t44 -67t16 -81.5q0 -48 -18.5 -89.5t-52 -71.5t-79.5 -47.5t-100 -17.5q-23 0 -40.5 1.5t-29.5 3.5q-14 3 -24 6l14 65q9 -3 20 -4q10 -2 22.5 -3.5t29.5 -1.5q40 0 73.5 12.5t57.5 34t37 51t13 63.5t-13 63.5t-37 51.5t-57.5 34.5
t-73.5 12.5h-44v48l161 159q-8 8 -21.5 17t-32.5 17.5t-44 14t-56 5.5q-44 0 -81 -16t-64 -45t-42 -70.5t-15 -91.5v-418h-78v413q0 66 21 120.5t58.5 94t89.5 61t113 21.5q60 0 106 -16.5t78 -35.5q37 -24 64 -53z" />
    <glyph glyph-name="Ygrave" unicode="&#x1ef2;" horiz-adv-x="670" 
d="M297 280l-287 420h92l235 -349l236 349h87l-286 -420v-280h-77v280zM375 757h-61l-99 163h81z" />
    <glyph glyph-name="ygrave" unicode="&#x1ef3;" horiz-adv-x="517" 
d="M5 509h83l172 -424l172 424h80l-219 -514q-33 -78 -81.5 -121.5t-114.5 -43.5q-24 0 -41 3.5t-29 7.5q-13 5 -22 11l24 60q7 -4 17 -7q8 -3 20 -5t29 -2q79 0 126 104zM298 577h-61l-99 163h81z" />
    <glyph glyph-name="endash" unicode="&#x2013;" horiz-adv-x="570" 
d="M50 324v66h470v-66h-470z" />
    <glyph glyph-name="emdash" unicode="&#x2014;" horiz-adv-x="900" 
d="M50 324v66h800v-66h-800z" />
    <glyph glyph-name="quoteleft" unicode="&#x2018;" horiz-adv-x="187" 
d="M147 700l-26 -240h-81l46 240h61z" />
    <glyph glyph-name="quoteright" unicode="&#x2019;" horiz-adv-x="187" 
d="M40 460l26 240h81l-46 -240h-61z" />
    <glyph glyph-name="quotesinglbase" unicode="&#x201a;" horiz-adv-x="187" 
d="M40 -130l26 240h81l-46 -240h-61z" />
    <glyph glyph-name="quotedblleft" unicode="&#x201c;" horiz-adv-x="349" 
d="M147 700l-26 -240h-81l46 240h61zM309 700l-26 -240h-81l46 240h61z" />
    <glyph glyph-name="quotedblright" unicode="&#x201d;" horiz-adv-x="349" 
d="M40 460l26 240h81l-46 -240h-61zM202 460l26 240h81l-46 -240h-61z" />
    <glyph glyph-name="quotedblbase" unicode="&#x201e;" horiz-adv-x="349" 
d="M40 -130l26 240h81l-46 -240h-61zM202 -130l26 240h81l-46 -240h-61z" />
    <glyph glyph-name="dagger" unicode="&#x2020;" horiz-adv-x="405" 
d="M233 510v-250h-60v250h-133v54h133v136h60v-136h132v-54h-132z" />
    <glyph glyph-name="daggerdbl" unicode="&#x2021;" horiz-adv-x="405" 
d="M233 510v-170h132v-54h-132v-136h-60v136h-133v54h133v170h-133v54h133v136h60v-136h132v-54h-132z" />
    <glyph glyph-name="bullet" unicode="&#x2022;" horiz-adv-x="333" 
d="M167 456q46 0 76 -30t30 -76q0 -45 -31 -75.5t-77 -30.5q-45 0 -75 30t-30 75q0 46 30.5 76.5t76.5 30.5z" />
    <glyph glyph-name="perthousand" unicode="&#x2030;" horiz-adv-x="1120" 
d="M106 465q0 -41 26 -67.5t65 -26.5t64.5 26.5t25.5 67.5t-25.5 67t-64.5 26t-65 -26t-26 -67zM50 464q0 32 11.5 58.5t31 46t46.5 30.5t58 11q32 0 58.5 -11t46.5 -30t31 -45.5t11 -58.5q0 -31 -11.5 -58t-31 -46.5t-46.5 -30.5t-58 -11t-58 11t-47 30.5t-31 46t-11 57.5z
M832 136q0 -41 26 -67t65 -26t64.5 26t25.5 67t-25.5 67t-64.5 26t-65 -26t-26 -67zM776 136q0 32 11.5 58.5t31 46t46.5 30.5t58 11q32 0 58.5 -11t46.5 -30.5t31 -46t11 -58.5q0 -31 -11.5 -58t-31 -46.5t-46.5 -30.5t-58 -11t-58 11t-47 30.5t-31 46.5t-11 58zM562 600
h60l-414 -600h-60zM426 136q0 32 11.5 58.5t31 46t46.5 30.5t58 11q32 0 58.5 -11t46.5 -30.5t31 -46t11 -58.5q0 -31 -11.5 -58t-31 -46.5t-46.5 -30.5t-58 -11t-58 11t-47 30.5t-31 46.5t-11 58zM482 136q0 -41 26 -67t65 -26t64.5 26t25.5 67t-25.5 67t-64.5 26t-65 -26
t-26 -67z" />
    <glyph glyph-name="guilsinglleft" unicode="&#x2039;" horiz-adv-x="433" 
d="M135 351l223 -208l-42 -45l-266 237v30l266 238l42 -43z" />
    <glyph glyph-name="guilsinglright" unicode="&#x203a;" horiz-adv-x="433" 
d="M298 349l-223 208l42 45l266 -237v-30l-266 -238l-42 43z" />
    <glyph glyph-name="fraction" unicode="&#x2044;" horiz-adv-x="190" 
d="M322 700h58l-511 -700h-59z" />
    <glyph glyph-name="zerosuperior" unicode="&#x2070;" horiz-adv-x="386" 
d="M107 416q0 -42 23 -66t63 -24t62.5 24t22.5 66v148q0 42 -22.5 66t-62.5 24t-63 -24t-23 -66v-148zM50 559q0 69 40.5 108t103.5 39t102.5 -38t39.5 -107v-140q0 -69 -40.5 -108t-103.5 -39t-102.5 37.5t-39.5 106.5v141z" />
    <glyph glyph-name="foursuperior" unicode="&#x2074;" horiz-adv-x="376" 
d="M226 432v198l-146 -198h146zM224 700h56v-268h66v-46h-66v-106h-54v106h-196v48z" />
    <glyph glyph-name="fivesuperior" unicode="&#x2075;" horiz-adv-x="366" 
d="M56 700h249v-50h-197v-126q13 12 32 20.5t47 8.5q30 0 55.5 -10.5t44 -28.5t29 -42.5t10.5 -52.5q0 -31 -11.5 -57.5t-32 -46t-48.5 -30.5t-61 -11q-34 0 -58.5 10t-41.5 22q-19 14 -33 32l41 33q9 -13 22 -22q12 -10 29 -16.5t41 -6.5q42 0 69 25.5t27 65.5
q0 37 -25.5 61.5t-66.5 24.5q-21 0 -35 -6t-23 -13t-13 -13l-4 -6h-46v235z" />
    <glyph glyph-name="sixsuperior" unicode="&#x2076;" horiz-adv-x="381" 
d="M40 414q0 30 9 55t25 48l125 183h64l-111 -157q10 5 21.5 7.5t27.5 2.5q29 0 54.5 -10.5t44.5 -28.5t30 -42.5t11 -53.5q0 -31 -12 -57.5t-32.5 -45.5t-48 -30t-59.5 -11q-31 0 -58 10.5t-47.5 29.5t-32 44.5t-11.5 55.5zM190 506q-42 0 -67.5 -26t-25.5 -64t25.5 -64
t67.5 -26t67.5 26t25.5 64t-25.5 64t-67.5 26z" />
    <glyph glyph-name="sevensuperior" unicode="&#x2077;" horiz-adv-x="345" 
d="M247 649h-212v51h275v-41l-188 -379h-60z" />
    <glyph glyph-name="eightsuperior" unicode="&#x2078;" horiz-adv-x="381" 
d="M190 524q35 0 56 20t21 47q0 28 -21 48t-56 20t-56 -20t-21 -48q0 -27 21 -47t56 -20zM192 706q28 0 52 -8.5t41.5 -23.5t27.5 -35t10 -44q0 -29 -16 -52.5t-42 -37.5q34 -15 55 -42.5t21 -62.5q0 -27 -11.5 -50t-32 -40t-48.5 -26.5t-60 -9.5t-59 9.5t-47 26t-31.5 39.5
t-11.5 50q0 35 20 63t55 42q-26 14 -42 37.5t-16 52.5q0 24 10.5 44.5t28.5 35.5t42.5 23.5t53.5 8.5zM190 321q43 0 68.5 24t25.5 56q0 34 -25.5 57.5t-68.5 23.5t-68 -24t-25 -57q0 -32 25 -56t68 -24z" />
    <glyph glyph-name="ninesuperior" unicode="&#x2079;" horiz-adv-x="381" 
d="M341 566q0 -30 -9 -55t-25 -48l-125 -183h-64l111 157q-10 -5 -21.5 -7.5t-27.5 -2.5q-29 0 -54.5 10.5t-44.5 28.5t-30 42.5t-11 53.5q0 31 12 57.5t32.5 45.5t48 30t59.5 11q31 0 58 -10.5t47.5 -29.5t32 -44.5t11.5 -55.5zM191 474q42 0 67.5 26t25.5 64t-25.5 64
t-67.5 26t-67.5 -26t-25.5 -64t25.5 -64t67.5 -26z" />
    <glyph glyph-name="zeroinferior" unicode="&#x2080;" horiz-adv-x="386" 
d="M107 136q0 -42 23 -66t63 -24t62.5 24t22.5 66v148q0 42 -22.5 66t-62.5 24t-63 -24t-23 -66v-148zM50 279q0 69 40.5 108t103.5 39t102.5 -38t39.5 -107v-140q0 -69 -40.5 -108t-103.5 -39t-102.5 37.5t-39.5 106.5v141z" />
    <glyph glyph-name="oneinferior" unicode="&#x2081;" horiz-adv-x="279" 
d="M172 420h47v-420h-57v348l-101 -71l-31 39z" />
    <glyph glyph-name="twoinferior" unicode="&#x2082;" horiz-adv-x="353" 
d="M200 198q32 32 44 55.5t12 49.5q0 29 -22.5 50t-55.5 21q-25 0 -42.5 -9t-28.5 -19q-13 -13 -21 -29l-46 25q12 24 32 42q18 17 44 29.5t65 12.5q29 0 53 -9t41.5 -24.5t27.5 -37.5t10 -48q0 -38 -17 -69.5t-55 -68.5l-122 -119h191v-50h-268v43z" />
    <glyph glyph-name="threeinferior" unicode="&#x2083;" horiz-adv-x="344" 
d="M154 242q39 0 60 19t21 48q0 30 -21 48.5t-59 18.5q-22 0 -36.5 -6t-23.5 -13q-11 -9 -17 -20l-43 24q11 18 29 33q15 13 38 22.5t56 9.5q60 0 97 -30.5t37 -78.5q0 -32 -17 -57t-46 -40q34 -15 54.5 -42.5t20.5 -63.5q0 -26 -11 -48t-31 -38t-47.5 -25t-59.5 -9
q-35 0 -60.5 10.5t-42.5 23.5q-19 15 -32 34l43 27q9 -13 22 -22q12 -10 28.5 -16.5t41.5 -6.5q42 0 67 21.5t25 53.5t-25 54.5t-70 22.5h-40v46h42z" />
    <glyph glyph-name="fourinferior" unicode="&#x2084;" horiz-adv-x="376" 
d="M226 152v198l-146 -198h146zM224 420h56v-268h66v-46h-66v-106h-54v106h-196v48z" />
    <glyph glyph-name="fiveinferior" unicode="&#x2085;" horiz-adv-x="366" 
d="M56 420h249v-50h-197v-126q13 12 32 20.5t47 8.5q30 0 55.5 -10.5t44 -28.5t29 -42.5t10.5 -52.5q0 -31 -11.5 -57.5t-32 -46t-48.5 -30.5t-61 -11q-34 0 -58.5 10t-41.5 22q-19 14 -33 32l41 33q9 -13 22 -22q12 -10 29 -16.5t41 -6.5q42 0 69 25.5t27 65.5
q0 37 -25.5 61.5t-66.5 24.5q-21 0 -35 -6t-23 -13t-13 -13l-4 -6h-46v235z" />
    <glyph glyph-name="sixinferior" unicode="&#x2086;" horiz-adv-x="381" 
d="M40 134q0 30 9 55t25 48l125 183h64l-111 -157q10 5 21.5 7.5t27.5 2.5q29 0 54.5 -10.5t44.5 -28.5t30 -42.5t11 -53.5q0 -31 -12 -57.5t-32.5 -45.5t-48 -30t-59.5 -11q-31 0 -58 10.5t-47.5 29.5t-32 44.5t-11.5 55.5zM190 226q-42 0 -67.5 -26t-25.5 -64t25.5 -64
t67.5 -26t67.5 26t25.5 64t-25.5 64t-67.5 26z" />
    <glyph glyph-name="seveninferior" unicode="&#x2087;" horiz-adv-x="345" 
d="M247 369h-212v51h275v-41l-188 -379h-60z" />
    <glyph glyph-name="eightinferior" unicode="&#x2088;" horiz-adv-x="381" 
d="M190 244q35 0 56 20t21 47q0 28 -21 48t-56 20t-56 -20t-21 -48q0 -27 21 -47t56 -20zM192 426q28 0 52 -8.5t41.5 -23.5t27.5 -35t10 -44q0 -29 -16 -52.5t-42 -37.5q34 -15 55 -42.5t21 -62.5q0 -27 -11.5 -50t-32 -40t-48.5 -26.5t-60 -9.5t-59 9.5t-47 26t-31.5 39.5
t-11.5 50q0 35 20 63t55 42q-26 14 -42 37.5t-16 52.5q0 24 10.5 44.5t28.5 35.5t42.5 23.5t53.5 8.5zM190 41q43 0 68.5 24t25.5 56q0 34 -25.5 57.5t-68.5 23.5t-68 -24t-25 -57q0 -32 25 -56t68 -24z" />
    <glyph glyph-name="nineinferior" unicode="&#x2089;" horiz-adv-x="381" 
d="M341 286q0 -30 -9 -55t-25 -48l-125 -183h-64l111 157q-10 -5 -21.5 -7.5t-27.5 -2.5q-29 0 -54.5 10.5t-44.5 28.5t-30 42.5t-11 53.5q0 31 12 57.5t32.5 45.5t48 30t59.5 11q31 0 58 -10.5t47.5 -29.5t32 -44.5t11.5 -55.5zM191 194q42 0 67.5 26t25.5 64t-25.5 64
t-67.5 26t-67.5 -26t-25.5 -64t25.5 -64t67.5 -26z" />
    <glyph glyph-name="Euro" unicode="&#x20ac;" 
d="M214 253v-27q0 -75 43 -118.5t113 -43.5q41 0 67.5 12t42.5 27q19 17 29 39l61 -30q-14 -32 -41 -58q-24 -24 -61.5 -41t-97.5 -17q-51 0 -93 15.5t-72.5 45.5t-47.5 73.5t-17 98.5v24h-95v47h95v112h-95v47h95v20q0 56 17.5 100t48.5 74.5t73.5 46.5t93.5 16
q60 0 97.5 -17.5t60.5 -39.5q26 -25 39 -57l-61 -32q-10 22 -28 39q-17 16 -43 27.5t-68 11.5q-70 0 -113 -43.5t-43 -118.5v-27h276v-47h-276v-112h256v-47h-256z" />
    <glyph glyph-name="trademark" unicode="&#x2122;" horiz-adv-x="776" 
d="M439 614v-229h-53v315h56l110 -195l111 195h53v-315h-53v228l-99 -173h-26zM217 653v-268h-53v268h-104v47h260v-47h-103z" />
    <glyph glyph-name="minus" unicode="&#x2212;" 
d="M50 324v66h505v-66h-505z" />
    <glyph glyph-name="fi" unicode="&#xfb01;" horiz-adv-x="662" 
d="M200 479h195v-60h-195v-419h-75v419h-105v60h105v53q0 88 45.5 133t124.5 45q28 0 48.5 -3t34.5 -7q16 -4 27 -10l-11 -60q-10 4 -23 8q-12 3 -27.5 5.5t-35.5 2.5q-50 0 -79 -29t-29 -88v-50zM500 509h77v-509h-77v509zM538 709q23 0 38.5 -15t15.5 -38t-15.5 -38.5
t-38.5 -15.5t-38 15.5t-15 38.5t15 38t38 15z" />
    <glyph glyph-name="fl" unicode="&#xfb02;" horiz-adv-x="662" 
d="M200 479h195v-60h-195v-419h-75v419h-105v60h105v53q0 88 45.5 133t124.5 45q28 0 48.5 -3t34.5 -7q16 -4 27 -10l-11 -60q-10 4 -23 8q-12 3 -27.5 5.5t-35.5 2.5q-50 0 -79 -29t-29 -88v-50zM500 700h77v-700h-77v700z" />
    <glyph glyph-name="Euro.lnum" 
d="M214 253v-27q0 -75 43 -118.5t113 -43.5q41 0 67.5 12t42.5 27q19 17 29 39l61 -30q-14 -32 -41 -58q-24 -24 -61.5 -41t-97.5 -17q-51 0 -93 15.5t-72.5 45.5t-47.5 73.5t-17 98.5v24h-95v47h95v112h-95v47h95v20q0 56 17.5 100t48.5 74.5t73.5 46.5t93.5 16
q60 0 97.5 -17.5t60.5 -39.5q26 -25 39 -57l-61 -32q-10 22 -28 39q-17 16 -43 27.5t-68 11.5q-70 0 -113 -43.5t-43 -118.5v-27h276v-47h-276v-112h256v-47h-256z" />
    <glyph glyph-name="Euro.onum" horiz-adv-x="575" 
d="M202 223v-16q0 -72 41 -112.5t107 -40.5q40 0 64.5 12t39.5 26q17 17 25 38l61 -27q-13 -32 -38 -56q-23 -24 -59.5 -40.5t-94.5 -16.5q-48 0 -88 15t-69 43.5t-45 69.5t-16 94v11h-95v46h95v102h-95v46h95v8q0 53 16.5 94.5t46 70.5t70 44.5t88.5 15.5q58 0 94.5 -17.5
t57.5 -38.5q25 -25 37 -56l-61 -28q-8 21 -25 38q-15 16 -39.5 27t-64.5 11q-66 0 -107 -41t-41 -113v-15h258v-46h-258v-102h238v-46h-238z" />
    <glyph glyph-name="Eurosuperior" horiz-adv-x="392" 
d="M152 423v-12q0 -41 23 -64t63 -23q23 0 38 6.5t24 15.5q10 9 15 21l47 -23q-9 -20 -26 -35q-15 -14 -38.5 -24.5t-59.5 -10.5q-63 0 -102.5 35.5t-39.5 104.5v9h-56v37h56v60h-56v36h56v8q0 68 40.5 105t103.5 37q36 0 59.5 -10.5t37.5 -23.5q16 -15 25 -34l-47 -25
q-5 12 -15 21q-9 9 -24 15t-38 6q-40 0 -63 -22.5t-23 -64.5v-12h163v-36h-163v-60h151v-37h-151z" />
    <glyph glyph-name="G.ss01" horiz-adv-x="775" 
d="M416 -10q-76 0 -142 27.5t-115 75.5t-76.5 113.5t-27.5 141.5t28 142t77.5 115t116 77t142.5 28q64 0 111.5 -16t79.5 -35q38 -22 65 -51l-53 -54q-22 24 -52 42q-28 17 -65 29.5t-87 12.5q-61 0 -113 -22t-90 -60.5t-60 -91.5t-22 -115q0 -61 22 -114t60 -92t90 -61
t113 -22q58 0 100 14t69 32q32 20 54 45v139h-226v60h300v-229q-29 -37 -73 -65q-39 -27 -94 -46.5t-132 -19.5z" />
    <glyph glyph-name="Gbreve.ss01" horiz-adv-x="775" 
d="M416 -10q-76 0 -142 27.5t-115 75.5t-76.5 113.5t-27.5 141.5t28 142t77.5 115t116 77t142.5 28q64 0 111.5 -16t79.5 -35q38 -22 65 -51l-53 -54q-22 24 -52 42q-28 17 -65 29.5t-87 12.5q-61 0 -113 -22t-90 -60.5t-60 -91.5t-22 -115q0 -61 22 -114t60 -92t90 -61
t113 -22q58 0 100 14t69 32q32 20 54 45v139h-226v60h300v-229q-29 -37 -73 -65q-39 -27 -94 -46.5t-132 -19.5zM314 920v-8q0 -46 28.5 -74.5t75.5 -28.5t74 28.5t27 74.5v8h59v-5q0 -34 -12 -63t-33.5 -50t-51 -33t-64.5 -12t-64.5 12t-51 33t-33.5 50t-12 63v5h58z" />
    <glyph glyph-name="Gcircumflex.ss01" horiz-adv-x="775" 
d="M416 -10q-76 0 -142 27.5t-115 75.5t-76.5 113.5t-27.5 141.5t28 142t77.5 115t116 77t142.5 28q64 0 111.5 -16t79.5 -35q38 -22 65 -51l-53 -54q-22 24 -52 42q-28 17 -65 29.5t-87 12.5q-61 0 -113 -22t-90 -60.5t-60 -91.5t-22 -115q0 -61 22 -114t60 -92t90 -61
t113 -22q58 0 100 14t69 32q32 20 54 45v139h-226v60h300v-229q-29 -37 -73 -65q-39 -27 -94 -46.5t-132 -19.5zM382 920h70l150 -163h-70l-117 112l-116 -112h-67z" />
    <glyph glyph-name="Gcommaaccent.ss01" horiz-adv-x="775" 
d="M416 -10q-76 0 -142 27.5t-115 75.5t-76.5 113.5t-27.5 141.5t28 142t77.5 115t116 77t142.5 28q64 0 111.5 -16t79.5 -35q38 -22 65 -51l-53 -54q-22 24 -52 42q-28 17 -65 29.5t-87 12.5q-61 0 -113 -22t-90 -60.5t-60 -91.5t-22 -115q0 -61 22 -114t60 -92t90 -61
t113 -22q58 0 100 14t69 32q32 20 54 45v139h-226v60h300v-229q-29 -37 -73 -65q-39 -27 -94 -46.5t-132 -19.5zM383 -49h81l-99 -163h-61z" />
    <glyph glyph-name="Gdotaccent.ss01" horiz-adv-x="775" 
d="M416 -10q-76 0 -142 27.5t-115 75.5t-76.5 113.5t-27.5 141.5t28 142t77.5 115t116 77t142.5 28q64 0 111.5 -16t79.5 -35q38 -22 65 -51l-53 -54q-22 24 -52 42q-28 17 -65 29.5t-87 12.5q-61 0 -113 -22t-90 -60.5t-60 -91.5t-22 -115q0 -61 22 -114t60 -92t90 -61
t113 -22q58 0 100 14t69 32q32 20 54 45v139h-226v60h300v-229q-29 -37 -73 -65q-39 -27 -94 -46.5t-132 -19.5zM417 884q20 0 34 -14t14 -35q0 -20 -14.5 -34.5t-34.5 -14.5t-34 14.5t-14 34.5t14 34.5t35 14.5z" />
    <glyph glyph-name="K.ss01" horiz-adv-x="705" 
d="M305 344l-127 -117v-227h-78v700h78v-386l407 386h100l-325 -307l345 -393h-99z" />
    <glyph glyph-name="Kcommaaccent.ss01" horiz-adv-x="705" 
d="M305 344l-127 -117v-227h-78v700h78v-386l407 386h100l-325 -307l345 -393h-99zM343 -49h81l-99 -163h-61z" />
    <glyph glyph-name="Sarcasm" horiz-adv-x="569" 
d="M363 204l-52 17l120 489l88 -28zM230 46q0 22 16 37.5t38 15.5q23 0 38.5 -15.5t15.5 -37.5q0 -23 -15.5 -38.5t-38.5 -15.5q-22 0 -38 15.5t-16 38.5zM50 682l88 28l119 -489l-52 -17z" />
    <glyph glyph-name="a.ss01" horiz-adv-x="656" 
d="M312 450q-41 0 -76 -15t-61 -41t-40.5 -61.5t-14.5 -77.5t14.5 -78t40.5 -62t61 -41t76 -15t76.5 15t61.5 41t41 62t15 78t-15 77.5t-41 61.5t-61.5 41t-76.5 15zM576 0h-62l-9 105q-32 -54 -86 -84.5t-121 -30.5q-52 0 -98.5 20t-80.5 55.5t-54 83.5t-20 104t20.5 104.5
t55 84.5t81.5 56.5t99 20.5q66 0 119 -30t85 -82l9 102h62v-509z" />
    <glyph glyph-name="aacute.ss01" horiz-adv-x="656" 
d="M312 450q-41 0 -76 -15t-61 -41t-40.5 -61.5t-14.5 -77.5t14.5 -78t40.5 -62t61 -41t76 -15t76.5 15t61.5 41t41 62t15 78t-15 77.5t-41 61.5t-61.5 41t-76.5 15zM576 0h-62l-9 105q-32 -54 -86 -84.5t-121 -30.5q-52 0 -98.5 20t-80.5 55.5t-54 83.5t-20 104t20.5 104.5
t55 84.5t81.5 56.5t99 20.5q66 0 119 -30t85 -82l9 102h62v-509zM346 577h-61l-99 163h81z" />
    <glyph glyph-name="abreve.ss01" horiz-adv-x="656" 
d="M312 450q-41 0 -76 -15t-61 -41t-40.5 -61.5t-14.5 -77.5t14.5 -78t40.5 -62t61 -41t76 -15t76.5 15t61.5 41t41 62t15 78t-15 77.5t-41 61.5t-61.5 41t-76.5 15zM576 0h-62l-9 105q-32 -54 -86 -84.5t-121 -30.5q-52 0 -98.5 20t-80.5 55.5t-54 83.5t-20 104t20.5 104.5
t55 84.5t81.5 56.5t99 20.5q66 0 119 -30t85 -82l9 102h62v-509zM217 740v-8q0 -46 28.5 -74.5t75.5 -28.5t74 28.5t27 74.5v8h59v-5q0 -34 -12 -63t-33.5 -50t-51 -33t-64.5 -12t-64.5 12t-51 33t-33.5 50t-12 63v5h58z" />
    <glyph glyph-name="acircumflex.ss01" horiz-adv-x="656" 
d="M312 450q-41 0 -76 -15t-61 -41t-40.5 -61.5t-14.5 -77.5t14.5 -78t40.5 -62t61 -41t76 -15t76.5 15t61.5 41t41 62t15 78t-15 77.5t-41 61.5t-61.5 41t-76.5 15zM576 0h-62l-9 105q-32 -54 -86 -84.5t-121 -30.5q-52 0 -98.5 20t-80.5 55.5t-54 83.5t-20 104t20.5 104.5
t55 84.5t81.5 56.5t99 20.5q66 0 119 -30t85 -82l9 102h62v-509zM282 740h70l150 -163h-70l-117 112l-116 -112h-67z" />
    <glyph glyph-name="adieresis.ss01" horiz-adv-x="656" 
d="M312 450q-41 0 -76 -15t-61 -41t-40.5 -61.5t-14.5 -77.5t14.5 -78t40.5 -62t61 -41t76 -15t76.5 15t61.5 41t41 62t15 78t-15 77.5t-41 61.5t-61.5 41t-76.5 15zM576 0h-62l-9 105q-32 -54 -86 -84.5t-121 -30.5q-52 0 -98.5 20t-80.5 55.5t-54 83.5t-20 104t20.5 104.5
t55 84.5t81.5 56.5t99 20.5q66 0 119 -30t85 -82l9 102h62v-509zM417 704q20 0 34.5 -14t14.5 -35q0 -20 -14.5 -34.5t-34.5 -14.5q-21 0 -35 14.5t-14 34.5t14.5 34.5t34.5 14.5zM217 704q20 0 34.5 -14t14.5 -35q0 -20 -14.5 -34.5t-34.5 -14.5q-21 0 -35 14.5t-14 34.5
t14.5 34.5t34.5 14.5z" />
    <glyph glyph-name="agrave.ss01" horiz-adv-x="656" 
d="M312 450q-41 0 -76 -15t-61 -41t-40.5 -61.5t-14.5 -77.5t14.5 -78t40.5 -62t61 -41t76 -15t76.5 15t61.5 41t41 62t15 78t-15 77.5t-41 61.5t-61.5 41t-76.5 15zM576 0h-62l-9 105q-32 -54 -86 -84.5t-121 -30.5q-52 0 -98.5 20t-80.5 55.5t-54 83.5t-20 104t20.5 104.5
t55 84.5t81.5 56.5t99 20.5q66 0 119 -30t85 -82l9 102h62v-509zM356 740h81l-99 -163h-61z" />
    <glyph glyph-name="amacron.ss01" horiz-adv-x="656" 
d="M312 450q-41 0 -76 -15t-61 -41t-40.5 -61.5t-14.5 -77.5t14.5 -78t40.5 -62t61 -41t76 -15t76.5 15t61.5 41t41 62t15 78t-15 77.5t-41 61.5t-61.5 41t-76.5 15zM576 0h-62l-9 105q-32 -54 -86 -84.5t-121 -30.5q-52 0 -98.5 20t-80.5 55.5t-54 83.5t-20 104t20.5 104.5
t55 84.5t81.5 56.5t99 20.5q66 0 119 -30t85 -82l9 102h62v-509zM140 656h360v-50h-360v50z" />
    <glyph glyph-name="aogonek.ss01" horiz-adv-x="656" 
d="M576 0h-33q-7 -5 -13 -13q-5 -8 -9 -18.5t-4 -26.5q0 -32 24 -52t60 -20q14 0 25 2.5t19 4.5q10 4 17 8l19 -45q-9 -7 -21 -13q-12 -5 -27.5 -8.5t-36.5 -3.5q-58 0 -96.5 32t-38.5 86q0 20 5.5 35.5t13 27t16.5 19t15 11.5l-6 79q-32 -54 -86 -84.5t-121 -30.5
q-52 0 -98.5 20t-80.5 55.5t-54 83.5t-20 104t20.5 104.5t55 84.5t81.5 56.5t99 20.5q66 0 119 -30t85 -82l9 102h62v-509zM312 450q-41 0 -76 -15t-61 -41t-40.5 -61.5t-14.5 -77.5t14.5 -78t40.5 -62t61 -41t76 -15t76.5 15t61.5 41t41 62t15 78t-15 77.5t-41 61.5
t-61.5 41t-76.5 15z" />
    <glyph glyph-name="aring.ss01" horiz-adv-x="656" 
d="M312 450q-41 0 -76 -15t-61 -41t-40.5 -61.5t-14.5 -77.5t14.5 -78t40.5 -62t61 -41t76 -15t76.5 15t61.5 41t41 62t15 78t-15 77.5t-41 61.5t-61.5 41t-76.5 15zM576 0h-62l-9 105q-32 -54 -86 -84.5t-121 -30.5q-52 0 -98.5 20t-80.5 55.5t-54 83.5t-20 104t20.5 104.5
t55 84.5t81.5 56.5t99 20.5q66 0 119 -30t85 -82l9 102h62v-509zM322 608q25 0 43 17.5t18 43.5t-18 43t-43 17q-26 0 -44 -17t-18 -43t18 -43.5t44 -17.5zM322 770q45 0 75.5 -28.5t30.5 -72.5q0 -45 -30.5 -73.5t-75.5 -28.5t-75.5 28.5t-30.5 73.5q0 44 30.5 72.5
t75.5 28.5z" />
    <glyph glyph-name="aringacute.ss01" horiz-adv-x="656" 
d="M576 0h-62l-9 105q-32 -54 -86 -84.5t-121 -30.5q-52 0 -98.5 20t-80.5 55.5t-54 83.5t-20 104q0 49 16 92.5t43.5 78t65.5 58t82 32.5q-28 28 -28 71t29.5 71.5t74.5 29.5l36 74h81l-55 -91q21 -13 33.5 -35t12.5 -49t-11.5 -48t-31.5 -35q70 -28 112 -95l9 102h62v-509
zM312 450q-41 0 -76 -15t-61 -41t-40.5 -61.5t-14.5 -77.5t14.5 -78t40.5 -62t61 -41t76 -15t76.5 15t61.5 41t41 62t15 78t-15 77.5t-41 61.5t-61.5 41t-76.5 15zM330 524q25 0 43 17.5t18 43.5t-18 43t-43 17q-26 0 -44 -17t-18 -43t18 -43.5t44 -17.5z" />
    <glyph glyph-name="atilde.ss01" horiz-adv-x="656" 
d="M312 450q-41 0 -76 -15t-61 -41t-40.5 -61.5t-14.5 -77.5t14.5 -78t40.5 -62t61 -41t76 -15t76.5 15t61.5 41t41 62t15 78t-15 77.5t-41 61.5t-61.5 41t-76.5 15zM576 0h-62l-9 105q-32 -54 -86 -84.5t-121 -30.5q-52 0 -98.5 20t-80.5 55.5t-54 83.5t-20 104t20.5 104.5
t55 84.5t81.5 56.5t99 20.5q66 0 119 -30t85 -82l9 102h62v-509zM151 608q2 33 13 59q10 23 29 40.5t53 17.5q32 0 51.5 -14t35.5 -30.5t31 -30.5t36 -14q16 0 25 11t14 25q5 16 7 36l49 -5q-3 -33 -14 -59q-10 -24 -29 -41.5t-54 -17.5q-30 0 -50 14t-35.5 30.5t-31 30.5
t-36.5 14q-16 0 -25 -11t-14 -25q-5 -16 -7 -36z" />
    <glyph glyph-name="cent.lnum" 
d="M306 164q-55 6 -100.5 28t-78.5 57.5t-51 82.5t-18 102q0 54 18.5 101t51.5 83t78.5 59t99.5 29v94h52v-92q45 -2 79 -14.5t58 -27.5q27 -17 47 -38l-50 -50q-17 18 -39 32q-21 12 -48 21.5t-64 9.5q-45 0 -83.5 -15t-66 -42.5t-43 -65.5t-15.5 -83t15.5 -82.5t43 -65
t66 -42.5t83.5 -15q39 0 68 10t49 23q22 14 38 32l51 -47q-20 -22 -48 -40q-25 -17 -59.5 -30t-81.5 -15v-92h-52v93z" />
    <glyph glyph-name="cent.onum" horiz-adv-x="524" 
d="M268 144q-48 6 -89 27t-70.5 54.5t-46.5 76.5t-17 92t17 92t47 76.5t70.5 55.5t88.5 28v94h52v-92q43 -2 75 -14t53 -26q24 -17 41 -37l-49 -47q-13 16 -33 29q-18 12 -43 20.5t-60 8.5q-39 0 -73 -14.5t-58.5 -39.5t-39 -59t-14.5 -74q0 -39 14.5 -73.5t39 -59.5
t58.5 -39.5t73 -14.5q38 0 64.5 10t43.5 23q19 14 32 32l50 -45q-17 -22 -42 -40q-22 -17 -54 -30t-78 -15v-92h-52v93z" />
    <glyph glyph-name="centsuperior" horiz-adv-x="350" 
d="M180 391q-30 4 -56 17t-44.5 33.5t-29 47t-10.5 57.5q0 30 10.5 57t29.5 48t44.5 34.5t55.5 17.5v57h40v-56q26 -2 45.5 -9.5t33.5 -15.5q16 -11 27 -23l-35 -36q-9 10 -22 17q-11 7 -26.5 12t-36.5 5q-48 0 -78.5 -30t-30.5 -77q0 -46 30.5 -76t78.5 -30q22 0 38 6
t27 13q13 8 22 18l37 -35q-11 -13 -28 -24q-14 -10 -34 -18.5t-48 -10.5v-55h-40v56z" />
    <glyph glyph-name="dollar.lnum" 
d="M279 337q-78 34 -125 83t-47 115q0 35 13 65t36.5 52.5t56 37t71.5 17.5v93h52v-93q48 -5 82 -22t56 -36q25 -23 41 -50l-56 -38q-14 23 -36 42q-19 16 -46.5 28.5t-65.5 12.5q-61 0 -94.5 -31t-33.5 -72q0 -48 36 -81.5t109 -65.5q84 -36 135.5 -87.5t51.5 -127.5
q0 -38 -13 -70t-37 -56t-57 -39.5t-72 -20.5v-93h-52v92q-57 3 -96 23.5t-65 44.5q-29 27 -48 61l57 38q17 -29 42 -51q23 -21 55 -36t77 -15q60 0 96.5 32t36.5 82q0 53 -37 91t-123 75z" />
    <glyph glyph-name="dollar.onum" horiz-adv-x="500" 
d="M233 303q-75 31 -121.5 77t-46.5 107q0 33 12.5 60.5t34.5 48.5t53 34.5t67 16.5v93h52v-93q45 -4 77 -20t53 -34q24 -20 40 -45l-54 -36q-14 21 -35 38q-18 15 -44 26t-63 11q-59 0 -89.5 -28t-30.5 -64q0 -45 32.5 -74.5t101.5 -57.5q41 -17 74.5 -37t57.5 -44
t37.5 -53t13.5 -64t-13 -64.5t-35.5 -52t-54 -37t-68.5 -18.5v-93h-52v92q-53 3 -90 22t-61 40q-28 25 -46 56l55 35q17 -26 41 -46q21 -19 51.5 -32.5t72.5 -13.5q58 0 92 29t34 74q0 48 -33.5 80.5t-114.5 66.5z" />
    <glyph glyph-name="dollarsuperior" horiz-adv-x="345" 
d="M157 478q-48 20 -77.5 51.5t-29.5 71.5q0 41 30 69.5t78 33.5v56h39v-56q29 -4 49 -14.5t34 -22.5q15 -13 25 -29l-44 -29q-8 13 -20 24q-11 9 -26.5 16t-37.5 7q-35 0 -52 -16t-17 -36q0 -24 18.5 -44t62.5 -39q53 -23 84.5 -55.5t31.5 -78.5q0 -45 -30.5 -74.5
t-77.5 -36.5v-56h-39v55q-34 3 -58 15.5t-40 26.5q-18 16 -30 36l45 29q10 -17 25 -29q13 -13 31 -21.5t44 -8.5q34 0 53 16.5t19 42.5q0 29 -19 51t-71 45z" />
    <glyph glyph-name="eight.lnum" 
d="M303 400q30 0 55.5 9.5t44.5 26t29.5 39t10.5 48.5t-10.5 48t-29.5 38.5t-44.5 26t-55.5 9.5t-56 -9.5t-44.5 -26t-29 -38.5t-10.5 -48t10.5 -48.5t29 -39t44.5 -26t56 -9.5zM304 710q46 0 84.5 -13.5t67 -38t44.5 -58t16 -72.5q0 -51 -28 -91t-76 -63q60 -22 96.5 -68
t36.5 -108q0 -45 -18.5 -83.5t-51.5 -66t-77.5 -43t-96.5 -15.5t-96 15t-76 42t-50.5 65t-18.5 83q0 61 36.5 107.5t96.5 69.5q-48 22 -76 62t-28 91q0 39 16.5 73t45.5 59t68 39t85 14zM303 55q36 0 66.5 10.5t53 29.5t35 45.5t12.5 58.5t-12.5 58.5t-35 45.5t-53 30
t-66.5 11t-66.5 -11t-53 -30t-35.5 -45.5t-13 -58.5t13 -58.5t35.5 -45.5t53 -29.5t66.5 -10.5z" />
    <glyph glyph-name="eight.onum" horiz-adv-x="565" 
d="M283 369q29 0 53 8.5t41.5 23.5t27 35t9.5 43t-9.5 42.5t-27 34.5t-41.5 23.5t-53 8.5t-53 -8.5t-41.5 -23.5t-27 -34.5t-9.5 -42.5t9.5 -43t27 -35t41.5 -23.5t53 -8.5zM284 650q44 0 81.5 -12.5t64.5 -34.5t42 -52.5t15 -66.5q0 -45 -26 -82t-70 -58q57 -20 90.5 -62
t33.5 -99q0 -42 -17.5 -77.5t-49 -61t-74 -40t-93.5 -14.5q-50 0 -92.5 14t-73 39t-48 60t-17.5 77q0 56 34 98.5t91 63.5q-45 20 -70.5 56.5t-25.5 82.5q0 36 15.5 67t43 53.5t65 35.5t81.5 13zM283 52q35 0 64 10t50 27t33 41.5t12 52.5q0 29 -12 53t-33 41.5t-50 27.5
t-64 10t-64 -10t-50 -27.5t-33 -41.5t-12 -53q0 -28 12 -52.5t33 -41.5t50 -27t64 -10z" />
    <glyph glyph-name="five.lnum" 
d="M95 700h410v-65h-342v-234q21 19 56 36.5t89 17.5q50 0 92.5 -17.5t73.5 -47.5t48.5 -71t17.5 -88q0 -51 -19 -95.5t-52.5 -76.5t-80 -50.5t-100.5 -18.5t-95 16t-68 36q-33 23 -56 52l55 41q18 -21 42 -38q22 -16 52 -27t70 -11q39 0 71.5 13t56 35.5t36.5 53.5t13 68
q0 34 -13 63t-35.5 50.5t-53.5 34t-68 12.5q-36 0 -62 -10.5t-43 -23.5t-25.5 -24l-8.5 -11h-61v380z" />
    <glyph glyph-name="five.onum" horiz-adv-x="542" 
d="M77 640h380v-64h-314v-204q19 18 50.5 33.5t80.5 15.5q47 0 87 -15.5t69 -43t45.5 -65.5t16.5 -82q0 -49 -18 -90.5t-50 -71.5t-75.5 -46.5t-93.5 -16.5q-53 0 -91.5 16t-63.5 36q-30 23 -50 52l55 38q15 -22 37 -38q20 -16 47.5 -27.5t65.5 -11.5q35 0 65 11.5t52 32
t34 49.5t12 63q0 32 -12 59.5t-33 47t-49.5 30.5t-62.5 11q-35 0 -58.5 -10.5t-38.5 -23.5q-17 -15 -28 -34h-59v349z" />
    <glyph glyph-name="florin.lnum" 
d="M140 -160l38 471h-133v52h137l12 146q8 99 60.5 150t138.5 51q52 0 86 -18t55 -40q23 -26 36 -59l-58 -33q-7 23 -23 41q-13 16 -35.5 28t-59.5 12q-56 0 -88 -33t-37 -94l-13 -151h214v-52h-217l-38 -471h-75z" />
    <glyph glyph-name="florin.onum" horiz-adv-x="575" 
d="M132 -160l35 417h-132v52h136l13 142q8 97 59 148t130 51q51 0 83.5 -18t51.5 -39q21 -26 32 -58l-58 -32q-5 22 -19 40q-12 16 -33 27.5t-56 11.5q-50 0 -80.5 -32.5t-35.5 -94.5l-13 -146h207v-52h-211l-36 -417h-73z" />
    <glyph glyph-name="florinsuperior" horiz-adv-x="378" 
d="M86 184l22 279h-78v40h81l7 82q5 60 38 90.5t87 30.5q32 0 53 -11t34 -24q14 -15 23 -35l-45 -25q-5 12 -14 22q-8 8 -20.5 14.5t-30.5 6.5q-29 0 -47 -17t-21 -50l-7 -84h125v-40h-128l-22 -279h-57z" />
    <glyph glyph-name="four.lnum" 
d="M385 246v358l-272 -358h272zM383 700h74v-454h100v-61h-100v-185h-72v185h-338v62z" />
    <glyph glyph-name="four.onum" horiz-adv-x="565" 
d="M356 216v332l-254 -332h254zM355 640h72v-424h100v-57h-100v-159h-71v159h-319v59z" />
    <glyph glyph-name="k.ss01" horiz-adv-x="590" 
d="M270 257l-115 -90v-167h-75v700h75v-450l320 259h105l-255 -206l265 -303h-97z" />
    <glyph glyph-name="kcommaaccent.ss01" horiz-adv-x="590" 
d="M270 257l-115 -90v-167h-75v700h75v-450l320 259h105l-255 -206l265 -303h-97zM283 -49h81l-99 -163h-61z" />
    <glyph glyph-name="nine.lnum" 
d="M302 641q-36 0 -66.5 -12.5t-53 -35t-35 -53t-12.5 -66.5t12.5 -66.5t35 -53t53 -35t66.5 -12.5t67 12.5t53.5 35t35 53t12.5 66.5t-12.5 66.5t-35 53t-53.5 35t-67 12.5zM280 0h-87l193 273q-16 -11 -40 -19.5t-59 -8.5q-47 0 -88.5 17t-72 47.5t-48.5 72t-18 89.5
q0 51 19 95t52 76t77.5 50t95.5 18t95 -17.5t76.5 -49t51 -74.5t18.5 -94q0 -48 -15 -90t-41 -80z" />
    <glyph glyph-name="nine.onum" horiz-adv-x="565" 
d="M282 582q-34 0 -63 -11t-50.5 -31.5t-33.5 -48.5t-12 -62t12 -62t33.5 -48t50.5 -31.5t63 -11.5t63 11.5t50.5 31.5t33.5 48t12 62t-12 62t-33.5 48.5t-50.5 31.5t-63 11zM260 0h-84l181 238q-16 -9 -38 -16t-53 -7q-45 0 -84 15.5t-68.5 43.5t-46.5 67t-17 85
q0 49 18.5 90t50 71t74.5 46.5t91 16.5t90 -16.5t73.5 -45.5t49.5 -69.5t18 -88.5q0 -45 -15.5 -84.5t-43.5 -77.5z" />
    <glyph glyph-name="numbersign.lnum" 
d="M212 262h150l30 176h-150zM354 213h-150l-37 -213h-55l37 213h-109v49h117l30 176h-107v49h116l36 213h55l-36 -213h150l36 213h55l-36 -213h109v-49h-118l-30 -176h108v-49h-116l-37 -213h-55z" />
    <glyph glyph-name="numbersign.onum" horiz-adv-x="595" 
d="M206 202h150l33 156h-150zM345 153h-150l-32 -153h-55l32 153h-105v49h116l33 156h-109v49h120l33 153h55l-33 -153h150l33 153h55l-33 -153h105v-49h-116l-33 -156h109v-49h-120l-32 -153h-55z" />
    <glyph glyph-name="numbersignsuperior" horiz-adv-x="385" 
d="M145 442h79l16 96h-79zM217 403h-79l-21 -123h-42l21 123h-61v39h68l16 96h-60v39h67l21 123h42l-21 -123h79l21 123h42l-21 -123h61v-39h-68l-16 -96h60v-39h-67l-21 -123h-42z" />
    <glyph glyph-name="one.lnum" 
d="M89 0v63h211v544l-187 -128l-38 51l240 170h60v-637h181v-63h-467z" />
    <glyph glyph-name="one.onum" horiz-adv-x="430" 
d="M262 640h58v-640h-73v548l-183 -126l-39 51z" />
    <glyph glyph-name="percent.lnum" horiz-adv-x="850" 
d="M522 156q0 -49 31 -80.5t79 -31.5t79 31.5t31 80.5q0 48 -31 80t-79 32t-79 -32t-31 -80zM464 155q0 36 13 66t36 52.5t53.5 35t66.5 12.5t66.5 -12.5t53 -34t35 -51.5t12.5 -66t-13 -66.5t-36 -53t-53.5 -35t-66.5 -12.5t-66.5 12.5t-53 34.5t-35 52t-12.5 66zM637 700
h61l-485 -700h-61zM50 543q0 36 13 66.5t36 53t53.5 35t66.5 12.5t66 -12.5t52.5 -34.5t35 -52t12.5 -66t-13 -66.5t-35.5 -53t-53 -35t-66.5 -12.5t-66.5 12.5t-53 34.5t-35 52t-12.5 66zM108 544q0 -48 31 -80t79 -32q47 0 78.5 32t31.5 80t-31.5 80t-78.5 32
q-48 0 -79 -32t-31 -80z" />
    <glyph glyph-name="percent.onum" horiz-adv-x="770" 
d="M50 425q0 31 11.5 57.5t31 46t46.5 30.5t58 11t57 -11t45.5 -30t30.5 -45t11 -57t-11.5 -57.5t-31 -46t-46 -30.5t-57.5 -11t-57.5 11t-46 30t-30.5 45t-11 57zM106 426q0 -40 25.5 -66t64.5 -26q38 0 63.5 26t25.5 66t-25.5 66t-63.5 26q-39 0 -64.5 -26t-25.5 -66z
M428 133q0 31 11.5 57t31 45.5t46.5 30.5t58 11t57.5 -10.5t46 -29.5t30.5 -45t11 -57t-11.5 -57.5t-31 -46t-46.5 -30.5t-58 -11t-57.5 10.5t-46 29.5t-30.5 45.5t-11 57.5zM484 134q0 -41 26 -66.5t64 -25.5q39 0 64.5 25.5t25.5 66.5q0 40 -25.5 65.5t-64.5 25.5
q-38 0 -64 -25.5t-26 -65.5zM562 560h60l-414 -560h-60z" />
    <glyph glyph-name="percentsuperior" horiz-adv-x="535" 
d="M391 700h47l-293 -420h-47zM40 605q0 44 30 72.5t73 28.5q44 0 73.5 -28t29.5 -72q0 -43 -30.5 -71t-73.5 -28t-72.5 27.5t-29.5 70.5zM290 373q0 43 30 72t73 29q44 0 73 -28t29 -72q0 -43 -30 -71.5t-73 -28.5t-72.5 28t-29.5 71zM85 606q0 -26 17.5 -42t40.5 -16
t41 16t18 42t-18 42.5t-41 16.5t-40.5 -16.5t-17.5 -42.5zM334 374q0 -26 17.5 -42.5t41.5 -16.5q23 0 40.5 16.5t17.5 42.5t-17.5 42.5t-40.5 16.5q-24 0 -41.5 -16.5t-17.5 -42.5z" />
    <glyph glyph-name="perthousand.lnum" horiz-adv-x="1242" 
d="M1025 268q-48 0 -79 -32t-31 -80q0 -49 31 -80.5t79 -31.5q47 0 78.5 31.5t31.5 80.5q0 48 -31.5 80t-78.5 32zM1026 321q36 0 66 -12.5t52.5 -34t35 -51.5t12.5 -66t-13 -66.5t-35.5 -53t-53 -35t-66.5 -12.5t-66.5 12.5t-53 34.5t-35 52t-12.5 66t13 66t36 52.5
t53.5 35t66.5 12.5zM522 156q0 -49 31 -80.5t79 -31.5t79 31.5t31 80.5q0 48 -31 80t-79 32t-79 -32t-31 -80zM464 155q0 36 13 66t36 52.5t53.5 35t66.5 12.5t66.5 -12.5t53 -34t35 -51.5t12.5 -66t-13 -66.5t-36 -53t-53.5 -35t-66.5 -12.5t-66.5 12.5t-53 34.5t-35 52
t-12.5 66zM637 700h61l-485 -700h-61zM50 543q0 36 13 66.5t36 53t53.5 35t66.5 12.5t66 -12.5t52.5 -34.5t35 -52t12.5 -66t-13 -66.5t-35.5 -53t-53 -35t-66.5 -12.5t-66.5 12.5t-53 34.5t-35 52t-12.5 66zM108 544q0 -48 31 -80t79 -32q47 0 78.5 32t31.5 80t-31.5 80
t-78.5 32q-48 0 -79 -32t-31 -80z" />
    <glyph glyph-name="perthousand.onum" horiz-adv-x="1120" 
d="M834 134q0 -41 26 -66.5t64 -25.5q39 0 64.5 25.5t25.5 66.5q0 40 -25.5 65.5t-64.5 25.5q-38 0 -64 -25.5t-26 -65.5zM778 133q0 31 11.5 57t31 45.5t46.5 30.5t58 11t57.5 -10.5t46 -29.5t30.5 -45t11 -57t-11.5 -57.5t-31 -46t-46.5 -30.5t-58 -11t-57.5 10.5
t-46 29.5t-30.5 45.5t-11 57.5zM50 425q0 31 11.5 57.5t31 46t46.5 30.5t58 11t57 -11t45.5 -30t30.5 -45t11 -57t-11.5 -57.5t-31 -46t-46 -30.5t-57.5 -11t-57.5 11t-46 30t-30.5 45t-11 57zM106 426q0 -40 25.5 -66t64.5 -26q38 0 63.5 26t25.5 66t-25.5 66t-63.5 26
q-39 0 -64.5 -26t-25.5 -66zM428 133q0 31 11.5 57t31 45.5t46.5 30.5t58 11t57.5 -10.5t46 -29.5t30.5 -45t11 -57t-11.5 -57.5t-31 -46t-46.5 -30.5t-58 -11t-57.5 10.5t-46 29.5t-30.5 45.5t-11 57.5zM484 134q0 -41 26 -66.5t64 -25.5q39 0 64.5 25.5t25.5 66.5
q0 40 -25.5 65.5t-64.5 25.5q-38 0 -64 -25.5t-26 -65.5zM562 560h60l-414 -560h-60z" />
    <glyph glyph-name="perthousandsuperior" horiz-adv-x="774" 
d="M632 474q44 0 73 -28t29 -72q0 -43 -30 -71.5t-73 -28.5t-72.5 28t-29.5 71t30 72t73 29zM391 700h47l-293 -420h-47zM40 605q0 44 30 72.5t73 28.5q44 0 73.5 -28t29.5 -72q0 -43 -30.5 -71t-73.5 -28t-72.5 27.5t-29.5 70.5zM290 373q0 43 30 72t73 29q44 0 73 -28
t29 -72q0 -43 -30 -71.5t-73 -28.5t-72.5 28t-29.5 71zM85 606q0 -26 17.5 -42t40.5 -16t41 16t18 42t-18 42.5t-41 16.5t-40.5 -16.5t-17.5 -42.5zM632 433q-24 0 -41.5 -16.5t-17.5 -42.5t17.5 -42.5t41.5 -16.5q23 0 40.5 16.5t17.5 42.5t-17.5 42.5t-40.5 16.5zM334 374
q0 -26 17.5 -42.5t41.5 -16.5q23 0 40.5 16.5t17.5 42.5t-17.5 42.5t-40.5 16.5q-24 0 -41.5 -16.5t-17.5 -42.5z" />
    <glyph glyph-name="seven.lnum" 
d="M469 634h-414v66h500v-50l-343 -650h-80z" />
    <glyph glyph-name="seven.onum" horiz-adv-x="490" 
d="M378 575h-348v65h430v-49l-278 -591h-79z" />
    <glyph glyph-name="six.lnum" 
d="M303 59q36 0 66.5 12.5t53 35t35 53t12.5 66.5t-12.5 66.5t-35 53t-53 35t-66.5 12.5t-67 -12.5t-53.5 -35t-35 -53t-12.5 -66.5t12.5 -66.5t35 -53t53.5 -35t67 -12.5zM325 700h87l-193 -273q16 11 40 19.5t59 8.5q47 0 88.5 -17t72 -47.5t48.5 -72t18 -89.5
q0 -51 -19 -95t-52 -76t-77.5 -50t-95.5 -18t-95 17.5t-76.5 49t-51 74.5t-18.5 94q0 48 15 90t41 80z" />
    <glyph glyph-name="six.onum" horiz-adv-x="565" 
d="M283 58q34 0 63 11.5t50.5 31.5t33.5 48t12 62t-12 62t-33.5 48.5t-50.5 31.5t-63 11t-63 -11t-50.5 -31.5t-33.5 -48.5t-12 -62t12 -62t33.5 -48t50.5 -31.5t63 -11.5zM305 640h84l-181 -238q16 9 38 16t53 7q45 0 84 -15.5t68.5 -43.5t46.5 -66.5t17 -85.5
q0 -49 -18.5 -90t-50 -71t-74.5 -46.5t-91 -16.5t-90 16.5t-73.5 45.5t-49.5 69.5t-18 88.5q0 45 15.5 84.5t43.5 77.5z" />
    <glyph glyph-name="sterling.lnum" 
d="M140 0v322h-95v51h95v108q0 54 16.5 97t46 72t70.5 44.5t89 15.5q56 0 93 -18t61 -40q26 -26 42 -58l-62 -35q-9 23 -27 41q-17 17 -42.5 29t-66.5 12q-66 0 -105.5 -40.5t-39.5 -110.5v-117h235v-51h-235v-257h320v-65h-395z" />
    <glyph glyph-name="sterling.onum" horiz-adv-x="563" 
d="M130 0v292h-95v51h95v88q0 52 16 93t44.5 69t67 42.5t84.5 14.5q55 0 90.5 -17t56.5 -38q25 -24 39 -55l-61 -35q-7 22 -24 39q-14 15 -38.5 26.5t-64.5 11.5q-61 0 -98.5 -38t-37.5 -104v-97h216v-51h-216v-228h301v-64h-375z" />
    <glyph glyph-name="sterlingsuperior" horiz-adv-x="385" 
d="M96 280v189h-56v39h56v60q0 66 39 102t99 36q34 0 57 -10.5t38 -23.5q16 -16 26 -35l-45 -26q-6 12 -16 22q-9 8 -23.5 14.5t-37.5 6.5q-37 0 -58.5 -21.5t-21.5 -60.5v-64h138v-39h-138v-141h189v-48h-246z" />
    <glyph glyph-name="three.lnum" 
d="M278 395q76 0 116.5 35.5t40.5 89.5t-40.5 89t-114.5 35q-40 0 -67.5 -12.5t-45.5 -27.5q-20 -18 -33 -41l-56 31q18 32 47 58q27 24 65 41t95 17q50 0 91.5 -13.5t71 -37.5t46 -57.5t16.5 -73.5q0 -55 -33 -97.5t-90 -63.5q66 -21 104.5 -68t38.5 -109
q0 -43 -18.5 -79.5t-52 -63.5t-79.5 -42t-100 -15q-61 0 -104 19t-70 42q-32 27 -53 61l56 36q17 -25 41 -45q22 -19 53.5 -32.5t75.5 -13.5q41 0 73.5 10.5t55 29.5t35 44t12.5 54t-12 54.5t-35.5 44.5t-56.5 30t-75 11h-66v60h68z" />
    <glyph glyph-name="three.onum" horiz-adv-x="518" 
d="M235 362q66 0 102.5 32t36.5 81q0 50 -36.5 81t-98.5 31q-35 0 -59 -11t-38 -24q-18 -16 -28 -36l-59 26q16 30 42 54q23 22 58 38t87 16q45 0 82.5 -12t65 -34t43 -53t15.5 -69q0 -51 -29.5 -88.5t-78.5 -57.5q58 -19 93 -61t35 -100q0 -41 -17.5 -75t-48.5 -58.5
t-73.5 -38t-91.5 -13.5q-57 0 -96.5 18t-63.5 40q-29 25 -47 57l59 30q14 -23 35 -40q19 -17 46.5 -29t67.5 -12q71 0 113.5 35.5t42.5 89.5t-43.5 90.5t-117.5 36.5h-63v56h65z" />
    <glyph glyph-name="two.lnum" 
d="M341 315q57 56 80 98t23 88q0 30 -11.5 56t-31.5 44.5t-48.5 29.5t-61.5 11q-45 0 -75.5 -16t-50.5 -36q-23 -23 -38 -52l-57 32q18 39 49 70q28 28 71 49t107 21q48 0 88.5 -15.5t70.5 -42.5t46.5 -64t16.5 -79q0 -33 -8 -62.5t-24 -58t-40.5 -57.5t-57.5 -62l-208 -204
h333v-65h-440v54z" />
    <glyph glyph-name="two.onum" horiz-adv-x="519" 
d="M305 299q49 47 67 82.5t18 74.5q0 29 -10.5 52.5t-28.5 40t-42 26t-52 9.5q-43 0 -72.5 -15.5t-47.5 -34.5q-21 -22 -34 -50l-58 26q16 39 46 70q26 28 67.5 49t104.5 21q42 0 79 -14t64 -39t42.5 -59t15.5 -75q0 -58 -27.5 -105t-86.5 -104l-197 -190h306v-64h-410v53z
" />
    <glyph glyph-name="yen.lnum" 
d="M263 185h-211v48h211v90l-7 12h-204v48h176l-196 317h90l182 -307l181 307h87l-196 -317h176v-48h-204l-7 -12v-90h211v-48h-211v-185h-78v185z" />
    <glyph glyph-name="yen.onum" horiz-adv-x="608" 
d="M267 147h-222v48h222v90l-8 12h-214v48h183l-203 295h91l190 -290l190 290h87l-203 -295h183v-48h-214l-7 -12v-90h221v-48h-221v-147h-75v147z" />
    <glyph glyph-name="yensuperior" horiz-adv-x="400" 
d="M171 386h-139v37h139v50l-5 8h-134v37h110l-122 182h66l116 -179l113 179h65l-122 -182h110v-37h-134l-4 -8v-50h138v-37h-138v-106h-59v106z" />
    <glyph glyph-name="zero.lnum" 
d="M147 220q0 -75 42.5 -118t112.5 -43t112.5 43t42.5 118v260q0 75 -42.5 118t-112.5 43t-112.5 -43t-42.5 -118v-260zM72 471q0 57 17.5 101t48 75t73 47t93.5 16q50 0 92 -15.5t72 -45.5t47 -74t17 -101v-245q0 -57 -17 -101t-48 -75t-73.5 -47t-92.5 -16q-51 0 -93 15.5
t-72 45.5t-47 74t-17 101v245z" />
    <glyph glyph-name="zero.onum" horiz-adv-x="565" 
d="M136 210q0 -71 40 -111.5t106 -40.5t106.5 40.5t40.5 111.5v220q0 71 -40.5 111.5t-106.5 40.5t-106 -40.5t-40 -111.5v-220zM62 421q0 54 16.5 97t46.5 72t70.5 44.5t88.5 15.5t88 -15t69 -43.5t45 -71t16 -96.5v-205q0 -54 -16.5 -97t-46 -72t-70 -44.5t-88.5 -15.5
t-88 15t-69.5 43.5t-45.5 71t-16 96.5v205z" />
    </font>
</defs>
</svg>
