<svg xmlns="http://www.w3.org/2000/svg" width="17" height="17" fill="none" viewBox="0 0 17 17">
    <path stroke="#ECECEC" stroke-linecap="round" stroke-linejoin="round" d="M12.245 1H4.747C2.677 1 .997 2.679.997 4.75v7.5c0 2.071 1.68 3.75 3.75 3.75h7.498c2.07 0 3.75-1.679 3.75-3.75v-7.5c0-2.071-1.68-3.75-3.75-3.75z"/>
    <path stroke="#ECECEC" stroke-linecap="round" stroke-linejoin="round" d="M11.496 8.027c.092.625-.014 1.262-.305 1.822-.29.56-.75 1.014-1.314 1.298-.563.284-1.202.383-1.825.282-.623-.1-1.198-.394-1.644-.84-.446-.446-.74-1.022-.84-1.645-.1-.623-.002-1.262.282-1.825.283-.564.737-1.024 1.297-1.314.56-.291 1.198-.398 1.822-.305.636.094 1.226.391 1.68.846.456.455.752 1.045.847 1.681z"/>
    <path stroke="#ECECEC" stroke-linecap="round" stroke-linejoin="round" stroke-width="2" d="M12.62 4.375h.01"/>
</svg>
