<svg xmlns="http://www.w3.org/2000/svg" width="20" height="17" fill="none" viewBox="0 0 20 17">
    <path stroke="#ECECEC" stroke-linecap="round" stroke-linejoin="round" d="M19.388 1.008c-.8.565-1.686.997-2.625 1.28-.503-.58-1.172-.99-1.916-1.176-.745-.186-1.528-.14-2.245.134-.716.274-1.332.76-1.763 1.396-.43.634-.656 1.386-.646 2.153v.836c-1.47.038-2.925-.288-4.237-.948-1.313-.661-2.442-1.636-3.287-2.839 0 0-3.343 7.524 4.18 10.868-1.721 1.168-3.772 1.754-5.851 1.671 7.523 4.18 16.719 0 16.719-9.613-.001-.233-.024-.465-.067-.694.853-.841 1.455-1.903 1.738-3.068z"/>
</svg>
